M48
; DRILL file {KiCad (6.0.1)} date Fri Mar 10 13:51:53 2023
; FORMAT={-:-/ absolute / inch / decimal}
; #@! TF.CreationDate,2023-03-10T13:51:53+01:00
; #@! TF.GenerationSoftware,Kicad,Pcbnew,(6.0.1)
; #@! TF.FileFunction,Plated,1,2,PTH
FMAT,2
INCH
; #@! TA.AperFunction,Plated,PTH,ComponentDrill
T1C0.0236
; #@! TA.AperFunction,Plated,PTH,ComponentDrill
T2C0.0394
%
G90
G05
T1
X5.49Y-3.1305
X5.49Y-3.1895
T2
X4.0227Y-3.2025
X4.0227Y-3.3025
X4.0227Y-3.4025
X4.0227Y-3.5025
X4.7604Y-2.8579
X4.7604Y-3.8579
X4.8604Y-2.8579
X4.8604Y-3.8579
X4.9604Y-2.8579
X4.9604Y-3.8579
X5.0604Y-2.8579
X5.0604Y-3.8579
X5.1604Y-2.8579
X5.1604Y-3.8579
X5.2604Y-2.8579
X5.2604Y-3.8579
X5.3604Y-2.8579
X5.3604Y-3.8579
X5.4604Y-2.8579
X5.4604Y-3.8579
X5.5604Y-2.8579
X5.5604Y-3.8579
X5.6604Y-2.8579
X5.6604Y-3.8579
X5.7604Y-2.8579
X5.7604Y-3.8579
X5.7775Y-3.1906
X5.7775Y-3.2906
X5.7775Y-3.3906
X5.7775Y-3.4906
X5.8604Y-2.8579
X5.8604Y-3.8579
X5.8775Y-3.1906
X5.8775Y-3.2906
X5.8775Y-3.3906
X5.8775Y-3.4906
X5.9604Y-2.8579
X5.9604Y-3.8579
X6.0604Y-2.8579
X6.0604Y-3.8579
X6.1604Y-2.8579
X6.1604Y-3.8579
X6.2604Y-2.8579
X6.2604Y-3.8579
X6.3604Y-2.8579
X6.3604Y-3.8579
X6.4604Y-2.8579
X6.4604Y-3.8579
X6.5604Y-2.8579
X6.5604Y-3.8579
T0
M30
