%TF.GenerationSoftware,KiCad,Pcbnew,(6.0.10-0)*%
%TF.CreationDate,2023-02-16T19:20:24+01:00*%
%TF.ProjectId,openDTU_wDisplay,6f70656e-4454-4555-9f77-446973706c61,rev?*%
%TF.SameCoordinates,Original*%
%TF.FileFunction,Copper,L1,Top*%
%TF.FilePolarity,Positive*%
%FSLAX46Y46*%
G04 Gerber Fmt 4.6, Leading zero omitted, Abs format (unit mm)*
G04 Created by KiCad (PCBNEW (6.0.10-0)) date 2023-02-16 19:20:24*
%MOMM*%
%LPD*%
G01*
G04 APERTURE LIST*
%TA.AperFunction,ComponentPad*%
%ADD10R,1.727200X1.727200*%
%TD*%
%TA.AperFunction,ComponentPad*%
%ADD11O,1.727200X1.727200*%
%TD*%
%TA.AperFunction,ComponentPad*%
%ADD12C,1.200000*%
%TD*%
%TA.AperFunction,ComponentPad*%
%ADD13O,2.000000X1.600000*%
%TD*%
%TA.AperFunction,ComponentPad*%
%ADD14R,1.700000X1.700000*%
%TD*%
%TA.AperFunction,ComponentPad*%
%ADD15O,1.700000X1.700000*%
%TD*%
%TA.AperFunction,Conductor*%
%ADD16C,0.250000*%
%TD*%
G04 APERTURE END LIST*
D10*
%TO.P,NRF24L01+1,1,GND*%
%TO.N,GND*%
X148272500Y-81883000D03*
D11*
%TO.P,NRF24L01+1,2,VCC*%
%TO.N,PWR3x3*%
X150812500Y-81883000D03*
%TO.P,NRF24L01+1,3,CE*%
%TO.N,CE*%
X148272500Y-84423000D03*
%TO.P,NRF24L01+1,4,~{CSN}*%
%TO.N,~{CSN}*%
X150812500Y-84423000D03*
%TO.P,NRF24L01+1,5,SCK*%
%TO.N,SCK*%
X148272500Y-86963000D03*
%TO.P,NRF24L01+1,6,MOSI*%
%TO.N,MOSI*%
X150812500Y-86963000D03*
%TO.P,NRF24L01+1,7,MISO*%
%TO.N,MISO*%
X148272500Y-89503000D03*
%TO.P,NRF24L01+1,8,IRQ*%
%TO.N,IRQ*%
X150812500Y-89503000D03*
%TD*%
D12*
%TO.P,+ C1,1*%
%TO.N,PWR3x3*%
X150368000Y-77216000D03*
%TO.P,+ C1,2*%
%TO.N,GND*%
X148868000Y-77216000D03*
%TD*%
D13*
%TO.P,SSD1306,1,GND*%
%TO.N,GND*%
X102176000Y-88964000D03*
%TO.P,SSD1306,2,VCC*%
%TO.N,PWR3x3*%
X102176000Y-86424000D03*
%TO.P,SSD1306,3,SCL*%
%TO.N,SCL*%
X102176000Y-83884000D03*
%TO.P,SSD1306,4,SDA*%
%TO.N,SDA*%
X102176000Y-81344000D03*
%TD*%
D14*
%TO.P,ESP32NodeMCU1,1,3V3*%
%TO.N,PWR3x3*%
X120914000Y-72591500D03*
D15*
%TO.P,ESP32NodeMCU1,2,EN*%
%TO.N,unconnected-(ESP32NodeMCU1-Pad2)*%
X123454000Y-72591500D03*
%TO.P,ESP32NodeMCU1,3,SP*%
%TO.N,unconnected-(ESP32NodeMCU1-Pad3)*%
X125994000Y-72591500D03*
%TO.P,ESP32NodeMCU1,4,SN*%
%TO.N,unconnected-(ESP32NodeMCU1-Pad4)*%
X128534000Y-72591500D03*
%TO.P,ESP32NodeMCU1,5,G34*%
%TO.N,unconnected-(ESP32NodeMCU1-Pad5)*%
X131074000Y-72591500D03*
%TO.P,ESP32NodeMCU1,6,G35*%
%TO.N,unconnected-(ESP32NodeMCU1-Pad6)*%
X133614000Y-72591500D03*
%TO.P,ESP32NodeMCU1,7,G32*%
%TO.N,unconnected-(ESP32NodeMCU1-Pad7)*%
X136154000Y-72591500D03*
%TO.P,ESP32NodeMCU1,8,G33*%
%TO.N,unconnected-(ESP32NodeMCU1-Pad8)*%
X138694000Y-72591500D03*
%TO.P,ESP32NodeMCU1,9,G25*%
%TO.N,unconnected-(ESP32NodeMCU1-Pad9)*%
X141234000Y-72591500D03*
%TO.P,ESP32NodeMCU1,10,G26*%
%TO.N,unconnected-(ESP32NodeMCU1-Pad10)*%
X143774000Y-72591500D03*
%TO.P,ESP32NodeMCU1,11,G27*%
%TO.N,unconnected-(ESP32NodeMCU1-Pad11)*%
X146314000Y-72591500D03*
%TO.P,ESP32NodeMCU1,12,G14*%
%TO.N,unconnected-(ESP32NodeMCU1-Pad12)*%
X148854000Y-72591500D03*
%TO.P,ESP32NodeMCU1,13,G12*%
%TO.N,unconnected-(ESP32NodeMCU1-Pad13)*%
X151394000Y-72591500D03*
%TO.P,ESP32NodeMCU1,14,GND*%
%TO.N,GND*%
X153934000Y-72591500D03*
%TO.P,ESP32NodeMCU1,15,G13*%
%TO.N,unconnected-(ESP32NodeMCU1-Pad15)*%
X156474000Y-72591500D03*
%TO.P,ESP32NodeMCU1,16,SD2*%
%TO.N,unconnected-(ESP32NodeMCU1-Pad16)*%
X159014000Y-72591500D03*
%TO.P,ESP32NodeMCU1,17,SD3*%
%TO.N,unconnected-(ESP32NodeMCU1-Pad17)*%
X161554000Y-72591500D03*
%TO.P,ESP32NodeMCU1,18,CMD*%
%TO.N,unconnected-(ESP32NodeMCU1-Pad18)*%
X164094000Y-72591500D03*
%TO.P,ESP32NodeMCU1,19,5V*%
%TO.N,unconnected-(ESP32NodeMCU1-Pad19)*%
X166634000Y-72591500D03*
%TO.P,ESP32NodeMCU1,20,CLK*%
%TO.N,unconnected-(ESP32NodeMCU1-Pad20)*%
X166634000Y-97991500D03*
%TO.P,ESP32NodeMCU1,21,SD0*%
%TO.N,unconnected-(ESP32NodeMCU1-Pad21)*%
X164094000Y-97991500D03*
%TO.P,ESP32NodeMCU1,22,SD1*%
%TO.N,unconnected-(ESP32NodeMCU1-Pad22)*%
X161554000Y-97991500D03*
%TO.P,ESP32NodeMCU1,23,G15*%
%TO.N,unconnected-(ESP32NodeMCU1-Pad23)*%
X159014000Y-97991500D03*
%TO.P,ESP32NodeMCU1,24,G2*%
%TO.N,unconnected-(ESP32NodeMCU1-Pad24)*%
X156474000Y-97991500D03*
%TO.P,ESP32NodeMCU1,25,G0*%
%TO.N,unconnected-(ESP32NodeMCU1-Pad25)*%
X153934000Y-97991500D03*
%TO.P,ESP32NodeMCU1,26,G4*%
%TO.N,CE*%
X151394000Y-97991500D03*
%TO.P,ESP32NodeMCU1,27,G16*%
%TO.N,IRQ*%
X148854000Y-97991500D03*
%TO.P,ESP32NodeMCU1,28,G17*%
%TO.N,unconnected-(ESP32NodeMCU1-Pad28)*%
X146314000Y-97991500D03*
%TO.P,ESP32NodeMCU1,29,G5*%
%TO.N,~{CSN}*%
X143774000Y-97991500D03*
%TO.P,ESP32NodeMCU1,30,G18*%
%TO.N,SCK*%
X141234000Y-97991500D03*
%TO.P,ESP32NodeMCU1,31,G19*%
%TO.N,MISO*%
X138694000Y-97991500D03*
%TO.P,ESP32NodeMCU1,32,GND*%
%TO.N,GND*%
X136154000Y-97991500D03*
%TO.P,ESP32NodeMCU1,33,G21*%
%TO.N,SDA*%
X133614000Y-97991500D03*
%TO.P,ESP32NodeMCU1,34,RXD*%
%TO.N,unconnected-(ESP32NodeMCU1-Pad34)*%
X131074000Y-97991500D03*
%TO.P,ESP32NodeMCU1,35,TXD*%
%TO.N,unconnected-(ESP32NodeMCU1-Pad35)*%
X128534000Y-97991500D03*
%TO.P,ESP32NodeMCU1,36,G22*%
%TO.N,SCL*%
X125994000Y-97991500D03*
%TO.P,ESP32NodeMCU1,37,G23*%
%TO.N,MOSI*%
X123454000Y-97991500D03*
D14*
%TO.P,ESP32NodeMCU1,38,GND*%
%TO.N,GND*%
X120914000Y-97991500D03*
%TD*%
D16*
%TO.N,PWR3x3*%
X123506500Y-75184000D02*
X148844000Y-75184000D01*
X101156000Y-86424000D02*
X102176000Y-86424000D01*
X99568000Y-84836000D02*
X101156000Y-86424000D01*
X148844000Y-75184000D02*
X150812500Y-77152500D01*
X120914000Y-72591500D02*
X104700500Y-72591500D01*
X104700500Y-72591500D02*
X99568000Y-77724000D01*
X120914000Y-72591500D02*
X123506500Y-75184000D01*
X150812500Y-77152500D02*
X150812500Y-81883000D01*
X99568000Y-77724000D02*
X99568000Y-84836000D01*
%TO.N,IRQ*%
X148854000Y-97991500D02*
X148854000Y-96510000D01*
X150812500Y-94424500D02*
X150812500Y-89503000D01*
X148854000Y-96510000D02*
X150876000Y-94488000D01*
X150876000Y-94488000D02*
X150812500Y-94424500D01*
%TO.N,~{CSN}*%
X149623900Y-85611600D02*
X150812500Y-84423000D01*
X149623900Y-94216100D02*
X149623900Y-85611600D01*
X146769500Y-94996000D02*
X148844000Y-94996000D01*
X148844000Y-94996000D02*
X149623900Y-94216100D01*
X143774000Y-97991500D02*
X146769500Y-94996000D01*
%TO.N,MISO*%
X138694000Y-91430000D02*
X140621000Y-89503000D01*
X140621000Y-89503000D02*
X148272500Y-89503000D01*
X138694000Y-97991500D02*
X138694000Y-91430000D01*
%TO.N,SDA*%
X102176000Y-81344000D02*
X105220000Y-81344000D01*
X118872000Y-94996000D02*
X130618500Y-94996000D01*
X130618500Y-94996000D02*
X133614000Y-97991500D01*
X105220000Y-81344000D02*
X118872000Y-94996000D01*
%TO.N,SCL*%
X117348000Y-96012000D02*
X124014500Y-96012000D01*
X105220000Y-83884000D02*
X117348000Y-96012000D01*
X124014500Y-96012000D02*
X125994000Y-97991500D01*
X102176000Y-83884000D02*
X105220000Y-83884000D01*
%TD*%
%TA.AperFunction,Conductor*%
%TO.N,GND*%
G36*
X179802018Y-70106000D02*
G01*
X179816852Y-70108310D01*
X179816855Y-70108310D01*
X179825724Y-70109691D01*
X179834626Y-70108527D01*
X179834627Y-70108527D01*
X179847104Y-70106896D01*
X179868385Y-70105930D01*
X180265440Y-70121530D01*
X180275303Y-70122306D01*
X180701167Y-70172710D01*
X180710939Y-70174258D01*
X181131523Y-70257918D01*
X181141143Y-70260228D01*
X181553866Y-70376628D01*
X181563275Y-70379685D01*
X181956575Y-70524780D01*
X181965601Y-70528110D01*
X181974738Y-70531895D01*
X182364182Y-70711431D01*
X182372987Y-70715918D01*
X182747145Y-70925457D01*
X182755581Y-70930626D01*
X183112139Y-71168871D01*
X183120128Y-71174675D01*
X183228961Y-71260472D01*
X183456901Y-71440166D01*
X183464424Y-71446591D01*
X183597284Y-71569405D01*
X183779335Y-71737691D01*
X183786309Y-71744665D01*
X183942372Y-71913493D01*
X184077409Y-72059576D01*
X184083834Y-72067099D01*
X184235097Y-72258974D01*
X184336371Y-72387439D01*
X184349319Y-72403864D01*
X184355129Y-72411861D01*
X184472919Y-72588146D01*
X184593374Y-72768419D01*
X184598543Y-72776855D01*
X184808082Y-73151013D01*
X184812569Y-73159818D01*
X184989661Y-73543960D01*
X184992104Y-73549259D01*
X184995890Y-73558399D01*
X185144315Y-73960725D01*
X185147372Y-73970134D01*
X185263772Y-74382857D01*
X185266082Y-74392477D01*
X185349742Y-74813061D01*
X185351290Y-74822833D01*
X185401694Y-75248697D01*
X185402470Y-75258560D01*
X185417776Y-75648134D01*
X185416373Y-75672463D01*
X185415691Y-75676847D01*
X185414309Y-75685724D01*
X185415473Y-75694626D01*
X185415473Y-75694628D01*
X185418436Y-75717283D01*
X185419500Y-75733621D01*
X185419500Y-94438633D01*
X185418000Y-94458018D01*
X185416189Y-94469652D01*
X185414309Y-94481724D01*
X185415473Y-94490626D01*
X185415473Y-94490627D01*
X185417104Y-94503104D01*
X185418070Y-94524385D01*
X185402470Y-94921440D01*
X185401694Y-94931303D01*
X185351290Y-95357167D01*
X185349742Y-95366939D01*
X185266082Y-95787523D01*
X185263772Y-95797143D01*
X185147372Y-96209866D01*
X185144315Y-96219275D01*
X185009616Y-96584396D01*
X184995890Y-96621601D01*
X184992105Y-96630738D01*
X184815353Y-97014144D01*
X184812574Y-97020172D01*
X184808082Y-97028987D01*
X184598543Y-97403145D01*
X184593374Y-97411581D01*
X184362237Y-97757502D01*
X184355134Y-97768132D01*
X184349325Y-97776128D01*
X184254758Y-97896086D01*
X184083834Y-98112901D01*
X184077409Y-98120424D01*
X184038515Y-98162500D01*
X183786309Y-98435335D01*
X183779335Y-98442309D01*
X183719140Y-98497953D01*
X183464424Y-98733409D01*
X183456901Y-98739834D01*
X183291197Y-98870465D01*
X183120128Y-99005325D01*
X183112139Y-99011129D01*
X182966964Y-99108132D01*
X182755581Y-99249374D01*
X182747145Y-99254543D01*
X182372987Y-99464082D01*
X182364182Y-99468569D01*
X181974741Y-99648104D01*
X181965604Y-99651889D01*
X181764438Y-99726102D01*
X181563275Y-99800315D01*
X181553866Y-99803372D01*
X181141143Y-99919772D01*
X181131523Y-99922082D01*
X180710939Y-100005742D01*
X180701167Y-100007290D01*
X180275303Y-100057694D01*
X180265440Y-100058470D01*
X179875866Y-100073776D01*
X179851537Y-100072373D01*
X179847153Y-100071691D01*
X179847152Y-100071691D01*
X179838276Y-100070309D01*
X179829374Y-100071473D01*
X179829372Y-100071473D01*
X179814323Y-100073441D01*
X179806714Y-100074436D01*
X179790379Y-100075500D01*
X96061367Y-100075500D01*
X96041982Y-100074000D01*
X96027148Y-100071690D01*
X96027145Y-100071690D01*
X96018276Y-100070309D01*
X96009374Y-100071473D01*
X96009373Y-100071473D01*
X95996896Y-100073104D01*
X95975615Y-100074070D01*
X95578560Y-100058470D01*
X95568697Y-100057694D01*
X95142833Y-100007290D01*
X95133061Y-100005742D01*
X94712477Y-99922082D01*
X94702857Y-99919772D01*
X94290134Y-99803372D01*
X94280725Y-99800315D01*
X94079562Y-99726102D01*
X93878396Y-99651889D01*
X93869259Y-99648104D01*
X93479818Y-99468569D01*
X93471013Y-99464082D01*
X93096855Y-99254543D01*
X93088419Y-99249374D01*
X92877036Y-99108132D01*
X92731861Y-99011129D01*
X92723872Y-99005325D01*
X92572723Y-98886169D01*
X119556001Y-98886169D01*
X119556371Y-98892990D01*
X119561895Y-98943852D01*
X119565521Y-98959104D01*
X119610676Y-99079554D01*
X119619214Y-99095149D01*
X119695715Y-99197224D01*
X119708276Y-99209785D01*
X119810351Y-99286286D01*
X119825946Y-99294824D01*
X119946394Y-99339978D01*
X119961649Y-99343605D01*
X120012514Y-99349131D01*
X120019328Y-99349500D01*
X120641885Y-99349500D01*
X120657124Y-99345025D01*
X120658329Y-99343635D01*
X120660000Y-99335952D01*
X120660000Y-98263615D01*
X120655525Y-98248376D01*
X120654135Y-98247171D01*
X120646452Y-98245500D01*
X119574116Y-98245500D01*
X119558877Y-98249975D01*
X119557672Y-98251365D01*
X119556001Y-98259048D01*
X119556001Y-98886169D01*
X92572723Y-98886169D01*
X92552803Y-98870465D01*
X92387099Y-98739834D01*
X92379576Y-98733409D01*
X92124860Y-98497953D01*
X92064665Y-98442309D01*
X92057691Y-98435335D01*
X91805485Y-98162500D01*
X91766591Y-98120424D01*
X91760166Y-98112901D01*
X91589242Y-97896086D01*
X91494675Y-97776128D01*
X91488866Y-97768132D01*
X91481764Y-97757502D01*
X91250626Y-97411581D01*
X91245457Y-97403145D01*
X91035918Y-97028987D01*
X91031426Y-97020172D01*
X91028648Y-97014144D01*
X90851895Y-96630738D01*
X90848110Y-96621601D01*
X90834385Y-96584396D01*
X90699685Y-96219275D01*
X90696628Y-96209866D01*
X90580228Y-95797143D01*
X90577918Y-95787523D01*
X90530768Y-95550485D01*
X92332854Y-95550485D01*
X92333156Y-95554320D01*
X92351108Y-95782417D01*
X92358370Y-95874695D01*
X92423206Y-96193378D01*
X92526398Y-96501784D01*
X92528052Y-96505253D01*
X92528053Y-96505254D01*
X92552619Y-96556758D01*
X92666405Y-96795316D01*
X92668467Y-96798553D01*
X92668470Y-96798558D01*
X92704430Y-96855003D01*
X92841141Y-97069597D01*
X92843584Y-97072560D01*
X92843585Y-97072562D01*
X93042194Y-97313493D01*
X93048001Y-97320538D01*
X93283902Y-97544399D01*
X93545326Y-97737843D01*
X93591279Y-97763842D01*
X93825019Y-97896086D01*
X93825023Y-97896088D01*
X93828376Y-97897985D01*
X94128832Y-98022438D01*
X94232288Y-98051129D01*
X94438500Y-98108317D01*
X94438508Y-98108319D01*
X94442216Y-98109347D01*
X94763856Y-98157416D01*
X94767154Y-98157560D01*
X94878918Y-98162440D01*
X94878922Y-98162440D01*
X94880294Y-98162500D01*
X95078598Y-98162500D01*
X95320605Y-98147698D01*
X95324388Y-98146997D01*
X95324395Y-98146996D01*
X95487365Y-98116791D01*
X95640372Y-98088433D01*
X95849682Y-98022438D01*
X95946860Y-97991798D01*
X95946863Y-97991797D01*
X95950532Y-97990640D01*
X95954029Y-97989046D01*
X95954035Y-97989044D01*
X96242954Y-97857376D01*
X96242958Y-97857374D01*
X96246462Y-97855777D01*
X96349621Y-97792561D01*
X96520473Y-97687863D01*
X96520476Y-97687861D01*
X96523751Y-97685854D01*
X96526755Y-97683464D01*
X96526760Y-97683461D01*
X96697743Y-97547454D01*
X96778264Y-97483405D01*
X96780958Y-97480664D01*
X96780962Y-97480660D01*
X97003513Y-97254190D01*
X97003517Y-97254185D01*
X97006208Y-97251447D01*
X97162555Y-97047692D01*
X97201835Y-96996502D01*
X97201837Y-96996498D01*
X97204185Y-96993439D01*
X97348678Y-96748138D01*
X97367289Y-96716543D01*
X97367291Y-96716540D01*
X97369242Y-96713227D01*
X97498920Y-96414988D01*
X97508873Y-96381389D01*
X97565681Y-96189607D01*
X97591285Y-96103169D01*
X97644961Y-95782417D01*
X97659146Y-95457515D01*
X97646388Y-95295410D01*
X97633932Y-95137140D01*
X97633932Y-95137137D01*
X97633630Y-95133305D01*
X97568794Y-94814622D01*
X97465602Y-94506216D01*
X97462901Y-94500552D01*
X97366431Y-94298299D01*
X97325595Y-94212684D01*
X97318189Y-94201058D01*
X97199377Y-94014561D01*
X97150859Y-93938403D01*
X97003470Y-93759606D01*
X96946442Y-93690425D01*
X96946438Y-93690420D01*
X96943999Y-93687462D01*
X96708098Y-93463601D01*
X96446674Y-93270157D01*
X96241781Y-93154234D01*
X96166981Y-93111914D01*
X96166977Y-93111912D01*
X96163624Y-93110015D01*
X95863168Y-92985562D01*
X95759712Y-92956871D01*
X95553500Y-92899683D01*
X95553492Y-92899681D01*
X95549784Y-92898653D01*
X95228144Y-92850584D01*
X95224846Y-92850440D01*
X95113082Y-92845560D01*
X95113078Y-92845560D01*
X95111706Y-92845500D01*
X94913402Y-92845500D01*
X94671395Y-92860302D01*
X94667612Y-92861003D01*
X94667605Y-92861004D01*
X94511511Y-92889935D01*
X94351628Y-92919567D01*
X94167058Y-92977762D01*
X94045140Y-93016202D01*
X94045137Y-93016203D01*
X94041468Y-93017360D01*
X94037971Y-93018954D01*
X94037965Y-93018956D01*
X93749046Y-93150624D01*
X93749042Y-93150626D01*
X93745538Y-93152223D01*
X93468249Y-93322146D01*
X93465245Y-93324536D01*
X93465240Y-93324539D01*
X93340992Y-93423371D01*
X93213736Y-93524595D01*
X93211042Y-93527336D01*
X93211038Y-93527340D01*
X92988487Y-93753810D01*
X92988483Y-93753815D01*
X92985792Y-93756553D01*
X92787815Y-94014561D01*
X92694018Y-94173797D01*
X92626547Y-94288341D01*
X92622758Y-94294773D01*
X92493080Y-94593012D01*
X92491986Y-94596706D01*
X92491984Y-94596711D01*
X92462498Y-94696254D01*
X92400715Y-94904831D01*
X92347039Y-95225583D01*
X92332854Y-95550485D01*
X90530768Y-95550485D01*
X90494258Y-95366939D01*
X90492710Y-95357167D01*
X90442306Y-94931303D01*
X90441530Y-94921440D01*
X90428468Y-94588982D01*
X90426372Y-94535644D01*
X90428021Y-94509794D01*
X90428623Y-94506216D01*
X90429576Y-94500552D01*
X90429729Y-94488000D01*
X90425773Y-94460376D01*
X90424500Y-94442514D01*
X90424500Y-89230522D01*
X100693273Y-89230522D01*
X100740764Y-89407761D01*
X100744510Y-89418053D01*
X100836586Y-89615511D01*
X100842069Y-89625007D01*
X100967028Y-89803467D01*
X100974084Y-89811875D01*
X101128125Y-89965916D01*
X101136533Y-89972972D01*
X101314993Y-90097931D01*
X101324489Y-90103414D01*
X101521947Y-90195490D01*
X101532239Y-90199236D01*
X101742688Y-90255625D01*
X101753481Y-90257528D01*
X101907330Y-90270988D01*
X101919124Y-90267525D01*
X101920329Y-90266135D01*
X101922000Y-90258452D01*
X101922000Y-90253885D01*
X102430000Y-90253885D01*
X102434475Y-90269124D01*
X102435865Y-90270329D01*
X102440553Y-90271348D01*
X102598519Y-90257528D01*
X102609312Y-90255625D01*
X102819761Y-90199236D01*
X102830053Y-90195490D01*
X103027511Y-90103414D01*
X103037007Y-90097931D01*
X103215467Y-89972972D01*
X103223875Y-89965916D01*
X103377916Y-89811875D01*
X103384972Y-89803467D01*
X103509931Y-89625007D01*
X103515414Y-89615511D01*
X103607490Y-89418053D01*
X103611236Y-89407761D01*
X103657394Y-89235497D01*
X103657058Y-89221401D01*
X103649116Y-89218000D01*
X102448115Y-89218000D01*
X102432876Y-89222475D01*
X102431671Y-89223865D01*
X102430000Y-89231548D01*
X102430000Y-90253885D01*
X101922000Y-90253885D01*
X101922000Y-89236115D01*
X101917525Y-89220876D01*
X101916135Y-89219671D01*
X101908452Y-89218000D01*
X100708033Y-89218000D01*
X100694502Y-89221973D01*
X100693273Y-89230522D01*
X90424500Y-89230522D01*
X90424500Y-77703943D01*
X98929780Y-77703943D01*
X98930526Y-77711835D01*
X98933941Y-77747961D01*
X98934500Y-77759819D01*
X98934500Y-84757233D01*
X98933973Y-84768416D01*
X98932298Y-84775909D01*
X98932547Y-84783835D01*
X98932547Y-84783836D01*
X98934438Y-84843986D01*
X98934500Y-84847945D01*
X98934500Y-84875856D01*
X98934997Y-84879790D01*
X98934997Y-84879791D01*
X98935005Y-84879856D01*
X98935938Y-84891693D01*
X98937327Y-84935889D01*
X98942978Y-84955339D01*
X98946987Y-84974700D01*
X98949526Y-84994797D01*
X98952445Y-85002168D01*
X98952445Y-85002170D01*
X98965804Y-85035912D01*
X98969649Y-85047142D01*
X98981982Y-85089593D01*
X98986015Y-85096412D01*
X98986017Y-85096417D01*
X98992293Y-85107028D01*
X99000988Y-85124776D01*
X99008448Y-85143617D01*
X99013110Y-85150033D01*
X99013110Y-85150034D01*
X99034436Y-85179387D01*
X99040952Y-85189307D01*
X99063458Y-85227362D01*
X99077779Y-85241683D01*
X99090619Y-85256716D01*
X99102528Y-85273107D01*
X99108634Y-85278158D01*
X99136605Y-85301298D01*
X99145384Y-85309288D01*
X100652343Y-86816247D01*
X100659887Y-86824537D01*
X100664000Y-86831018D01*
X100669777Y-86836443D01*
X100713667Y-86877658D01*
X100716509Y-86880413D01*
X100736230Y-86900134D01*
X100739425Y-86902612D01*
X100748435Y-86910307D01*
X100749530Y-86911335D01*
X100777484Y-86949947D01*
X100838477Y-87080749D01*
X100969802Y-87268300D01*
X101131700Y-87430198D01*
X101136208Y-87433355D01*
X101136211Y-87433357D01*
X101188307Y-87469835D01*
X101319251Y-87561523D01*
X101324233Y-87563846D01*
X101324238Y-87563849D01*
X101359049Y-87580081D01*
X101412334Y-87626998D01*
X101431795Y-87695275D01*
X101411253Y-87763235D01*
X101359049Y-87808471D01*
X101324489Y-87824586D01*
X101314993Y-87830069D01*
X101136533Y-87955028D01*
X101128125Y-87962084D01*
X100974084Y-88116125D01*
X100967028Y-88124533D01*
X100842069Y-88302993D01*
X100836586Y-88312489D01*
X100744510Y-88509947D01*
X100740764Y-88520239D01*
X100694606Y-88692503D01*
X100694942Y-88706599D01*
X100702884Y-88710000D01*
X103643967Y-88710000D01*
X103657498Y-88706027D01*
X103658727Y-88697478D01*
X103611236Y-88520239D01*
X103607490Y-88509947D01*
X103515414Y-88312489D01*
X103509931Y-88302993D01*
X103384972Y-88124533D01*
X103377916Y-88116125D01*
X103223875Y-87962084D01*
X103215467Y-87955028D01*
X103037007Y-87830069D01*
X103027511Y-87824586D01*
X102992951Y-87808471D01*
X102939666Y-87761554D01*
X102920205Y-87693277D01*
X102940747Y-87625317D01*
X102992951Y-87580081D01*
X103027762Y-87563849D01*
X103027767Y-87563846D01*
X103032749Y-87561523D01*
X103163693Y-87469835D01*
X103215789Y-87433357D01*
X103215792Y-87433355D01*
X103220300Y-87430198D01*
X103382198Y-87268300D01*
X103513523Y-87080749D01*
X103515847Y-87075765D01*
X103515849Y-87075762D01*
X103607961Y-86878225D01*
X103607961Y-86878224D01*
X103610284Y-86873243D01*
X103655362Y-86705013D01*
X103668119Y-86657402D01*
X103668119Y-86657400D01*
X103669543Y-86652087D01*
X103689498Y-86424000D01*
X103669543Y-86195913D01*
X103648969Y-86119131D01*
X103611707Y-85980067D01*
X103611706Y-85980065D01*
X103610284Y-85974757D01*
X103607961Y-85969775D01*
X103515849Y-85772238D01*
X103515846Y-85772233D01*
X103513523Y-85767251D01*
X103440098Y-85662389D01*
X103385357Y-85584211D01*
X103385355Y-85584208D01*
X103382198Y-85579700D01*
X103220300Y-85417802D01*
X103215792Y-85414645D01*
X103215789Y-85414643D01*
X103079168Y-85318980D01*
X103032749Y-85286477D01*
X103027767Y-85284154D01*
X103027762Y-85284151D01*
X102993543Y-85268195D01*
X102940258Y-85221278D01*
X102920797Y-85153001D01*
X102941339Y-85085041D01*
X102993543Y-85039805D01*
X103027762Y-85023849D01*
X103027767Y-85023846D01*
X103032749Y-85021523D01*
X103166356Y-84927970D01*
X103215789Y-84893357D01*
X103215792Y-84893355D01*
X103220300Y-84890198D01*
X103382198Y-84728300D01*
X103461802Y-84614614D01*
X103492181Y-84571229D01*
X103547638Y-84526901D01*
X103595394Y-84517500D01*
X104905406Y-84517500D01*
X104973527Y-84537502D01*
X104994501Y-84554405D01*
X116844348Y-96404253D01*
X116851888Y-96412539D01*
X116856000Y-96419018D01*
X116861777Y-96424443D01*
X116905651Y-96465643D01*
X116908493Y-96468398D01*
X116928230Y-96488135D01*
X116931427Y-96490615D01*
X116940447Y-96498318D01*
X116972679Y-96528586D01*
X116979625Y-96532405D01*
X116979628Y-96532407D01*
X116990434Y-96538348D01*
X117006953Y-96549199D01*
X117022959Y-96561614D01*
X117030228Y-96564759D01*
X117030232Y-96564762D01*
X117063537Y-96579174D01*
X117074187Y-96584391D01*
X117112940Y-96605695D01*
X117120615Y-96607666D01*
X117120616Y-96607666D01*
X117132562Y-96610733D01*
X117151267Y-96617137D01*
X117169855Y-96625181D01*
X117177678Y-96626420D01*
X117177688Y-96626423D01*
X117213524Y-96632099D01*
X117225144Y-96634505D01*
X117260289Y-96643528D01*
X117267970Y-96645500D01*
X117288224Y-96645500D01*
X117307934Y-96647051D01*
X117327943Y-96650220D01*
X117335835Y-96649474D01*
X117371961Y-96646059D01*
X117383819Y-96645500D01*
X119548956Y-96645500D01*
X119617077Y-96665502D01*
X119663570Y-96719158D01*
X119673674Y-96789432D01*
X119649782Y-96847065D01*
X119619214Y-96887852D01*
X119610676Y-96903446D01*
X119565522Y-97023894D01*
X119561895Y-97039149D01*
X119556369Y-97090014D01*
X119556000Y-97096828D01*
X119556000Y-97719385D01*
X119560475Y-97734624D01*
X119561865Y-97735829D01*
X119569548Y-97737500D01*
X121042000Y-97737500D01*
X121110121Y-97757502D01*
X121156614Y-97811158D01*
X121168000Y-97863500D01*
X121168000Y-99331384D01*
X121172475Y-99346623D01*
X121173865Y-99347828D01*
X121181548Y-99349499D01*
X121808669Y-99349499D01*
X121815490Y-99349129D01*
X121866352Y-99343605D01*
X121881604Y-99339979D01*
X122002054Y-99294824D01*
X122017649Y-99286286D01*
X122119724Y-99209785D01*
X122132285Y-99197224D01*
X122208786Y-99095149D01*
X122217324Y-99079554D01*
X122258225Y-98970452D01*
X122300867Y-98913688D01*
X122367428Y-98888988D01*
X122436777Y-98904196D01*
X122471444Y-98932184D01*
X122496865Y-98961531D01*
X122496869Y-98961535D01*
X122500250Y-98965438D01*
X122672126Y-99108132D01*
X122865000Y-99220838D01*
X123073692Y-99300530D01*
X123078760Y-99301561D01*
X123078763Y-99301562D01*
X123173862Y-99320910D01*
X123292597Y-99345067D01*
X123297772Y-99345257D01*
X123297774Y-99345257D01*
X123510673Y-99353064D01*
X123510677Y-99353064D01*
X123515837Y-99353253D01*
X123520957Y-99352597D01*
X123520959Y-99352597D01*
X123732288Y-99325525D01*
X123732289Y-99325525D01*
X123737416Y-99324868D01*
X123742366Y-99323383D01*
X123946429Y-99262161D01*
X123946434Y-99262159D01*
X123951384Y-99260674D01*
X124151994Y-99162396D01*
X124333860Y-99032673D01*
X124355475Y-99011134D01*
X124434701Y-98932184D01*
X124492096Y-98874989D01*
X124622453Y-98693577D01*
X124623776Y-98694528D01*
X124670645Y-98651357D01*
X124740580Y-98639125D01*
X124806026Y-98666644D01*
X124833875Y-98698494D01*
X124893987Y-98796588D01*
X125040250Y-98965438D01*
X125212126Y-99108132D01*
X125405000Y-99220838D01*
X125613692Y-99300530D01*
X125618760Y-99301561D01*
X125618763Y-99301562D01*
X125713862Y-99320910D01*
X125832597Y-99345067D01*
X125837772Y-99345257D01*
X125837774Y-99345257D01*
X126050673Y-99353064D01*
X126050677Y-99353064D01*
X126055837Y-99353253D01*
X126060957Y-99352597D01*
X126060959Y-99352597D01*
X126272288Y-99325525D01*
X126272289Y-99325525D01*
X126277416Y-99324868D01*
X126282366Y-99323383D01*
X126486429Y-99262161D01*
X126486434Y-99262159D01*
X126491384Y-99260674D01*
X126691994Y-99162396D01*
X126873860Y-99032673D01*
X126895475Y-99011134D01*
X126974701Y-98932184D01*
X127032096Y-98874989D01*
X127162453Y-98693577D01*
X127163776Y-98694528D01*
X127210645Y-98651357D01*
X127280580Y-98639125D01*
X127346026Y-98666644D01*
X127373875Y-98698494D01*
X127433987Y-98796588D01*
X127580250Y-98965438D01*
X127752126Y-99108132D01*
X127945000Y-99220838D01*
X128153692Y-99300530D01*
X128158760Y-99301561D01*
X128158763Y-99301562D01*
X128253862Y-99320910D01*
X128372597Y-99345067D01*
X128377772Y-99345257D01*
X128377774Y-99345257D01*
X128590673Y-99353064D01*
X128590677Y-99353064D01*
X128595837Y-99353253D01*
X128600957Y-99352597D01*
X128600959Y-99352597D01*
X128812288Y-99325525D01*
X128812289Y-99325525D01*
X128817416Y-99324868D01*
X128822366Y-99323383D01*
X129026429Y-99262161D01*
X129026434Y-99262159D01*
X129031384Y-99260674D01*
X129231994Y-99162396D01*
X129413860Y-99032673D01*
X129435475Y-99011134D01*
X129514701Y-98932184D01*
X129572096Y-98874989D01*
X129702453Y-98693577D01*
X129703776Y-98694528D01*
X129750645Y-98651357D01*
X129820580Y-98639125D01*
X129886026Y-98666644D01*
X129913875Y-98698494D01*
X129973987Y-98796588D01*
X130120250Y-98965438D01*
X130292126Y-99108132D01*
X130485000Y-99220838D01*
X130693692Y-99300530D01*
X130698760Y-99301561D01*
X130698763Y-99301562D01*
X130793862Y-99320910D01*
X130912597Y-99345067D01*
X130917772Y-99345257D01*
X130917774Y-99345257D01*
X131130673Y-99353064D01*
X131130677Y-99353064D01*
X131135837Y-99353253D01*
X131140957Y-99352597D01*
X131140959Y-99352597D01*
X131352288Y-99325525D01*
X131352289Y-99325525D01*
X131357416Y-99324868D01*
X131362366Y-99323383D01*
X131566429Y-99262161D01*
X131566434Y-99262159D01*
X131571384Y-99260674D01*
X131771994Y-99162396D01*
X131953860Y-99032673D01*
X131975475Y-99011134D01*
X132054701Y-98932184D01*
X132112096Y-98874989D01*
X132242453Y-98693577D01*
X132243776Y-98694528D01*
X132290645Y-98651357D01*
X132360580Y-98639125D01*
X132426026Y-98666644D01*
X132453875Y-98698494D01*
X132513987Y-98796588D01*
X132660250Y-98965438D01*
X132832126Y-99108132D01*
X133025000Y-99220838D01*
X133233692Y-99300530D01*
X133238760Y-99301561D01*
X133238763Y-99301562D01*
X133333862Y-99320910D01*
X133452597Y-99345067D01*
X133457772Y-99345257D01*
X133457774Y-99345257D01*
X133670673Y-99353064D01*
X133670677Y-99353064D01*
X133675837Y-99353253D01*
X133680957Y-99352597D01*
X133680959Y-99352597D01*
X133892288Y-99325525D01*
X133892289Y-99325525D01*
X133897416Y-99324868D01*
X133902366Y-99323383D01*
X134106429Y-99262161D01*
X134106434Y-99262159D01*
X134111384Y-99260674D01*
X134311994Y-99162396D01*
X134493860Y-99032673D01*
X134515475Y-99011134D01*
X134594701Y-98932184D01*
X134652096Y-98874989D01*
X134782453Y-98693577D01*
X134783640Y-98694430D01*
X134830960Y-98650862D01*
X134900897Y-98638645D01*
X134966338Y-98666178D01*
X134994166Y-98698011D01*
X135051694Y-98791888D01*
X135057777Y-98800199D01*
X135197213Y-98961167D01*
X135204580Y-98968383D01*
X135368434Y-99104416D01*
X135376881Y-99110331D01*
X135560756Y-99217779D01*
X135570042Y-99222229D01*
X135769001Y-99298203D01*
X135778899Y-99301079D01*
X135882250Y-99322106D01*
X135896299Y-99320910D01*
X135900000Y-99310565D01*
X135900000Y-96674602D01*
X135896082Y-96661258D01*
X135881806Y-96659271D01*
X135843324Y-96665160D01*
X135833288Y-96667551D01*
X135630868Y-96733712D01*
X135621359Y-96737709D01*
X135432463Y-96836042D01*
X135423738Y-96841536D01*
X135253433Y-96969405D01*
X135245726Y-96976248D01*
X135098590Y-97130217D01*
X135092109Y-97138222D01*
X134987498Y-97291574D01*
X134932587Y-97336576D01*
X134862062Y-97344747D01*
X134798315Y-97313493D01*
X134777618Y-97289009D01*
X134696822Y-97164117D01*
X134696820Y-97164114D01*
X134694014Y-97159777D01*
X134543670Y-96994551D01*
X134539619Y-96991352D01*
X134539615Y-96991348D01*
X134372414Y-96859300D01*
X134372410Y-96859298D01*
X134368359Y-96856098D01*
X134363831Y-96853598D01*
X134258252Y-96795316D01*
X134172789Y-96748138D01*
X134167920Y-96746414D01*
X134167916Y-96746412D01*
X133967087Y-96675295D01*
X133967083Y-96675294D01*
X133962212Y-96673569D01*
X133957119Y-96672662D01*
X133957116Y-96672661D01*
X133747373Y-96635300D01*
X133747367Y-96635299D01*
X133742284Y-96634394D01*
X133668452Y-96633492D01*
X133524081Y-96631728D01*
X133524079Y-96631728D01*
X133518911Y-96631665D01*
X133298091Y-96665455D01*
X133285532Y-96669560D01*
X133214568Y-96671710D01*
X133157294Y-96638889D01*
X131122152Y-94603747D01*
X131114612Y-94595461D01*
X131110500Y-94588982D01*
X131060848Y-94542356D01*
X131058007Y-94539602D01*
X131038270Y-94519865D01*
X131035073Y-94517385D01*
X131026051Y-94509680D01*
X131016331Y-94500552D01*
X130993821Y-94479414D01*
X130986875Y-94475595D01*
X130986872Y-94475593D01*
X130976066Y-94469652D01*
X130959547Y-94458801D01*
X130950117Y-94451487D01*
X130943541Y-94446386D01*
X130936272Y-94443241D01*
X130936268Y-94443238D01*
X130902963Y-94428826D01*
X130892313Y-94423609D01*
X130853560Y-94402305D01*
X130833937Y-94397267D01*
X130815234Y-94390863D01*
X130803920Y-94385967D01*
X130803919Y-94385967D01*
X130796645Y-94382819D01*
X130788822Y-94381580D01*
X130788812Y-94381577D01*
X130752976Y-94375901D01*
X130741356Y-94373495D01*
X130706211Y-94364472D01*
X130706210Y-94364472D01*
X130698530Y-94362500D01*
X130678276Y-94362500D01*
X130658565Y-94360949D01*
X130650181Y-94359621D01*
X130638557Y-94357780D01*
X130609286Y-94360547D01*
X130594539Y-94361941D01*
X130582681Y-94362500D01*
X119186594Y-94362500D01*
X119118473Y-94342498D01*
X119097499Y-94325595D01*
X106382790Y-81610885D01*
X146900900Y-81610885D01*
X146905375Y-81626124D01*
X146906765Y-81627329D01*
X146914448Y-81629000D01*
X148000385Y-81629000D01*
X148015624Y-81624525D01*
X148016829Y-81623135D01*
X148018500Y-81615452D01*
X148018500Y-80529516D01*
X148014025Y-80514277D01*
X148012635Y-80513072D01*
X148004952Y-80511401D01*
X147364231Y-80511401D01*
X147357410Y-80511771D01*
X147306548Y-80517295D01*
X147291296Y-80520921D01*
X147170846Y-80566076D01*
X147155251Y-80574614D01*
X147053176Y-80651115D01*
X147040615Y-80663676D01*
X146964114Y-80765751D01*
X146955576Y-80781346D01*
X146910422Y-80901794D01*
X146906795Y-80917049D01*
X146901269Y-80967914D01*
X146900900Y-80974728D01*
X146900900Y-81610885D01*
X106382790Y-81610885D01*
X105723652Y-80951747D01*
X105716112Y-80943461D01*
X105712000Y-80936982D01*
X105662348Y-80890356D01*
X105659507Y-80887602D01*
X105639770Y-80867865D01*
X105636573Y-80865385D01*
X105627551Y-80857680D01*
X105601100Y-80832841D01*
X105595321Y-80827414D01*
X105588375Y-80823595D01*
X105588372Y-80823593D01*
X105577566Y-80817652D01*
X105561047Y-80806801D01*
X105560583Y-80806441D01*
X105545041Y-80794386D01*
X105537772Y-80791241D01*
X105537768Y-80791238D01*
X105504463Y-80776826D01*
X105493813Y-80771609D01*
X105455060Y-80750305D01*
X105435437Y-80745267D01*
X105416734Y-80738863D01*
X105405420Y-80733967D01*
X105405419Y-80733967D01*
X105398145Y-80730819D01*
X105390322Y-80729580D01*
X105390312Y-80729577D01*
X105354476Y-80723901D01*
X105342856Y-80721495D01*
X105307711Y-80712472D01*
X105307710Y-80712472D01*
X105300030Y-80710500D01*
X105279776Y-80710500D01*
X105260065Y-80708949D01*
X105247886Y-80707020D01*
X105240057Y-80705780D01*
X105232165Y-80706526D01*
X105196039Y-80709941D01*
X105184181Y-80710500D01*
X103595394Y-80710500D01*
X103527273Y-80690498D01*
X103492181Y-80656771D01*
X103385357Y-80504211D01*
X103385355Y-80504208D01*
X103382198Y-80499700D01*
X103220300Y-80337802D01*
X103215792Y-80334645D01*
X103215789Y-80334643D01*
X103137611Y-80279902D01*
X103032749Y-80206477D01*
X103027767Y-80204154D01*
X103027762Y-80204151D01*
X102830225Y-80112039D01*
X102830224Y-80112039D01*
X102825243Y-80109716D01*
X102819935Y-80108294D01*
X102819933Y-80108293D01*
X102609402Y-80051881D01*
X102609400Y-80051881D01*
X102604087Y-80050457D01*
X102504520Y-80041746D01*
X102435851Y-80035738D01*
X102435844Y-80035738D01*
X102433127Y-80035500D01*
X101918873Y-80035500D01*
X101916156Y-80035738D01*
X101916149Y-80035738D01*
X101847480Y-80041746D01*
X101747913Y-80050457D01*
X101742600Y-80051881D01*
X101742598Y-80051881D01*
X101532067Y-80108293D01*
X101532065Y-80108294D01*
X101526757Y-80109716D01*
X101521776Y-80112039D01*
X101521775Y-80112039D01*
X101324238Y-80204151D01*
X101324233Y-80204154D01*
X101319251Y-80206477D01*
X101214389Y-80279902D01*
X101136211Y-80334643D01*
X101136208Y-80334645D01*
X101131700Y-80337802D01*
X100969802Y-80499700D01*
X100966645Y-80504208D01*
X100966643Y-80504211D01*
X100911902Y-80582389D01*
X100838477Y-80687251D01*
X100836154Y-80692233D01*
X100836151Y-80692238D01*
X100745052Y-80887602D01*
X100741716Y-80894757D01*
X100740294Y-80900065D01*
X100740293Y-80900067D01*
X100735743Y-80917049D01*
X100682457Y-81115913D01*
X100662502Y-81344000D01*
X100682457Y-81572087D01*
X100683881Y-81577400D01*
X100683881Y-81577402D01*
X100696639Y-81625013D01*
X100741716Y-81793243D01*
X100744039Y-81798224D01*
X100744039Y-81798225D01*
X100836151Y-81995762D01*
X100836154Y-81995767D01*
X100838477Y-82000749D01*
X100890198Y-82074614D01*
X100943368Y-82150548D01*
X100969802Y-82188300D01*
X101131700Y-82350198D01*
X101136208Y-82353355D01*
X101136211Y-82353357D01*
X101188307Y-82389835D01*
X101319251Y-82481523D01*
X101324233Y-82483846D01*
X101324238Y-82483849D01*
X101358457Y-82499805D01*
X101411742Y-82546722D01*
X101431203Y-82614999D01*
X101410661Y-82682959D01*
X101358457Y-82728195D01*
X101324238Y-82744151D01*
X101324233Y-82744154D01*
X101319251Y-82746477D01*
X101272832Y-82778980D01*
X101136211Y-82874643D01*
X101136208Y-82874645D01*
X101131700Y-82877802D01*
X100969802Y-83039700D01*
X100966645Y-83044208D01*
X100966643Y-83044211D01*
X100951654Y-83065618D01*
X100838477Y-83227251D01*
X100836154Y-83232233D01*
X100836151Y-83232238D01*
X100745052Y-83427602D01*
X100741716Y-83434757D01*
X100740294Y-83440065D01*
X100740293Y-83440067D01*
X100707935Y-83560827D01*
X100682457Y-83655913D01*
X100662502Y-83884000D01*
X100682457Y-84112087D01*
X100683881Y-84117400D01*
X100683881Y-84117402D01*
X100696639Y-84165013D01*
X100741716Y-84333243D01*
X100744039Y-84338224D01*
X100744039Y-84338225D01*
X100836151Y-84535762D01*
X100836154Y-84535767D01*
X100838477Y-84540749D01*
X100969802Y-84728300D01*
X101131700Y-84890198D01*
X101136208Y-84893355D01*
X101136211Y-84893357D01*
X101185644Y-84927970D01*
X101319251Y-85021523D01*
X101324233Y-85023846D01*
X101324238Y-85023849D01*
X101358457Y-85039805D01*
X101411742Y-85086722D01*
X101431203Y-85154999D01*
X101410661Y-85222959D01*
X101358457Y-85268195D01*
X101324238Y-85284151D01*
X101324233Y-85284154D01*
X101319251Y-85286477D01*
X101167728Y-85392575D01*
X101100454Y-85415263D01*
X101031594Y-85397978D01*
X101006361Y-85378457D01*
X100630075Y-85002170D01*
X100238404Y-84610499D01*
X100204379Y-84548187D01*
X100201500Y-84521404D01*
X100201500Y-78038594D01*
X100221502Y-77970473D01*
X100238405Y-77949499D01*
X100995266Y-77192638D01*
X147756012Y-77192638D01*
X147768575Y-77384304D01*
X147770376Y-77395674D01*
X147817657Y-77581843D01*
X147821498Y-77592690D01*
X147901916Y-77767130D01*
X147907664Y-77777086D01*
X147913788Y-77785751D01*
X147924377Y-77794140D01*
X147937676Y-77787113D01*
X148495979Y-77228811D01*
X148503592Y-77214868D01*
X148503461Y-77213034D01*
X148499210Y-77206420D01*
X147936538Y-76643749D01*
X147924163Y-76636992D01*
X147918197Y-76641458D01*
X147842645Y-76785058D01*
X147838242Y-76795691D01*
X147781281Y-76979132D01*
X147778891Y-76990376D01*
X147756313Y-77181137D01*
X147756012Y-77192638D01*
X100995266Y-77192638D01*
X104926000Y-73261905D01*
X104988312Y-73227879D01*
X105015095Y-73225000D01*
X119429500Y-73225000D01*
X119497621Y-73245002D01*
X119544114Y-73298658D01*
X119555500Y-73351000D01*
X119555500Y-73489634D01*
X119562255Y-73551816D01*
X119613385Y-73688205D01*
X119700739Y-73804761D01*
X119817295Y-73892115D01*
X119953684Y-73943245D01*
X120015866Y-73950000D01*
X121324406Y-73950000D01*
X121392527Y-73970002D01*
X121413501Y-73986905D01*
X123002843Y-75576247D01*
X123010387Y-75584537D01*
X123014500Y-75591018D01*
X123020277Y-75596443D01*
X123064167Y-75637658D01*
X123067009Y-75640413D01*
X123086731Y-75660135D01*
X123089855Y-75662558D01*
X123089859Y-75662562D01*
X123089924Y-75662612D01*
X123098945Y-75670317D01*
X123131179Y-75700586D01*
X123138127Y-75704405D01*
X123138129Y-75704407D01*
X123148932Y-75710346D01*
X123165459Y-75721202D01*
X123175198Y-75728757D01*
X123175200Y-75728758D01*
X123181460Y-75733614D01*
X123222040Y-75751174D01*
X123232688Y-75756391D01*
X123271440Y-75777695D01*
X123279116Y-75779666D01*
X123279119Y-75779667D01*
X123291062Y-75782733D01*
X123309767Y-75789137D01*
X123328355Y-75797181D01*
X123336178Y-75798420D01*
X123336188Y-75798423D01*
X123372024Y-75804099D01*
X123383644Y-75806505D01*
X123418789Y-75815528D01*
X123426470Y-75817500D01*
X123446724Y-75817500D01*
X123466434Y-75819051D01*
X123486443Y-75822220D01*
X123494335Y-75821474D01*
X123530461Y-75818059D01*
X123542319Y-75817500D01*
X148529406Y-75817500D01*
X148597527Y-75837502D01*
X148618501Y-75854405D01*
X148685504Y-75921408D01*
X148719530Y-75983720D01*
X148714465Y-76054535D01*
X148671918Y-76111371D01*
X148617747Y-76134683D01*
X148585697Y-76140190D01*
X148574577Y-76143170D01*
X148394365Y-76209653D01*
X148383991Y-76214601D01*
X148300385Y-76264342D01*
X148290788Y-76274675D01*
X148294275Y-76283065D01*
X149138115Y-77126905D01*
X149172141Y-77189217D01*
X149167076Y-77260032D01*
X149138115Y-77305095D01*
X148868000Y-77575210D01*
X148297263Y-78145948D01*
X148291067Y-78157294D01*
X148300949Y-78169784D01*
X148332239Y-78190691D01*
X148342349Y-78196181D01*
X148518835Y-78272005D01*
X148529778Y-78275560D01*
X148717120Y-78317952D01*
X148728530Y-78319454D01*
X148920469Y-78326995D01*
X148931951Y-78326393D01*
X149122045Y-78298832D01*
X149133240Y-78296144D01*
X149315131Y-78234400D01*
X149325628Y-78229726D01*
X149493233Y-78135863D01*
X149502698Y-78129358D01*
X149535874Y-78101766D01*
X149601039Y-78073586D01*
X149671094Y-78085110D01*
X149686445Y-78093876D01*
X149836803Y-78194342D01*
X149842106Y-78196620D01*
X149842109Y-78196622D01*
X150018680Y-78272483D01*
X150023987Y-78274763D01*
X150029623Y-78276038D01*
X150029625Y-78276039D01*
X150080807Y-78287620D01*
X150142834Y-78322162D01*
X150176339Y-78384756D01*
X150179000Y-78410513D01*
X150179000Y-80589359D01*
X150158998Y-80657480D01*
X150111182Y-80701121D01*
X150078835Y-80717960D01*
X150074693Y-80721070D01*
X149977045Y-80794386D01*
X149898405Y-80853430D01*
X149834528Y-80920274D01*
X149773005Y-80955703D01*
X149702093Y-80952246D01*
X149644306Y-80911000D01*
X149625453Y-80877452D01*
X149589424Y-80781346D01*
X149580886Y-80765751D01*
X149504385Y-80663676D01*
X149491824Y-80651115D01*
X149389749Y-80574614D01*
X149374154Y-80566076D01*
X149253706Y-80520922D01*
X149238451Y-80517295D01*
X149187586Y-80511769D01*
X149180772Y-80511400D01*
X148544615Y-80511400D01*
X148529376Y-80515875D01*
X148528171Y-80517265D01*
X148526500Y-80524948D01*
X148526500Y-82011000D01*
X148506498Y-82079121D01*
X148452842Y-82125614D01*
X148400500Y-82137000D01*
X146919016Y-82137000D01*
X146903777Y-82141475D01*
X146902572Y-82142865D01*
X146900901Y-82150548D01*
X146900901Y-82791269D01*
X146901271Y-82798090D01*
X146906795Y-82848952D01*
X146910421Y-82864204D01*
X146955576Y-82984654D01*
X146964114Y-83000249D01*
X147040615Y-83102324D01*
X147053176Y-83114885D01*
X147155251Y-83191386D01*
X147170848Y-83199925D01*
X147266321Y-83235716D01*
X147323086Y-83278357D01*
X147347786Y-83344919D01*
X147332579Y-83414268D01*
X147313186Y-83440749D01*
X147202524Y-83556550D01*
X147075378Y-83742940D01*
X147073204Y-83747624D01*
X147073202Y-83747627D01*
X147001902Y-83901231D01*
X146980381Y-83947593D01*
X146920085Y-84165013D01*
X146896109Y-84389362D01*
X146896406Y-84394514D01*
X146896406Y-84394518D01*
X146904039Y-84526901D01*
X146909097Y-84614614D01*
X146910234Y-84619660D01*
X146910235Y-84619666D01*
X146931484Y-84713952D01*
X146958700Y-84834720D01*
X146960642Y-84839502D01*
X146960643Y-84839506D01*
X147041642Y-85038982D01*
X147043586Y-85043769D01*
X147069908Y-85086722D01*
X147156092Y-85227362D01*
X147161475Y-85236147D01*
X147309202Y-85406687D01*
X147482799Y-85550810D01*
X147487251Y-85553412D01*
X147487256Y-85553415D01*
X147536569Y-85582231D01*
X147585292Y-85633870D01*
X147598363Y-85703653D01*
X147571631Y-85769425D01*
X147541095Y-85796783D01*
X147538835Y-85797960D01*
X147358405Y-85933430D01*
X147202524Y-86096550D01*
X147075378Y-86282940D01*
X147073204Y-86287624D01*
X147073202Y-86287627D01*
X147007359Y-86429475D01*
X146980381Y-86487593D01*
X146920085Y-86705013D01*
X146896109Y-86929362D01*
X146896406Y-86934514D01*
X146896406Y-86934518D01*
X146902118Y-87033578D01*
X146909097Y-87154614D01*
X146910234Y-87159660D01*
X146910235Y-87159666D01*
X146931484Y-87253952D01*
X146958700Y-87374720D01*
X146960642Y-87379502D01*
X146960643Y-87379506D01*
X146997322Y-87469835D01*
X147043586Y-87583769D01*
X147046285Y-87588173D01*
X147153563Y-87763235D01*
X147161475Y-87776147D01*
X147309202Y-87946687D01*
X147482799Y-88090810D01*
X147487251Y-88093412D01*
X147487256Y-88093415D01*
X147536569Y-88122231D01*
X147585292Y-88173870D01*
X147598363Y-88243653D01*
X147571631Y-88309425D01*
X147541095Y-88336783D01*
X147538835Y-88337960D01*
X147358405Y-88473430D01*
X147202524Y-88636550D01*
X147199612Y-88640819D01*
X147081133Y-88814504D01*
X147026221Y-88859507D01*
X146977044Y-88869500D01*
X140699768Y-88869500D01*
X140688585Y-88868973D01*
X140681092Y-88867298D01*
X140673166Y-88867547D01*
X140673165Y-88867547D01*
X140613002Y-88869438D01*
X140609044Y-88869500D01*
X140581144Y-88869500D01*
X140577154Y-88870004D01*
X140565320Y-88870936D01*
X140521111Y-88872326D01*
X140513495Y-88874539D01*
X140513493Y-88874539D01*
X140501652Y-88877979D01*
X140482293Y-88881988D01*
X140480983Y-88882154D01*
X140462203Y-88884526D01*
X140454837Y-88887442D01*
X140454831Y-88887444D01*
X140421098Y-88900800D01*
X140409868Y-88904645D01*
X140375017Y-88914770D01*
X140367407Y-88916981D01*
X140360584Y-88921016D01*
X140349966Y-88927295D01*
X140332213Y-88935992D01*
X140324568Y-88939019D01*
X140313383Y-88943448D01*
X140306968Y-88948109D01*
X140277612Y-88969437D01*
X140267695Y-88975951D01*
X140229638Y-88998458D01*
X140215317Y-89012779D01*
X140200284Y-89025619D01*
X140183893Y-89037528D01*
X140178842Y-89043634D01*
X140155702Y-89071605D01*
X140147712Y-89080384D01*
X138301747Y-90926348D01*
X138293461Y-90933888D01*
X138286982Y-90938000D01*
X138281557Y-90943777D01*
X138240357Y-90987651D01*
X138237602Y-90990493D01*
X138217865Y-91010230D01*
X138215385Y-91013427D01*
X138207682Y-91022447D01*
X138177414Y-91054679D01*
X138173595Y-91061625D01*
X138173593Y-91061628D01*
X138167652Y-91072434D01*
X138156801Y-91088953D01*
X138144386Y-91104959D01*
X138141241Y-91112228D01*
X138141238Y-91112232D01*
X138126826Y-91145537D01*
X138121609Y-91156187D01*
X138100305Y-91194940D01*
X138098334Y-91202615D01*
X138098334Y-91202616D01*
X138095267Y-91214562D01*
X138088863Y-91233266D01*
X138080819Y-91251855D01*
X138079580Y-91259678D01*
X138079577Y-91259688D01*
X138073901Y-91295524D01*
X138071495Y-91307144D01*
X138060500Y-91349970D01*
X138060500Y-91370224D01*
X138058949Y-91389934D01*
X138055780Y-91409943D01*
X138056526Y-91417835D01*
X138059941Y-91453961D01*
X138060500Y-91465819D01*
X138060500Y-96713192D01*
X138040498Y-96781313D01*
X137992683Y-96824953D01*
X137967607Y-96838007D01*
X137963474Y-96841110D01*
X137963471Y-96841112D01*
X137880450Y-96903446D01*
X137788965Y-96972135D01*
X137634629Y-97133638D01*
X137527204Y-97291118D01*
X137526898Y-97291566D01*
X137471987Y-97336569D01*
X137401462Y-97344740D01*
X137337715Y-97313486D01*
X137317018Y-97289002D01*
X137236426Y-97164426D01*
X137230136Y-97156257D01*
X137086806Y-96998740D01*
X137079273Y-96991715D01*
X136912139Y-96859722D01*
X136903552Y-96854017D01*
X136717117Y-96751099D01*
X136707705Y-96746869D01*
X136506959Y-96675780D01*
X136496988Y-96673146D01*
X136425837Y-96660472D01*
X136412540Y-96661932D01*
X136408000Y-96676489D01*
X136408000Y-99310017D01*
X136412064Y-99323859D01*
X136425478Y-99325893D01*
X136432184Y-99325034D01*
X136442262Y-99322892D01*
X136646255Y-99261691D01*
X136655842Y-99257933D01*
X136847095Y-99164239D01*
X136855945Y-99158964D01*
X137029328Y-99035292D01*
X137037200Y-99028639D01*
X137188052Y-98878312D01*
X137194730Y-98870465D01*
X137322022Y-98693319D01*
X137323279Y-98694222D01*
X137370373Y-98650862D01*
X137440311Y-98638645D01*
X137505751Y-98666178D01*
X137533579Y-98698011D01*
X137593987Y-98796588D01*
X137740250Y-98965438D01*
X137912126Y-99108132D01*
X138105000Y-99220838D01*
X138313692Y-99300530D01*
X138318760Y-99301561D01*
X138318763Y-99301562D01*
X138413862Y-99320910D01*
X138532597Y-99345067D01*
X138537772Y-99345257D01*
X138537774Y-99345257D01*
X138750673Y-99353064D01*
X138750677Y-99353064D01*
X138755837Y-99353253D01*
X138760957Y-99352597D01*
X138760959Y-99352597D01*
X138972288Y-99325525D01*
X138972289Y-99325525D01*
X138977416Y-99324868D01*
X138982366Y-99323383D01*
X139186429Y-99262161D01*
X139186434Y-99262159D01*
X139191384Y-99260674D01*
X139391994Y-99162396D01*
X139573860Y-99032673D01*
X139595475Y-99011134D01*
X139674701Y-98932184D01*
X139732096Y-98874989D01*
X139862453Y-98693577D01*
X139863776Y-98694528D01*
X139910645Y-98651357D01*
X139980580Y-98639125D01*
X140046026Y-98666644D01*
X140073875Y-98698494D01*
X140133987Y-98796588D01*
X140280250Y-98965438D01*
X140452126Y-99108132D01*
X140645000Y-99220838D01*
X140853692Y-99300530D01*
X140858760Y-99301561D01*
X140858763Y-99301562D01*
X140953862Y-99320910D01*
X141072597Y-99345067D01*
X141077772Y-99345257D01*
X141077774Y-99345257D01*
X141290673Y-99353064D01*
X141290677Y-99353064D01*
X141295837Y-99353253D01*
X141300957Y-99352597D01*
X141300959Y-99352597D01*
X141512288Y-99325525D01*
X141512289Y-99325525D01*
X141517416Y-99324868D01*
X141522366Y-99323383D01*
X141726429Y-99262161D01*
X141726434Y-99262159D01*
X141731384Y-99260674D01*
X141931994Y-99162396D01*
X142113860Y-99032673D01*
X142135475Y-99011134D01*
X142214701Y-98932184D01*
X142272096Y-98874989D01*
X142402453Y-98693577D01*
X142403776Y-98694528D01*
X142450645Y-98651357D01*
X142520580Y-98639125D01*
X142586026Y-98666644D01*
X142613875Y-98698494D01*
X142673987Y-98796588D01*
X142820250Y-98965438D01*
X142992126Y-99108132D01*
X143185000Y-99220838D01*
X143393692Y-99300530D01*
X143398760Y-99301561D01*
X143398763Y-99301562D01*
X143493862Y-99320910D01*
X143612597Y-99345067D01*
X143617772Y-99345257D01*
X143617774Y-99345257D01*
X143830673Y-99353064D01*
X143830677Y-99353064D01*
X143835837Y-99353253D01*
X143840957Y-99352597D01*
X143840959Y-99352597D01*
X144052288Y-99325525D01*
X144052289Y-99325525D01*
X144057416Y-99324868D01*
X144062366Y-99323383D01*
X144266429Y-99262161D01*
X144266434Y-99262159D01*
X144271384Y-99260674D01*
X144471994Y-99162396D01*
X144653860Y-99032673D01*
X144675475Y-99011134D01*
X144754701Y-98932184D01*
X144812096Y-98874989D01*
X144942453Y-98693577D01*
X144943776Y-98694528D01*
X144990645Y-98651357D01*
X145060580Y-98639125D01*
X145126026Y-98666644D01*
X145153875Y-98698494D01*
X145213987Y-98796588D01*
X145360250Y-98965438D01*
X145532126Y-99108132D01*
X145725000Y-99220838D01*
X145933692Y-99300530D01*
X145938760Y-99301561D01*
X145938763Y-99301562D01*
X146033862Y-99320910D01*
X146152597Y-99345067D01*
X146157772Y-99345257D01*
X146157774Y-99345257D01*
X146370673Y-99353064D01*
X146370677Y-99353064D01*
X146375837Y-99353253D01*
X146380957Y-99352597D01*
X146380959Y-99352597D01*
X146592288Y-99325525D01*
X146592289Y-99325525D01*
X146597416Y-99324868D01*
X146602366Y-99323383D01*
X146806429Y-99262161D01*
X146806434Y-99262159D01*
X146811384Y-99260674D01*
X147011994Y-99162396D01*
X147193860Y-99032673D01*
X147215475Y-99011134D01*
X147294701Y-98932184D01*
X147352096Y-98874989D01*
X147482453Y-98693577D01*
X147483776Y-98694528D01*
X147530645Y-98651357D01*
X147600580Y-98639125D01*
X147666026Y-98666644D01*
X147693875Y-98698494D01*
X147753987Y-98796588D01*
X147900250Y-98965438D01*
X148072126Y-99108132D01*
X148265000Y-99220838D01*
X148473692Y-99300530D01*
X148478760Y-99301561D01*
X148478763Y-99301562D01*
X148573862Y-99320910D01*
X148692597Y-99345067D01*
X148697772Y-99345257D01*
X148697774Y-99345257D01*
X148910673Y-99353064D01*
X148910677Y-99353064D01*
X148915837Y-99353253D01*
X148920957Y-99352597D01*
X148920959Y-99352597D01*
X149132288Y-99325525D01*
X149132289Y-99325525D01*
X149137416Y-99324868D01*
X149142366Y-99323383D01*
X149346429Y-99262161D01*
X149346434Y-99262159D01*
X149351384Y-99260674D01*
X149551994Y-99162396D01*
X149733860Y-99032673D01*
X149755475Y-99011134D01*
X149834701Y-98932184D01*
X149892096Y-98874989D01*
X150022453Y-98693577D01*
X150023776Y-98694528D01*
X150070645Y-98651357D01*
X150140580Y-98639125D01*
X150206026Y-98666644D01*
X150233875Y-98698494D01*
X150293987Y-98796588D01*
X150440250Y-98965438D01*
X150612126Y-99108132D01*
X150805000Y-99220838D01*
X151013692Y-99300530D01*
X151018760Y-99301561D01*
X151018763Y-99301562D01*
X151113862Y-99320910D01*
X151232597Y-99345067D01*
X151237772Y-99345257D01*
X151237774Y-99345257D01*
X151450673Y-99353064D01*
X151450677Y-99353064D01*
X151455837Y-99353253D01*
X151460957Y-99352597D01*
X151460959Y-99352597D01*
X151672288Y-99325525D01*
X151672289Y-99325525D01*
X151677416Y-99324868D01*
X151682366Y-99323383D01*
X151886429Y-99262161D01*
X151886434Y-99262159D01*
X151891384Y-99260674D01*
X152091994Y-99162396D01*
X152273860Y-99032673D01*
X152295475Y-99011134D01*
X152374701Y-98932184D01*
X152432096Y-98874989D01*
X152562453Y-98693577D01*
X152563776Y-98694528D01*
X152610645Y-98651357D01*
X152680580Y-98639125D01*
X152746026Y-98666644D01*
X152773875Y-98698494D01*
X152833987Y-98796588D01*
X152980250Y-98965438D01*
X153152126Y-99108132D01*
X153345000Y-99220838D01*
X153553692Y-99300530D01*
X153558760Y-99301561D01*
X153558763Y-99301562D01*
X153653862Y-99320910D01*
X153772597Y-99345067D01*
X153777772Y-99345257D01*
X153777774Y-99345257D01*
X153990673Y-99353064D01*
X153990677Y-99353064D01*
X153995837Y-99353253D01*
X154000957Y-99352597D01*
X154000959Y-99352597D01*
X154212288Y-99325525D01*
X154212289Y-99325525D01*
X154217416Y-99324868D01*
X154222366Y-99323383D01*
X154426429Y-99262161D01*
X154426434Y-99262159D01*
X154431384Y-99260674D01*
X154631994Y-99162396D01*
X154813860Y-99032673D01*
X154835475Y-99011134D01*
X154914701Y-98932184D01*
X154972096Y-98874989D01*
X155102453Y-98693577D01*
X155103776Y-98694528D01*
X155150645Y-98651357D01*
X155220580Y-98639125D01*
X155286026Y-98666644D01*
X155313875Y-98698494D01*
X155373987Y-98796588D01*
X155520250Y-98965438D01*
X155692126Y-99108132D01*
X155885000Y-99220838D01*
X156093692Y-99300530D01*
X156098760Y-99301561D01*
X156098763Y-99301562D01*
X156193862Y-99320910D01*
X156312597Y-99345067D01*
X156317772Y-99345257D01*
X156317774Y-99345257D01*
X156530673Y-99353064D01*
X156530677Y-99353064D01*
X156535837Y-99353253D01*
X156540957Y-99352597D01*
X156540959Y-99352597D01*
X156752288Y-99325525D01*
X156752289Y-99325525D01*
X156757416Y-99324868D01*
X156762366Y-99323383D01*
X156966429Y-99262161D01*
X156966434Y-99262159D01*
X156971384Y-99260674D01*
X157171994Y-99162396D01*
X157353860Y-99032673D01*
X157375475Y-99011134D01*
X157454701Y-98932184D01*
X157512096Y-98874989D01*
X157642453Y-98693577D01*
X157643776Y-98694528D01*
X157690645Y-98651357D01*
X157760580Y-98639125D01*
X157826026Y-98666644D01*
X157853875Y-98698494D01*
X157913987Y-98796588D01*
X158060250Y-98965438D01*
X158232126Y-99108132D01*
X158425000Y-99220838D01*
X158633692Y-99300530D01*
X158638760Y-99301561D01*
X158638763Y-99301562D01*
X158733862Y-99320910D01*
X158852597Y-99345067D01*
X158857772Y-99345257D01*
X158857774Y-99345257D01*
X159070673Y-99353064D01*
X159070677Y-99353064D01*
X159075837Y-99353253D01*
X159080957Y-99352597D01*
X159080959Y-99352597D01*
X159292288Y-99325525D01*
X159292289Y-99325525D01*
X159297416Y-99324868D01*
X159302366Y-99323383D01*
X159506429Y-99262161D01*
X159506434Y-99262159D01*
X159511384Y-99260674D01*
X159711994Y-99162396D01*
X159893860Y-99032673D01*
X159915475Y-99011134D01*
X159994701Y-98932184D01*
X160052096Y-98874989D01*
X160182453Y-98693577D01*
X160183776Y-98694528D01*
X160230645Y-98651357D01*
X160300580Y-98639125D01*
X160366026Y-98666644D01*
X160393875Y-98698494D01*
X160453987Y-98796588D01*
X160600250Y-98965438D01*
X160772126Y-99108132D01*
X160965000Y-99220838D01*
X161173692Y-99300530D01*
X161178760Y-99301561D01*
X161178763Y-99301562D01*
X161273862Y-99320910D01*
X161392597Y-99345067D01*
X161397772Y-99345257D01*
X161397774Y-99345257D01*
X161610673Y-99353064D01*
X161610677Y-99353064D01*
X161615837Y-99353253D01*
X161620957Y-99352597D01*
X161620959Y-99352597D01*
X161832288Y-99325525D01*
X161832289Y-99325525D01*
X161837416Y-99324868D01*
X161842366Y-99323383D01*
X162046429Y-99262161D01*
X162046434Y-99262159D01*
X162051384Y-99260674D01*
X162251994Y-99162396D01*
X162433860Y-99032673D01*
X162455475Y-99011134D01*
X162534701Y-98932184D01*
X162592096Y-98874989D01*
X162722453Y-98693577D01*
X162723776Y-98694528D01*
X162770645Y-98651357D01*
X162840580Y-98639125D01*
X162906026Y-98666644D01*
X162933875Y-98698494D01*
X162993987Y-98796588D01*
X163140250Y-98965438D01*
X163312126Y-99108132D01*
X163505000Y-99220838D01*
X163713692Y-99300530D01*
X163718760Y-99301561D01*
X163718763Y-99301562D01*
X163813862Y-99320910D01*
X163932597Y-99345067D01*
X163937772Y-99345257D01*
X163937774Y-99345257D01*
X164150673Y-99353064D01*
X164150677Y-99353064D01*
X164155837Y-99353253D01*
X164160957Y-99352597D01*
X164160959Y-99352597D01*
X164372288Y-99325525D01*
X164372289Y-99325525D01*
X164377416Y-99324868D01*
X164382366Y-99323383D01*
X164586429Y-99262161D01*
X164586434Y-99262159D01*
X164591384Y-99260674D01*
X164791994Y-99162396D01*
X164973860Y-99032673D01*
X164995475Y-99011134D01*
X165074701Y-98932184D01*
X165132096Y-98874989D01*
X165262453Y-98693577D01*
X165263776Y-98694528D01*
X165310645Y-98651357D01*
X165380580Y-98639125D01*
X165446026Y-98666644D01*
X165473875Y-98698494D01*
X165533987Y-98796588D01*
X165680250Y-98965438D01*
X165852126Y-99108132D01*
X166045000Y-99220838D01*
X166253692Y-99300530D01*
X166258760Y-99301561D01*
X166258763Y-99301562D01*
X166353862Y-99320910D01*
X166472597Y-99345067D01*
X166477772Y-99345257D01*
X166477774Y-99345257D01*
X166690673Y-99353064D01*
X166690677Y-99353064D01*
X166695837Y-99353253D01*
X166700957Y-99352597D01*
X166700959Y-99352597D01*
X166912288Y-99325525D01*
X166912289Y-99325525D01*
X166917416Y-99324868D01*
X166922366Y-99323383D01*
X167126429Y-99262161D01*
X167126434Y-99262159D01*
X167131384Y-99260674D01*
X167331994Y-99162396D01*
X167513860Y-99032673D01*
X167535475Y-99011134D01*
X167614701Y-98932184D01*
X167672096Y-98874989D01*
X167802453Y-98693577D01*
X167815995Y-98666178D01*
X167899136Y-98497953D01*
X167899137Y-98497951D01*
X167901430Y-98493311D01*
X167966370Y-98279569D01*
X167995529Y-98058090D01*
X167997156Y-97991500D01*
X167978852Y-97768861D01*
X167924431Y-97552202D01*
X167835354Y-97347340D01*
X167714014Y-97159777D01*
X167563670Y-96994551D01*
X167559619Y-96991352D01*
X167559615Y-96991348D01*
X167392414Y-96859300D01*
X167392410Y-96859298D01*
X167388359Y-96856098D01*
X167383831Y-96853598D01*
X167278252Y-96795316D01*
X167192789Y-96748138D01*
X167187920Y-96746414D01*
X167187916Y-96746412D01*
X166987087Y-96675295D01*
X166987083Y-96675294D01*
X166982212Y-96673569D01*
X166977119Y-96672662D01*
X166977116Y-96672661D01*
X166767373Y-96635300D01*
X166767367Y-96635299D01*
X166762284Y-96634394D01*
X166688452Y-96633492D01*
X166544081Y-96631728D01*
X166544079Y-96631728D01*
X166538911Y-96631665D01*
X166318091Y-96665455D01*
X166105756Y-96734857D01*
X166033629Y-96772404D01*
X165931975Y-96825322D01*
X165907607Y-96838007D01*
X165903474Y-96841110D01*
X165903471Y-96841112D01*
X165820450Y-96903446D01*
X165728965Y-96972135D01*
X165574629Y-97133638D01*
X165467201Y-97291121D01*
X165412293Y-97336121D01*
X165341768Y-97344292D01*
X165278021Y-97313038D01*
X165257324Y-97288554D01*
X165176822Y-97164117D01*
X165176820Y-97164114D01*
X165174014Y-97159777D01*
X165023670Y-96994551D01*
X165019619Y-96991352D01*
X165019615Y-96991348D01*
X164852414Y-96859300D01*
X164852410Y-96859298D01*
X164848359Y-96856098D01*
X164843831Y-96853598D01*
X164738252Y-96795316D01*
X164652789Y-96748138D01*
X164647920Y-96746414D01*
X164647916Y-96746412D01*
X164447087Y-96675295D01*
X164447083Y-96675294D01*
X164442212Y-96673569D01*
X164437119Y-96672662D01*
X164437116Y-96672661D01*
X164227373Y-96635300D01*
X164227367Y-96635299D01*
X164222284Y-96634394D01*
X164148452Y-96633492D01*
X164004081Y-96631728D01*
X164004079Y-96631728D01*
X163998911Y-96631665D01*
X163778091Y-96665455D01*
X163565756Y-96734857D01*
X163493629Y-96772404D01*
X163391975Y-96825322D01*
X163367607Y-96838007D01*
X163363474Y-96841110D01*
X163363471Y-96841112D01*
X163280450Y-96903446D01*
X163188965Y-96972135D01*
X163034629Y-97133638D01*
X162927201Y-97291121D01*
X162872293Y-97336121D01*
X162801768Y-97344292D01*
X162738021Y-97313038D01*
X162717324Y-97288554D01*
X162636822Y-97164117D01*
X162636820Y-97164114D01*
X162634014Y-97159777D01*
X162483670Y-96994551D01*
X162479619Y-96991352D01*
X162479615Y-96991348D01*
X162312414Y-96859300D01*
X162312410Y-96859298D01*
X162308359Y-96856098D01*
X162303831Y-96853598D01*
X162198252Y-96795316D01*
X162112789Y-96748138D01*
X162107920Y-96746414D01*
X162107916Y-96746412D01*
X161907087Y-96675295D01*
X161907083Y-96675294D01*
X161902212Y-96673569D01*
X161897119Y-96672662D01*
X161897116Y-96672661D01*
X161687373Y-96635300D01*
X161687367Y-96635299D01*
X161682284Y-96634394D01*
X161608452Y-96633492D01*
X161464081Y-96631728D01*
X161464079Y-96631728D01*
X161458911Y-96631665D01*
X161238091Y-96665455D01*
X161025756Y-96734857D01*
X160953629Y-96772404D01*
X160851975Y-96825322D01*
X160827607Y-96838007D01*
X160823474Y-96841110D01*
X160823471Y-96841112D01*
X160740450Y-96903446D01*
X160648965Y-96972135D01*
X160494629Y-97133638D01*
X160387201Y-97291121D01*
X160332293Y-97336121D01*
X160261768Y-97344292D01*
X160198021Y-97313038D01*
X160177324Y-97288554D01*
X160096822Y-97164117D01*
X160096820Y-97164114D01*
X160094014Y-97159777D01*
X159943670Y-96994551D01*
X159939619Y-96991352D01*
X159939615Y-96991348D01*
X159772414Y-96859300D01*
X159772410Y-96859298D01*
X159768359Y-96856098D01*
X159763831Y-96853598D01*
X159658252Y-96795316D01*
X159572789Y-96748138D01*
X159567920Y-96746414D01*
X159567916Y-96746412D01*
X159367087Y-96675295D01*
X159367083Y-96675294D01*
X159362212Y-96673569D01*
X159357119Y-96672662D01*
X159357116Y-96672661D01*
X159147373Y-96635300D01*
X159147367Y-96635299D01*
X159142284Y-96634394D01*
X159068452Y-96633492D01*
X158924081Y-96631728D01*
X158924079Y-96631728D01*
X158918911Y-96631665D01*
X158698091Y-96665455D01*
X158485756Y-96734857D01*
X158413629Y-96772404D01*
X158311975Y-96825322D01*
X158287607Y-96838007D01*
X158283474Y-96841110D01*
X158283471Y-96841112D01*
X158200450Y-96903446D01*
X158108965Y-96972135D01*
X157954629Y-97133638D01*
X157847201Y-97291121D01*
X157792293Y-97336121D01*
X157721768Y-97344292D01*
X157658021Y-97313038D01*
X157637324Y-97288554D01*
X157556822Y-97164117D01*
X157556820Y-97164114D01*
X157554014Y-97159777D01*
X157403670Y-96994551D01*
X157399619Y-96991352D01*
X157399615Y-96991348D01*
X157232414Y-96859300D01*
X157232410Y-96859298D01*
X157228359Y-96856098D01*
X157223831Y-96853598D01*
X157118252Y-96795316D01*
X157032789Y-96748138D01*
X157027920Y-96746414D01*
X157027916Y-96746412D01*
X156827087Y-96675295D01*
X156827083Y-96675294D01*
X156822212Y-96673569D01*
X156817119Y-96672662D01*
X156817116Y-96672661D01*
X156607373Y-96635300D01*
X156607367Y-96635299D01*
X156602284Y-96634394D01*
X156528452Y-96633492D01*
X156384081Y-96631728D01*
X156384079Y-96631728D01*
X156378911Y-96631665D01*
X156158091Y-96665455D01*
X155945756Y-96734857D01*
X155873629Y-96772404D01*
X155771975Y-96825322D01*
X155747607Y-96838007D01*
X155743474Y-96841110D01*
X155743471Y-96841112D01*
X155660450Y-96903446D01*
X155568965Y-96972135D01*
X155414629Y-97133638D01*
X155307201Y-97291121D01*
X155252293Y-97336121D01*
X155181768Y-97344292D01*
X155118021Y-97313038D01*
X155097324Y-97288554D01*
X155016822Y-97164117D01*
X155016820Y-97164114D01*
X155014014Y-97159777D01*
X154863670Y-96994551D01*
X154859619Y-96991352D01*
X154859615Y-96991348D01*
X154692414Y-96859300D01*
X154692410Y-96859298D01*
X154688359Y-96856098D01*
X154683831Y-96853598D01*
X154578252Y-96795316D01*
X154492789Y-96748138D01*
X154487920Y-96746414D01*
X154487916Y-96746412D01*
X154287087Y-96675295D01*
X154287083Y-96675294D01*
X154282212Y-96673569D01*
X154277119Y-96672662D01*
X154277116Y-96672661D01*
X154067373Y-96635300D01*
X154067367Y-96635299D01*
X154062284Y-96634394D01*
X153988452Y-96633492D01*
X153844081Y-96631728D01*
X153844079Y-96631728D01*
X153838911Y-96631665D01*
X153618091Y-96665455D01*
X153405756Y-96734857D01*
X153333629Y-96772404D01*
X153231975Y-96825322D01*
X153207607Y-96838007D01*
X153203474Y-96841110D01*
X153203471Y-96841112D01*
X153120450Y-96903446D01*
X153028965Y-96972135D01*
X152874629Y-97133638D01*
X152767201Y-97291121D01*
X152712293Y-97336121D01*
X152641768Y-97344292D01*
X152578021Y-97313038D01*
X152557324Y-97288554D01*
X152476822Y-97164117D01*
X152476820Y-97164114D01*
X152474014Y-97159777D01*
X152323670Y-96994551D01*
X152319619Y-96991352D01*
X152319615Y-96991348D01*
X152152414Y-96859300D01*
X152152410Y-96859298D01*
X152148359Y-96856098D01*
X152143831Y-96853598D01*
X152038252Y-96795316D01*
X151952789Y-96748138D01*
X151947920Y-96746414D01*
X151947916Y-96746412D01*
X151747087Y-96675295D01*
X151747083Y-96675294D01*
X151742212Y-96673569D01*
X151737119Y-96672662D01*
X151737116Y-96672661D01*
X151527373Y-96635300D01*
X151527367Y-96635299D01*
X151522284Y-96634394D01*
X151448452Y-96633492D01*
X151304081Y-96631728D01*
X151304079Y-96631728D01*
X151298911Y-96631665D01*
X151078091Y-96665455D01*
X150865756Y-96734857D01*
X150793629Y-96772404D01*
X150691975Y-96825322D01*
X150667607Y-96838007D01*
X150663474Y-96841110D01*
X150663471Y-96841112D01*
X150580450Y-96903446D01*
X150488965Y-96972135D01*
X150334629Y-97133638D01*
X150227201Y-97291121D01*
X150172293Y-97336121D01*
X150101768Y-97344292D01*
X150038021Y-97313038D01*
X150017324Y-97288554D01*
X149936822Y-97164117D01*
X149936820Y-97164114D01*
X149934014Y-97159777D01*
X149783670Y-96994551D01*
X149779619Y-96991352D01*
X149779615Y-96991348D01*
X149608359Y-96856098D01*
X149609224Y-96855003D01*
X149567699Y-96805567D01*
X149558676Y-96735146D01*
X149594008Y-96665896D01*
X150385210Y-95874695D01*
X150709420Y-95550485D01*
X177676854Y-95550485D01*
X177677156Y-95554320D01*
X177695108Y-95782417D01*
X177702370Y-95874695D01*
X177767206Y-96193378D01*
X177870398Y-96501784D01*
X177872052Y-96505253D01*
X177872053Y-96505254D01*
X177896619Y-96556758D01*
X178010405Y-96795316D01*
X178012467Y-96798553D01*
X178012470Y-96798558D01*
X178048430Y-96855003D01*
X178185141Y-97069597D01*
X178187584Y-97072560D01*
X178187585Y-97072562D01*
X178386194Y-97313493D01*
X178392001Y-97320538D01*
X178627902Y-97544399D01*
X178889326Y-97737843D01*
X178935279Y-97763842D01*
X179169019Y-97896086D01*
X179169023Y-97896088D01*
X179172376Y-97897985D01*
X179472832Y-98022438D01*
X179576288Y-98051129D01*
X179782500Y-98108317D01*
X179782508Y-98108319D01*
X179786216Y-98109347D01*
X180107856Y-98157416D01*
X180111154Y-98157560D01*
X180222918Y-98162440D01*
X180222922Y-98162440D01*
X180224294Y-98162500D01*
X180422598Y-98162500D01*
X180664605Y-98147698D01*
X180668388Y-98146997D01*
X180668395Y-98146996D01*
X180831365Y-98116791D01*
X180984372Y-98088433D01*
X181193682Y-98022438D01*
X181290860Y-97991798D01*
X181290863Y-97991797D01*
X181294532Y-97990640D01*
X181298029Y-97989046D01*
X181298035Y-97989044D01*
X181586954Y-97857376D01*
X181586958Y-97857374D01*
X181590462Y-97855777D01*
X181693621Y-97792561D01*
X181864473Y-97687863D01*
X181864476Y-97687861D01*
X181867751Y-97685854D01*
X181870755Y-97683464D01*
X181870760Y-97683461D01*
X182041743Y-97547454D01*
X182122264Y-97483405D01*
X182124958Y-97480664D01*
X182124962Y-97480660D01*
X182347513Y-97254190D01*
X182347517Y-97254185D01*
X182350208Y-97251447D01*
X182506555Y-97047692D01*
X182545835Y-96996502D01*
X182545837Y-96996498D01*
X182548185Y-96993439D01*
X182692678Y-96748138D01*
X182711289Y-96716543D01*
X182711291Y-96716540D01*
X182713242Y-96713227D01*
X182842920Y-96414988D01*
X182852873Y-96381389D01*
X182909681Y-96189607D01*
X182935285Y-96103169D01*
X182988961Y-95782417D01*
X183003146Y-95457515D01*
X182990388Y-95295410D01*
X182977932Y-95137140D01*
X182977932Y-95137137D01*
X182977630Y-95133305D01*
X182912794Y-94814622D01*
X182809602Y-94506216D01*
X182806901Y-94500552D01*
X182710431Y-94298299D01*
X182669595Y-94212684D01*
X182662189Y-94201058D01*
X182543377Y-94014561D01*
X182494859Y-93938403D01*
X182347470Y-93759606D01*
X182290442Y-93690425D01*
X182290438Y-93690420D01*
X182287999Y-93687462D01*
X182052098Y-93463601D01*
X181790674Y-93270157D01*
X181585781Y-93154234D01*
X181510981Y-93111914D01*
X181510977Y-93111912D01*
X181507624Y-93110015D01*
X181207168Y-92985562D01*
X181103712Y-92956871D01*
X180897500Y-92899683D01*
X180897492Y-92899681D01*
X180893784Y-92898653D01*
X180572144Y-92850584D01*
X180568846Y-92850440D01*
X180457082Y-92845560D01*
X180457078Y-92845560D01*
X180455706Y-92845500D01*
X180257402Y-92845500D01*
X180015395Y-92860302D01*
X180011612Y-92861003D01*
X180011605Y-92861004D01*
X179855511Y-92889935D01*
X179695628Y-92919567D01*
X179511058Y-92977762D01*
X179389140Y-93016202D01*
X179389137Y-93016203D01*
X179385468Y-93017360D01*
X179381971Y-93018954D01*
X179381965Y-93018956D01*
X179093046Y-93150624D01*
X179093042Y-93150626D01*
X179089538Y-93152223D01*
X178812249Y-93322146D01*
X178809245Y-93324536D01*
X178809240Y-93324539D01*
X178684993Y-93423370D01*
X178557736Y-93524595D01*
X178555042Y-93527336D01*
X178555038Y-93527340D01*
X178332487Y-93753810D01*
X178332483Y-93753815D01*
X178329792Y-93756553D01*
X178131815Y-94014561D01*
X178038018Y-94173797D01*
X177970547Y-94288341D01*
X177966758Y-94294773D01*
X177837080Y-94593012D01*
X177835986Y-94596706D01*
X177835984Y-94596711D01*
X177806498Y-94696254D01*
X177744715Y-94904831D01*
X177691039Y-95225583D01*
X177676854Y-95550485D01*
X150709420Y-95550485D01*
X151273182Y-94986723D01*
X151291456Y-94971605D01*
X151291710Y-94971432D01*
X151291711Y-94971431D01*
X151298271Y-94966973D01*
X151335419Y-94924837D01*
X151340838Y-94919067D01*
X151352135Y-94907770D01*
X151356796Y-94901760D01*
X151361929Y-94895144D01*
X151366974Y-94889046D01*
X151398877Y-94852859D01*
X151398880Y-94852855D01*
X151404121Y-94846910D01*
X151407866Y-94839561D01*
X151420566Y-94819549D01*
X151420758Y-94819302D01*
X151420759Y-94819301D01*
X151425614Y-94813041D01*
X151447923Y-94761488D01*
X151451271Y-94754372D01*
X151476786Y-94704296D01*
X151478585Y-94696248D01*
X151485909Y-94673707D01*
X151489181Y-94666145D01*
X151497964Y-94610691D01*
X151499447Y-94602918D01*
X151503775Y-94583557D01*
X151511702Y-94548092D01*
X151511443Y-94539857D01*
X151512933Y-94516186D01*
X151512980Y-94515890D01*
X151512980Y-94515885D01*
X151514220Y-94508057D01*
X151513051Y-94495690D01*
X151508936Y-94452153D01*
X151508439Y-94444255D01*
X151506923Y-94396032D01*
X151506674Y-94388111D01*
X151504376Y-94380200D01*
X151499932Y-94356904D01*
X151499903Y-94356599D01*
X151499157Y-94348708D01*
X151480134Y-94295870D01*
X151477688Y-94288341D01*
X151464230Y-94242019D01*
X151462019Y-94234407D01*
X151457985Y-94227586D01*
X151456362Y-94223835D01*
X151446000Y-94173797D01*
X151446000Y-90799217D01*
X151466002Y-90731096D01*
X151509491Y-90692376D01*
X151508397Y-90690541D01*
X151512842Y-90687891D01*
X151517482Y-90685618D01*
X151558716Y-90656206D01*
X151696955Y-90557601D01*
X151696959Y-90557597D01*
X151701167Y-90554596D01*
X151860987Y-90395333D01*
X151992650Y-90212105D01*
X152092618Y-90009835D01*
X152158208Y-89793952D01*
X152187658Y-89570256D01*
X152189302Y-89503000D01*
X152170815Y-89278132D01*
X152115849Y-89059304D01*
X152025880Y-88852391D01*
X151985473Y-88789931D01*
X151906134Y-88667291D01*
X151906132Y-88667288D01*
X151903326Y-88662951D01*
X151751477Y-88496071D01*
X151747426Y-88492872D01*
X151747422Y-88492868D01*
X151578466Y-88359434D01*
X151578462Y-88359432D01*
X151574411Y-88356232D01*
X151551035Y-88343328D01*
X151501064Y-88292896D01*
X151486292Y-88223453D01*
X151511408Y-88157047D01*
X151538759Y-88130441D01*
X151696955Y-88017601D01*
X151696959Y-88017597D01*
X151701167Y-88014596D01*
X151860987Y-87855333D01*
X151992650Y-87672105D01*
X152092618Y-87469835D01*
X152158208Y-87253952D01*
X152187658Y-87030256D01*
X152189302Y-86963000D01*
X152170815Y-86738132D01*
X152115849Y-86519304D01*
X152025880Y-86312391D01*
X151903326Y-86122951D01*
X151751477Y-85956071D01*
X151747426Y-85952872D01*
X151747422Y-85952868D01*
X151578466Y-85819434D01*
X151578462Y-85819432D01*
X151574411Y-85816232D01*
X151551035Y-85803328D01*
X151501064Y-85752896D01*
X151486292Y-85683453D01*
X151511408Y-85617047D01*
X151538759Y-85590441D01*
X151696955Y-85477601D01*
X151696959Y-85477597D01*
X151701167Y-85474596D01*
X151860987Y-85315333D01*
X151992650Y-85132105D01*
X152092618Y-84929835D01*
X152158208Y-84713952D01*
X152171967Y-84609445D01*
X152187221Y-84493578D01*
X152187222Y-84493572D01*
X152187658Y-84490256D01*
X152189302Y-84423000D01*
X152170815Y-84198132D01*
X152115849Y-83979304D01*
X152025880Y-83772391D01*
X151977782Y-83698043D01*
X151906134Y-83587291D01*
X151906132Y-83587288D01*
X151903326Y-83582951D01*
X151751477Y-83416071D01*
X151747426Y-83412872D01*
X151747422Y-83412868D01*
X151578466Y-83279434D01*
X151578462Y-83279432D01*
X151574411Y-83276232D01*
X151551035Y-83263328D01*
X151501064Y-83212896D01*
X151486292Y-83143453D01*
X151511408Y-83077047D01*
X151538759Y-83050441D01*
X151540006Y-83049552D01*
X151574854Y-83024695D01*
X151696955Y-82937601D01*
X151696959Y-82937597D01*
X151701167Y-82934596D01*
X151860987Y-82775333D01*
X151992650Y-82592105D01*
X152092618Y-82389835D01*
X152158208Y-82173952D01*
X152182834Y-81986901D01*
X152187221Y-81953578D01*
X152187222Y-81953572D01*
X152187658Y-81950256D01*
X152189302Y-81883000D01*
X152170815Y-81658132D01*
X152115849Y-81439304D01*
X152025880Y-81232391D01*
X151903326Y-81042951D01*
X151751477Y-80876071D01*
X151747426Y-80872872D01*
X151747422Y-80872868D01*
X151578466Y-80739434D01*
X151578462Y-80739432D01*
X151574411Y-80736232D01*
X151564606Y-80730819D01*
X151520598Y-80706526D01*
X151511106Y-80701286D01*
X151461136Y-80650855D01*
X151446000Y-80590978D01*
X151446000Y-77507234D01*
X151449293Y-77479409D01*
X151450490Y-77475883D01*
X151479723Y-77274263D01*
X151481249Y-77216000D01*
X151467968Y-77071461D01*
X151463137Y-77018880D01*
X151463136Y-77018877D01*
X151462608Y-77013126D01*
X151407307Y-76817047D01*
X151396776Y-76795691D01*
X151319756Y-76639510D01*
X151317201Y-76634329D01*
X151195305Y-76471091D01*
X151045703Y-76332800D01*
X150999675Y-76303759D01*
X150878288Y-76227169D01*
X150878283Y-76227167D01*
X150873404Y-76224088D01*
X150742063Y-76171688D01*
X150699658Y-76143753D01*
X149347652Y-74791747D01*
X149340112Y-74783461D01*
X149336000Y-74776982D01*
X149286348Y-74730356D01*
X149283507Y-74727602D01*
X149278390Y-74722485D01*
X177676854Y-74722485D01*
X177677156Y-74726320D01*
X177695108Y-74954417D01*
X177702370Y-75046695D01*
X177767206Y-75365378D01*
X177870398Y-75673784D01*
X177872052Y-75677253D01*
X177872053Y-75677254D01*
X177887359Y-75709344D01*
X178010405Y-75967316D01*
X178012467Y-75970553D01*
X178012470Y-75970558D01*
X178075099Y-76068865D01*
X178185141Y-76241597D01*
X178187584Y-76244560D01*
X178187585Y-76244562D01*
X178337308Y-76426190D01*
X178392001Y-76492538D01*
X178627902Y-76716399D01*
X178889326Y-76909843D01*
X179011794Y-76979132D01*
X179169019Y-77068086D01*
X179169023Y-77068088D01*
X179172376Y-77069985D01*
X179472832Y-77194438D01*
X179550582Y-77216000D01*
X179782500Y-77280317D01*
X179782508Y-77280319D01*
X179786216Y-77281347D01*
X180107856Y-77329416D01*
X180111154Y-77329560D01*
X180222918Y-77334440D01*
X180222922Y-77334440D01*
X180224294Y-77334500D01*
X180422598Y-77334500D01*
X180664605Y-77319698D01*
X180668388Y-77318997D01*
X180668395Y-77318996D01*
X180869889Y-77281651D01*
X180984372Y-77260433D01*
X181193682Y-77194438D01*
X181290860Y-77163798D01*
X181290863Y-77163797D01*
X181294532Y-77162640D01*
X181298029Y-77161046D01*
X181298035Y-77161044D01*
X181586954Y-77029376D01*
X181586958Y-77029374D01*
X181590462Y-77027777D01*
X181604981Y-77018880D01*
X181864473Y-76859863D01*
X181864476Y-76859861D01*
X181867751Y-76857854D01*
X181870755Y-76855464D01*
X181870760Y-76855461D01*
X181995007Y-76756630D01*
X182122264Y-76655405D01*
X182124958Y-76652664D01*
X182124962Y-76652660D01*
X182347513Y-76426190D01*
X182347517Y-76426185D01*
X182350208Y-76423447D01*
X182548185Y-76165439D01*
X182713242Y-75885227D01*
X182842920Y-75586988D01*
X182935285Y-75275169D01*
X182988961Y-74954417D01*
X183003146Y-74629515D01*
X182990388Y-74467410D01*
X182977932Y-74309140D01*
X182977932Y-74309137D01*
X182977630Y-74305305D01*
X182912794Y-73986622D01*
X182809602Y-73678216D01*
X182669595Y-73384684D01*
X182614791Y-73298658D01*
X182543377Y-73186561D01*
X182494859Y-73110403D01*
X182484596Y-73097953D01*
X182290442Y-72862425D01*
X182290438Y-72862420D01*
X182287999Y-72859462D01*
X182052098Y-72635601D01*
X181790674Y-72442157D01*
X181585781Y-72326234D01*
X181510981Y-72283914D01*
X181510977Y-72283912D01*
X181507624Y-72282015D01*
X181207168Y-72157562D01*
X181076660Y-72121369D01*
X180897500Y-72071683D01*
X180897492Y-72071681D01*
X180893784Y-72070653D01*
X180572144Y-72022584D01*
X180568846Y-72022440D01*
X180457082Y-72017560D01*
X180457078Y-72017560D01*
X180455706Y-72017500D01*
X180257402Y-72017500D01*
X180015395Y-72032302D01*
X180011612Y-72033003D01*
X180011605Y-72033004D01*
X179868237Y-72059576D01*
X179695628Y-72091567D01*
X179586332Y-72126028D01*
X179389140Y-72188202D01*
X179389137Y-72188203D01*
X179385468Y-72189360D01*
X179381971Y-72190954D01*
X179381965Y-72190956D01*
X179093046Y-72322624D01*
X179093042Y-72322626D01*
X179089538Y-72324223D01*
X179086259Y-72326233D01*
X179086256Y-72326234D01*
X178959576Y-72403864D01*
X178812249Y-72494146D01*
X178809245Y-72496536D01*
X178809240Y-72496539D01*
X178731728Y-72558195D01*
X178557736Y-72696595D01*
X178555042Y-72699336D01*
X178555038Y-72699340D01*
X178332487Y-72925810D01*
X178332483Y-72925815D01*
X178329792Y-72928553D01*
X178131815Y-73186561D01*
X178068218Y-73294528D01*
X178005802Y-73400490D01*
X177966758Y-73466773D01*
X177837080Y-73765012D01*
X177835986Y-73768706D01*
X177835984Y-73768711D01*
X177809419Y-73858395D01*
X177744715Y-74076831D01*
X177691039Y-74397583D01*
X177676854Y-74722485D01*
X149278390Y-74722485D01*
X149263770Y-74707865D01*
X149260573Y-74705385D01*
X149251551Y-74697680D01*
X149225100Y-74672841D01*
X149219321Y-74667414D01*
X149212375Y-74663595D01*
X149212372Y-74663593D01*
X149201566Y-74657652D01*
X149185047Y-74646801D01*
X149184583Y-74646441D01*
X149169041Y-74634386D01*
X149161772Y-74631241D01*
X149161768Y-74631238D01*
X149128463Y-74616826D01*
X149117813Y-74611609D01*
X149079060Y-74590305D01*
X149059437Y-74585267D01*
X149040734Y-74578863D01*
X149029420Y-74573967D01*
X149029419Y-74573967D01*
X149022145Y-74570819D01*
X149014322Y-74569580D01*
X149014312Y-74569577D01*
X148978476Y-74563901D01*
X148966856Y-74561495D01*
X148931711Y-74552472D01*
X148931710Y-74552472D01*
X148924030Y-74550500D01*
X148903776Y-74550500D01*
X148884065Y-74548949D01*
X148871886Y-74547020D01*
X148864057Y-74545780D01*
X148856165Y-74546526D01*
X148820039Y-74549941D01*
X148808181Y-74550500D01*
X123821094Y-74550500D01*
X123752973Y-74530498D01*
X123731999Y-74513595D01*
X123385317Y-74166913D01*
X123351291Y-74104601D01*
X123356356Y-74033786D01*
X123398903Y-73976950D01*
X123465423Y-73952139D01*
X123479024Y-73951903D01*
X123494845Y-73952483D01*
X123510674Y-73953064D01*
X123510678Y-73953064D01*
X123515837Y-73953253D01*
X123520957Y-73952597D01*
X123520959Y-73952597D01*
X123732288Y-73925525D01*
X123732289Y-73925525D01*
X123737416Y-73924868D01*
X123742366Y-73923383D01*
X123946429Y-73862161D01*
X123946434Y-73862159D01*
X123951384Y-73860674D01*
X124151994Y-73762396D01*
X124333860Y-73632673D01*
X124492096Y-73474989D01*
X124622453Y-73293577D01*
X124623776Y-73294528D01*
X124670645Y-73251357D01*
X124740580Y-73239125D01*
X124806026Y-73266644D01*
X124833875Y-73298494D01*
X124849852Y-73324566D01*
X124893987Y-73396588D01*
X125040250Y-73565438D01*
X125212126Y-73708132D01*
X125405000Y-73820838D01*
X125613692Y-73900530D01*
X125618760Y-73901561D01*
X125618763Y-73901562D01*
X125713862Y-73920910D01*
X125832597Y-73945067D01*
X125837772Y-73945257D01*
X125837774Y-73945257D01*
X126050673Y-73953064D01*
X126050677Y-73953064D01*
X126055837Y-73953253D01*
X126060957Y-73952597D01*
X126060959Y-73952597D01*
X126272288Y-73925525D01*
X126272289Y-73925525D01*
X126277416Y-73924868D01*
X126282366Y-73923383D01*
X126486429Y-73862161D01*
X126486434Y-73862159D01*
X126491384Y-73860674D01*
X126691994Y-73762396D01*
X126873860Y-73632673D01*
X127032096Y-73474989D01*
X127162453Y-73293577D01*
X127163776Y-73294528D01*
X127210645Y-73251357D01*
X127280580Y-73239125D01*
X127346026Y-73266644D01*
X127373875Y-73298494D01*
X127389852Y-73324566D01*
X127433987Y-73396588D01*
X127580250Y-73565438D01*
X127752126Y-73708132D01*
X127945000Y-73820838D01*
X128153692Y-73900530D01*
X128158760Y-73901561D01*
X128158763Y-73901562D01*
X128253862Y-73920910D01*
X128372597Y-73945067D01*
X128377772Y-73945257D01*
X128377774Y-73945257D01*
X128590673Y-73953064D01*
X128590677Y-73953064D01*
X128595837Y-73953253D01*
X128600957Y-73952597D01*
X128600959Y-73952597D01*
X128812288Y-73925525D01*
X128812289Y-73925525D01*
X128817416Y-73924868D01*
X128822366Y-73923383D01*
X129026429Y-73862161D01*
X129026434Y-73862159D01*
X129031384Y-73860674D01*
X129231994Y-73762396D01*
X129413860Y-73632673D01*
X129572096Y-73474989D01*
X129702453Y-73293577D01*
X129703776Y-73294528D01*
X129750645Y-73251357D01*
X129820580Y-73239125D01*
X129886026Y-73266644D01*
X129913875Y-73298494D01*
X129929852Y-73324566D01*
X129973987Y-73396588D01*
X130120250Y-73565438D01*
X130292126Y-73708132D01*
X130485000Y-73820838D01*
X130693692Y-73900530D01*
X130698760Y-73901561D01*
X130698763Y-73901562D01*
X130793862Y-73920910D01*
X130912597Y-73945067D01*
X130917772Y-73945257D01*
X130917774Y-73945257D01*
X131130673Y-73953064D01*
X131130677Y-73953064D01*
X131135837Y-73953253D01*
X131140957Y-73952597D01*
X131140959Y-73952597D01*
X131352288Y-73925525D01*
X131352289Y-73925525D01*
X131357416Y-73924868D01*
X131362366Y-73923383D01*
X131566429Y-73862161D01*
X131566434Y-73862159D01*
X131571384Y-73860674D01*
X131771994Y-73762396D01*
X131953860Y-73632673D01*
X132112096Y-73474989D01*
X132242453Y-73293577D01*
X132243776Y-73294528D01*
X132290645Y-73251357D01*
X132360580Y-73239125D01*
X132426026Y-73266644D01*
X132453875Y-73298494D01*
X132469852Y-73324566D01*
X132513987Y-73396588D01*
X132660250Y-73565438D01*
X132832126Y-73708132D01*
X133025000Y-73820838D01*
X133233692Y-73900530D01*
X133238760Y-73901561D01*
X133238763Y-73901562D01*
X133333862Y-73920910D01*
X133452597Y-73945067D01*
X133457772Y-73945257D01*
X133457774Y-73945257D01*
X133670673Y-73953064D01*
X133670677Y-73953064D01*
X133675837Y-73953253D01*
X133680957Y-73952597D01*
X133680959Y-73952597D01*
X133892288Y-73925525D01*
X133892289Y-73925525D01*
X133897416Y-73924868D01*
X133902366Y-73923383D01*
X134106429Y-73862161D01*
X134106434Y-73862159D01*
X134111384Y-73860674D01*
X134311994Y-73762396D01*
X134493860Y-73632673D01*
X134652096Y-73474989D01*
X134782453Y-73293577D01*
X134783776Y-73294528D01*
X134830645Y-73251357D01*
X134900580Y-73239125D01*
X134966026Y-73266644D01*
X134993875Y-73298494D01*
X135009852Y-73324566D01*
X135053987Y-73396588D01*
X135200250Y-73565438D01*
X135372126Y-73708132D01*
X135565000Y-73820838D01*
X135773692Y-73900530D01*
X135778760Y-73901561D01*
X135778763Y-73901562D01*
X135873862Y-73920910D01*
X135992597Y-73945067D01*
X135997772Y-73945257D01*
X135997774Y-73945257D01*
X136210673Y-73953064D01*
X136210677Y-73953064D01*
X136215837Y-73953253D01*
X136220957Y-73952597D01*
X136220959Y-73952597D01*
X136432288Y-73925525D01*
X136432289Y-73925525D01*
X136437416Y-73924868D01*
X136442366Y-73923383D01*
X136646429Y-73862161D01*
X136646434Y-73862159D01*
X136651384Y-73860674D01*
X136851994Y-73762396D01*
X137033860Y-73632673D01*
X137192096Y-73474989D01*
X137322453Y-73293577D01*
X137323776Y-73294528D01*
X137370645Y-73251357D01*
X137440580Y-73239125D01*
X137506026Y-73266644D01*
X137533875Y-73298494D01*
X137549852Y-73324566D01*
X137593987Y-73396588D01*
X137740250Y-73565438D01*
X137912126Y-73708132D01*
X138105000Y-73820838D01*
X138313692Y-73900530D01*
X138318760Y-73901561D01*
X138318763Y-73901562D01*
X138413862Y-73920910D01*
X138532597Y-73945067D01*
X138537772Y-73945257D01*
X138537774Y-73945257D01*
X138750673Y-73953064D01*
X138750677Y-73953064D01*
X138755837Y-73953253D01*
X138760957Y-73952597D01*
X138760959Y-73952597D01*
X138972288Y-73925525D01*
X138972289Y-73925525D01*
X138977416Y-73924868D01*
X138982366Y-73923383D01*
X139186429Y-73862161D01*
X139186434Y-73862159D01*
X139191384Y-73860674D01*
X139391994Y-73762396D01*
X139573860Y-73632673D01*
X139732096Y-73474989D01*
X139862453Y-73293577D01*
X139863776Y-73294528D01*
X139910645Y-73251357D01*
X139980580Y-73239125D01*
X140046026Y-73266644D01*
X140073875Y-73298494D01*
X140089852Y-73324566D01*
X140133987Y-73396588D01*
X140280250Y-73565438D01*
X140452126Y-73708132D01*
X140645000Y-73820838D01*
X140853692Y-73900530D01*
X140858760Y-73901561D01*
X140858763Y-73901562D01*
X140953862Y-73920910D01*
X141072597Y-73945067D01*
X141077772Y-73945257D01*
X141077774Y-73945257D01*
X141290673Y-73953064D01*
X141290677Y-73953064D01*
X141295837Y-73953253D01*
X141300957Y-73952597D01*
X141300959Y-73952597D01*
X141512288Y-73925525D01*
X141512289Y-73925525D01*
X141517416Y-73924868D01*
X141522366Y-73923383D01*
X141726429Y-73862161D01*
X141726434Y-73862159D01*
X141731384Y-73860674D01*
X141931994Y-73762396D01*
X142113860Y-73632673D01*
X142272096Y-73474989D01*
X142402453Y-73293577D01*
X142403776Y-73294528D01*
X142450645Y-73251357D01*
X142520580Y-73239125D01*
X142586026Y-73266644D01*
X142613875Y-73298494D01*
X142629852Y-73324566D01*
X142673987Y-73396588D01*
X142820250Y-73565438D01*
X142992126Y-73708132D01*
X143185000Y-73820838D01*
X143393692Y-73900530D01*
X143398760Y-73901561D01*
X143398763Y-73901562D01*
X143493862Y-73920910D01*
X143612597Y-73945067D01*
X143617772Y-73945257D01*
X143617774Y-73945257D01*
X143830673Y-73953064D01*
X143830677Y-73953064D01*
X143835837Y-73953253D01*
X143840957Y-73952597D01*
X143840959Y-73952597D01*
X144052288Y-73925525D01*
X144052289Y-73925525D01*
X144057416Y-73924868D01*
X144062366Y-73923383D01*
X144266429Y-73862161D01*
X144266434Y-73862159D01*
X144271384Y-73860674D01*
X144471994Y-73762396D01*
X144653860Y-73632673D01*
X144812096Y-73474989D01*
X144942453Y-73293577D01*
X144943776Y-73294528D01*
X144990645Y-73251357D01*
X145060580Y-73239125D01*
X145126026Y-73266644D01*
X145153875Y-73298494D01*
X145169852Y-73324566D01*
X145213987Y-73396588D01*
X145360250Y-73565438D01*
X145532126Y-73708132D01*
X145725000Y-73820838D01*
X145933692Y-73900530D01*
X145938760Y-73901561D01*
X145938763Y-73901562D01*
X146033862Y-73920910D01*
X146152597Y-73945067D01*
X146157772Y-73945257D01*
X146157774Y-73945257D01*
X146370673Y-73953064D01*
X146370677Y-73953064D01*
X146375837Y-73953253D01*
X146380957Y-73952597D01*
X146380959Y-73952597D01*
X146592288Y-73925525D01*
X146592289Y-73925525D01*
X146597416Y-73924868D01*
X146602366Y-73923383D01*
X146806429Y-73862161D01*
X146806434Y-73862159D01*
X146811384Y-73860674D01*
X147011994Y-73762396D01*
X147193860Y-73632673D01*
X147352096Y-73474989D01*
X147482453Y-73293577D01*
X147483776Y-73294528D01*
X147530645Y-73251357D01*
X147600580Y-73239125D01*
X147666026Y-73266644D01*
X147693875Y-73298494D01*
X147709852Y-73324566D01*
X147753987Y-73396588D01*
X147900250Y-73565438D01*
X148072126Y-73708132D01*
X148265000Y-73820838D01*
X148473692Y-73900530D01*
X148478760Y-73901561D01*
X148478763Y-73901562D01*
X148573862Y-73920910D01*
X148692597Y-73945067D01*
X148697772Y-73945257D01*
X148697774Y-73945257D01*
X148910673Y-73953064D01*
X148910677Y-73953064D01*
X148915837Y-73953253D01*
X148920957Y-73952597D01*
X148920959Y-73952597D01*
X149132288Y-73925525D01*
X149132289Y-73925525D01*
X149137416Y-73924868D01*
X149142366Y-73923383D01*
X149346429Y-73862161D01*
X149346434Y-73862159D01*
X149351384Y-73860674D01*
X149551994Y-73762396D01*
X149733860Y-73632673D01*
X149892096Y-73474989D01*
X150022453Y-73293577D01*
X150023776Y-73294528D01*
X150070645Y-73251357D01*
X150140580Y-73239125D01*
X150206026Y-73266644D01*
X150233875Y-73298494D01*
X150249852Y-73324566D01*
X150293987Y-73396588D01*
X150440250Y-73565438D01*
X150612126Y-73708132D01*
X150805000Y-73820838D01*
X151013692Y-73900530D01*
X151018760Y-73901561D01*
X151018763Y-73901562D01*
X151113862Y-73920910D01*
X151232597Y-73945067D01*
X151237772Y-73945257D01*
X151237774Y-73945257D01*
X151450673Y-73953064D01*
X151450677Y-73953064D01*
X151455837Y-73953253D01*
X151460957Y-73952597D01*
X151460959Y-73952597D01*
X151672288Y-73925525D01*
X151672289Y-73925525D01*
X151677416Y-73924868D01*
X151682366Y-73923383D01*
X151886429Y-73862161D01*
X151886434Y-73862159D01*
X151891384Y-73860674D01*
X152091994Y-73762396D01*
X152273860Y-73632673D01*
X152432096Y-73474989D01*
X152562453Y-73293577D01*
X152563640Y-73294430D01*
X152610960Y-73250862D01*
X152680897Y-73238645D01*
X152746338Y-73266178D01*
X152774166Y-73298011D01*
X152831694Y-73391888D01*
X152837777Y-73400199D01*
X152977213Y-73561167D01*
X152984580Y-73568383D01*
X153148434Y-73704416D01*
X153156881Y-73710331D01*
X153340756Y-73817779D01*
X153350042Y-73822229D01*
X153549001Y-73898203D01*
X153558899Y-73901079D01*
X153662250Y-73922106D01*
X153676299Y-73920910D01*
X153680000Y-73910565D01*
X153680000Y-73910017D01*
X154188000Y-73910017D01*
X154192064Y-73923859D01*
X154205478Y-73925893D01*
X154212184Y-73925034D01*
X154222262Y-73922892D01*
X154426255Y-73861691D01*
X154435842Y-73857933D01*
X154627095Y-73764239D01*
X154635945Y-73758964D01*
X154809328Y-73635292D01*
X154817200Y-73628639D01*
X154968052Y-73478312D01*
X154974730Y-73470465D01*
X155102022Y-73293319D01*
X155103279Y-73294222D01*
X155150373Y-73250862D01*
X155220311Y-73238645D01*
X155285751Y-73266178D01*
X155313579Y-73298011D01*
X155331310Y-73326945D01*
X155373987Y-73396588D01*
X155520250Y-73565438D01*
X155692126Y-73708132D01*
X155885000Y-73820838D01*
X156093692Y-73900530D01*
X156098760Y-73901561D01*
X156098763Y-73901562D01*
X156193862Y-73920910D01*
X156312597Y-73945067D01*
X156317772Y-73945257D01*
X156317774Y-73945257D01*
X156530673Y-73953064D01*
X156530677Y-73953064D01*
X156535837Y-73953253D01*
X156540957Y-73952597D01*
X156540959Y-73952597D01*
X156752288Y-73925525D01*
X156752289Y-73925525D01*
X156757416Y-73924868D01*
X156762366Y-73923383D01*
X156966429Y-73862161D01*
X156966434Y-73862159D01*
X156971384Y-73860674D01*
X157171994Y-73762396D01*
X157353860Y-73632673D01*
X157512096Y-73474989D01*
X157642453Y-73293577D01*
X157643776Y-73294528D01*
X157690645Y-73251357D01*
X157760580Y-73239125D01*
X157826026Y-73266644D01*
X157853875Y-73298494D01*
X157869852Y-73324566D01*
X157913987Y-73396588D01*
X158060250Y-73565438D01*
X158232126Y-73708132D01*
X158425000Y-73820838D01*
X158633692Y-73900530D01*
X158638760Y-73901561D01*
X158638763Y-73901562D01*
X158733862Y-73920910D01*
X158852597Y-73945067D01*
X158857772Y-73945257D01*
X158857774Y-73945257D01*
X159070673Y-73953064D01*
X159070677Y-73953064D01*
X159075837Y-73953253D01*
X159080957Y-73952597D01*
X159080959Y-73952597D01*
X159292288Y-73925525D01*
X159292289Y-73925525D01*
X159297416Y-73924868D01*
X159302366Y-73923383D01*
X159506429Y-73862161D01*
X159506434Y-73862159D01*
X159511384Y-73860674D01*
X159711994Y-73762396D01*
X159893860Y-73632673D01*
X160052096Y-73474989D01*
X160182453Y-73293577D01*
X160183776Y-73294528D01*
X160230645Y-73251357D01*
X160300580Y-73239125D01*
X160366026Y-73266644D01*
X160393875Y-73298494D01*
X160409852Y-73324566D01*
X160453987Y-73396588D01*
X160600250Y-73565438D01*
X160772126Y-73708132D01*
X160965000Y-73820838D01*
X161173692Y-73900530D01*
X161178760Y-73901561D01*
X161178763Y-73901562D01*
X161273862Y-73920910D01*
X161392597Y-73945067D01*
X161397772Y-73945257D01*
X161397774Y-73945257D01*
X161610673Y-73953064D01*
X161610677Y-73953064D01*
X161615837Y-73953253D01*
X161620957Y-73952597D01*
X161620959Y-73952597D01*
X161832288Y-73925525D01*
X161832289Y-73925525D01*
X161837416Y-73924868D01*
X161842366Y-73923383D01*
X162046429Y-73862161D01*
X162046434Y-73862159D01*
X162051384Y-73860674D01*
X162251994Y-73762396D01*
X162433860Y-73632673D01*
X162592096Y-73474989D01*
X162722453Y-73293577D01*
X162723776Y-73294528D01*
X162770645Y-73251357D01*
X162840580Y-73239125D01*
X162906026Y-73266644D01*
X162933875Y-73298494D01*
X162949852Y-73324566D01*
X162993987Y-73396588D01*
X163140250Y-73565438D01*
X163312126Y-73708132D01*
X163505000Y-73820838D01*
X163713692Y-73900530D01*
X163718760Y-73901561D01*
X163718763Y-73901562D01*
X163813862Y-73920910D01*
X163932597Y-73945067D01*
X163937772Y-73945257D01*
X163937774Y-73945257D01*
X164150673Y-73953064D01*
X164150677Y-73953064D01*
X164155837Y-73953253D01*
X164160957Y-73952597D01*
X164160959Y-73952597D01*
X164372288Y-73925525D01*
X164372289Y-73925525D01*
X164377416Y-73924868D01*
X164382366Y-73923383D01*
X164586429Y-73862161D01*
X164586434Y-73862159D01*
X164591384Y-73860674D01*
X164791994Y-73762396D01*
X164973860Y-73632673D01*
X165132096Y-73474989D01*
X165262453Y-73293577D01*
X165263776Y-73294528D01*
X165310645Y-73251357D01*
X165380580Y-73239125D01*
X165446026Y-73266644D01*
X165473875Y-73298494D01*
X165489852Y-73324566D01*
X165533987Y-73396588D01*
X165680250Y-73565438D01*
X165852126Y-73708132D01*
X166045000Y-73820838D01*
X166253692Y-73900530D01*
X166258760Y-73901561D01*
X166258763Y-73901562D01*
X166353862Y-73920910D01*
X166472597Y-73945067D01*
X166477772Y-73945257D01*
X166477774Y-73945257D01*
X166690673Y-73953064D01*
X166690677Y-73953064D01*
X166695837Y-73953253D01*
X166700957Y-73952597D01*
X166700959Y-73952597D01*
X166912288Y-73925525D01*
X166912289Y-73925525D01*
X166917416Y-73924868D01*
X166922366Y-73923383D01*
X167126429Y-73862161D01*
X167126434Y-73862159D01*
X167131384Y-73860674D01*
X167331994Y-73762396D01*
X167513860Y-73632673D01*
X167672096Y-73474989D01*
X167802453Y-73293577D01*
X167815995Y-73266178D01*
X167899136Y-73097953D01*
X167899137Y-73097951D01*
X167901430Y-73093311D01*
X167950560Y-72931606D01*
X167964865Y-72884523D01*
X167964865Y-72884521D01*
X167966370Y-72879569D01*
X167995529Y-72658090D01*
X167996014Y-72638250D01*
X167997074Y-72594865D01*
X167997074Y-72594861D01*
X167997156Y-72591500D01*
X167978852Y-72368861D01*
X167924431Y-72152202D01*
X167835354Y-71947340D01*
X167714014Y-71759777D01*
X167563670Y-71594551D01*
X167559619Y-71591352D01*
X167559615Y-71591348D01*
X167392414Y-71459300D01*
X167392410Y-71459298D01*
X167388359Y-71456098D01*
X167352028Y-71436042D01*
X167336136Y-71427269D01*
X167192789Y-71348138D01*
X167187920Y-71346414D01*
X167187916Y-71346412D01*
X166987087Y-71275295D01*
X166987083Y-71275294D01*
X166982212Y-71273569D01*
X166977119Y-71272662D01*
X166977116Y-71272661D01*
X166767373Y-71235300D01*
X166767367Y-71235299D01*
X166762284Y-71234394D01*
X166688452Y-71233492D01*
X166544081Y-71231728D01*
X166544079Y-71231728D01*
X166538911Y-71231665D01*
X166318091Y-71265455D01*
X166105756Y-71334857D01*
X165907607Y-71438007D01*
X165903474Y-71441110D01*
X165903471Y-71441112D01*
X165733100Y-71569030D01*
X165728965Y-71572135D01*
X165725393Y-71575873D01*
X165617729Y-71688537D01*
X165574629Y-71733638D01*
X165467201Y-71891121D01*
X165412293Y-71936121D01*
X165341768Y-71944292D01*
X165278021Y-71913038D01*
X165257324Y-71888554D01*
X165176822Y-71764117D01*
X165176820Y-71764114D01*
X165174014Y-71759777D01*
X165023670Y-71594551D01*
X165019619Y-71591352D01*
X165019615Y-71591348D01*
X164852414Y-71459300D01*
X164852410Y-71459298D01*
X164848359Y-71456098D01*
X164812028Y-71436042D01*
X164796136Y-71427269D01*
X164652789Y-71348138D01*
X164647920Y-71346414D01*
X164647916Y-71346412D01*
X164447087Y-71275295D01*
X164447083Y-71275294D01*
X164442212Y-71273569D01*
X164437119Y-71272662D01*
X164437116Y-71272661D01*
X164227373Y-71235300D01*
X164227367Y-71235299D01*
X164222284Y-71234394D01*
X164148452Y-71233492D01*
X164004081Y-71231728D01*
X164004079Y-71231728D01*
X163998911Y-71231665D01*
X163778091Y-71265455D01*
X163565756Y-71334857D01*
X163367607Y-71438007D01*
X163363474Y-71441110D01*
X163363471Y-71441112D01*
X163193100Y-71569030D01*
X163188965Y-71572135D01*
X163185393Y-71575873D01*
X163077729Y-71688537D01*
X163034629Y-71733638D01*
X162927201Y-71891121D01*
X162872293Y-71936121D01*
X162801768Y-71944292D01*
X162738021Y-71913038D01*
X162717324Y-71888554D01*
X162636822Y-71764117D01*
X162636820Y-71764114D01*
X162634014Y-71759777D01*
X162483670Y-71594551D01*
X162479619Y-71591352D01*
X162479615Y-71591348D01*
X162312414Y-71459300D01*
X162312410Y-71459298D01*
X162308359Y-71456098D01*
X162272028Y-71436042D01*
X162256136Y-71427269D01*
X162112789Y-71348138D01*
X162107920Y-71346414D01*
X162107916Y-71346412D01*
X161907087Y-71275295D01*
X161907083Y-71275294D01*
X161902212Y-71273569D01*
X161897119Y-71272662D01*
X161897116Y-71272661D01*
X161687373Y-71235300D01*
X161687367Y-71235299D01*
X161682284Y-71234394D01*
X161608452Y-71233492D01*
X161464081Y-71231728D01*
X161464079Y-71231728D01*
X161458911Y-71231665D01*
X161238091Y-71265455D01*
X161025756Y-71334857D01*
X160827607Y-71438007D01*
X160823474Y-71441110D01*
X160823471Y-71441112D01*
X160653100Y-71569030D01*
X160648965Y-71572135D01*
X160645393Y-71575873D01*
X160537729Y-71688537D01*
X160494629Y-71733638D01*
X160387201Y-71891121D01*
X160332293Y-71936121D01*
X160261768Y-71944292D01*
X160198021Y-71913038D01*
X160177324Y-71888554D01*
X160096822Y-71764117D01*
X160096820Y-71764114D01*
X160094014Y-71759777D01*
X159943670Y-71594551D01*
X159939619Y-71591352D01*
X159939615Y-71591348D01*
X159772414Y-71459300D01*
X159772410Y-71459298D01*
X159768359Y-71456098D01*
X159732028Y-71436042D01*
X159716136Y-71427269D01*
X159572789Y-71348138D01*
X159567920Y-71346414D01*
X159567916Y-71346412D01*
X159367087Y-71275295D01*
X159367083Y-71275294D01*
X159362212Y-71273569D01*
X159357119Y-71272662D01*
X159357116Y-71272661D01*
X159147373Y-71235300D01*
X159147367Y-71235299D01*
X159142284Y-71234394D01*
X159068452Y-71233492D01*
X158924081Y-71231728D01*
X158924079Y-71231728D01*
X158918911Y-71231665D01*
X158698091Y-71265455D01*
X158485756Y-71334857D01*
X158287607Y-71438007D01*
X158283474Y-71441110D01*
X158283471Y-71441112D01*
X158113100Y-71569030D01*
X158108965Y-71572135D01*
X158105393Y-71575873D01*
X157997729Y-71688537D01*
X157954629Y-71733638D01*
X157847201Y-71891121D01*
X157792293Y-71936121D01*
X157721768Y-71944292D01*
X157658021Y-71913038D01*
X157637324Y-71888554D01*
X157556822Y-71764117D01*
X157556820Y-71764114D01*
X157554014Y-71759777D01*
X157403670Y-71594551D01*
X157399619Y-71591352D01*
X157399615Y-71591348D01*
X157232414Y-71459300D01*
X157232410Y-71459298D01*
X157228359Y-71456098D01*
X157192028Y-71436042D01*
X157176136Y-71427269D01*
X157032789Y-71348138D01*
X157027920Y-71346414D01*
X157027916Y-71346412D01*
X156827087Y-71275295D01*
X156827083Y-71275294D01*
X156822212Y-71273569D01*
X156817119Y-71272662D01*
X156817116Y-71272661D01*
X156607373Y-71235300D01*
X156607367Y-71235299D01*
X156602284Y-71234394D01*
X156528452Y-71233492D01*
X156384081Y-71231728D01*
X156384079Y-71231728D01*
X156378911Y-71231665D01*
X156158091Y-71265455D01*
X155945756Y-71334857D01*
X155747607Y-71438007D01*
X155743474Y-71441110D01*
X155743471Y-71441112D01*
X155573100Y-71569030D01*
X155568965Y-71572135D01*
X155565393Y-71575873D01*
X155457729Y-71688537D01*
X155414629Y-71733638D01*
X155307204Y-71891118D01*
X155306898Y-71891566D01*
X155251987Y-71936569D01*
X155181462Y-71944740D01*
X155117715Y-71913486D01*
X155097018Y-71889002D01*
X155016426Y-71764426D01*
X155010136Y-71756257D01*
X154866806Y-71598740D01*
X154859273Y-71591715D01*
X154692139Y-71459722D01*
X154683552Y-71454017D01*
X154497117Y-71351099D01*
X154487705Y-71346869D01*
X154286959Y-71275780D01*
X154276988Y-71273146D01*
X154205837Y-71260472D01*
X154192540Y-71261932D01*
X154188000Y-71276489D01*
X154188000Y-73910017D01*
X153680000Y-73910017D01*
X153680000Y-71274602D01*
X153676082Y-71261258D01*
X153661806Y-71259271D01*
X153623324Y-71265160D01*
X153613288Y-71267551D01*
X153410868Y-71333712D01*
X153401359Y-71337709D01*
X153212463Y-71436042D01*
X153203738Y-71441536D01*
X153033433Y-71569405D01*
X153025726Y-71576248D01*
X152878590Y-71730217D01*
X152872109Y-71738222D01*
X152767498Y-71891574D01*
X152712587Y-71936576D01*
X152642062Y-71944747D01*
X152578315Y-71913493D01*
X152557618Y-71889009D01*
X152476822Y-71764117D01*
X152476820Y-71764114D01*
X152474014Y-71759777D01*
X152323670Y-71594551D01*
X152319619Y-71591352D01*
X152319615Y-71591348D01*
X152152414Y-71459300D01*
X152152410Y-71459298D01*
X152148359Y-71456098D01*
X152112028Y-71436042D01*
X152096136Y-71427269D01*
X151952789Y-71348138D01*
X151947920Y-71346414D01*
X151947916Y-71346412D01*
X151747087Y-71275295D01*
X151747083Y-71275294D01*
X151742212Y-71273569D01*
X151737119Y-71272662D01*
X151737116Y-71272661D01*
X151527373Y-71235300D01*
X151527367Y-71235299D01*
X151522284Y-71234394D01*
X151448452Y-71233492D01*
X151304081Y-71231728D01*
X151304079Y-71231728D01*
X151298911Y-71231665D01*
X151078091Y-71265455D01*
X150865756Y-71334857D01*
X150667607Y-71438007D01*
X150663474Y-71441110D01*
X150663471Y-71441112D01*
X150493100Y-71569030D01*
X150488965Y-71572135D01*
X150485393Y-71575873D01*
X150377729Y-71688537D01*
X150334629Y-71733638D01*
X150227201Y-71891121D01*
X150172293Y-71936121D01*
X150101768Y-71944292D01*
X150038021Y-71913038D01*
X150017324Y-71888554D01*
X149936822Y-71764117D01*
X149936820Y-71764114D01*
X149934014Y-71759777D01*
X149783670Y-71594551D01*
X149779619Y-71591352D01*
X149779615Y-71591348D01*
X149612414Y-71459300D01*
X149612410Y-71459298D01*
X149608359Y-71456098D01*
X149572028Y-71436042D01*
X149556136Y-71427269D01*
X149412789Y-71348138D01*
X149407920Y-71346414D01*
X149407916Y-71346412D01*
X149207087Y-71275295D01*
X149207083Y-71275294D01*
X149202212Y-71273569D01*
X149197119Y-71272662D01*
X149197116Y-71272661D01*
X148987373Y-71235300D01*
X148987367Y-71235299D01*
X148982284Y-71234394D01*
X148908452Y-71233492D01*
X148764081Y-71231728D01*
X148764079Y-71231728D01*
X148758911Y-71231665D01*
X148538091Y-71265455D01*
X148325756Y-71334857D01*
X148127607Y-71438007D01*
X148123474Y-71441110D01*
X148123471Y-71441112D01*
X147953100Y-71569030D01*
X147948965Y-71572135D01*
X147945393Y-71575873D01*
X147837729Y-71688537D01*
X147794629Y-71733638D01*
X147687201Y-71891121D01*
X147632293Y-71936121D01*
X147561768Y-71944292D01*
X147498021Y-71913038D01*
X147477324Y-71888554D01*
X147396822Y-71764117D01*
X147396820Y-71764114D01*
X147394014Y-71759777D01*
X147243670Y-71594551D01*
X147239619Y-71591352D01*
X147239615Y-71591348D01*
X147072414Y-71459300D01*
X147072410Y-71459298D01*
X147068359Y-71456098D01*
X147032028Y-71436042D01*
X147016136Y-71427269D01*
X146872789Y-71348138D01*
X146867920Y-71346414D01*
X146867916Y-71346412D01*
X146667087Y-71275295D01*
X146667083Y-71275294D01*
X146662212Y-71273569D01*
X146657119Y-71272662D01*
X146657116Y-71272661D01*
X146447373Y-71235300D01*
X146447367Y-71235299D01*
X146442284Y-71234394D01*
X146368452Y-71233492D01*
X146224081Y-71231728D01*
X146224079Y-71231728D01*
X146218911Y-71231665D01*
X145998091Y-71265455D01*
X145785756Y-71334857D01*
X145587607Y-71438007D01*
X145583474Y-71441110D01*
X145583471Y-71441112D01*
X145413100Y-71569030D01*
X145408965Y-71572135D01*
X145405393Y-71575873D01*
X145297729Y-71688537D01*
X145254629Y-71733638D01*
X145147201Y-71891121D01*
X145092293Y-71936121D01*
X145021768Y-71944292D01*
X144958021Y-71913038D01*
X144937324Y-71888554D01*
X144856822Y-71764117D01*
X144856820Y-71764114D01*
X144854014Y-71759777D01*
X144703670Y-71594551D01*
X144699619Y-71591352D01*
X144699615Y-71591348D01*
X144532414Y-71459300D01*
X144532410Y-71459298D01*
X144528359Y-71456098D01*
X144492028Y-71436042D01*
X144476136Y-71427269D01*
X144332789Y-71348138D01*
X144327920Y-71346414D01*
X144327916Y-71346412D01*
X144127087Y-71275295D01*
X144127083Y-71275294D01*
X144122212Y-71273569D01*
X144117119Y-71272662D01*
X144117116Y-71272661D01*
X143907373Y-71235300D01*
X143907367Y-71235299D01*
X143902284Y-71234394D01*
X143828452Y-71233492D01*
X143684081Y-71231728D01*
X143684079Y-71231728D01*
X143678911Y-71231665D01*
X143458091Y-71265455D01*
X143245756Y-71334857D01*
X143047607Y-71438007D01*
X143043474Y-71441110D01*
X143043471Y-71441112D01*
X142873100Y-71569030D01*
X142868965Y-71572135D01*
X142865393Y-71575873D01*
X142757729Y-71688537D01*
X142714629Y-71733638D01*
X142607201Y-71891121D01*
X142552293Y-71936121D01*
X142481768Y-71944292D01*
X142418021Y-71913038D01*
X142397324Y-71888554D01*
X142316822Y-71764117D01*
X142316820Y-71764114D01*
X142314014Y-71759777D01*
X142163670Y-71594551D01*
X142159619Y-71591352D01*
X142159615Y-71591348D01*
X141992414Y-71459300D01*
X141992410Y-71459298D01*
X141988359Y-71456098D01*
X141952028Y-71436042D01*
X141936136Y-71427269D01*
X141792789Y-71348138D01*
X141787920Y-71346414D01*
X141787916Y-71346412D01*
X141587087Y-71275295D01*
X141587083Y-71275294D01*
X141582212Y-71273569D01*
X141577119Y-71272662D01*
X141577116Y-71272661D01*
X141367373Y-71235300D01*
X141367367Y-71235299D01*
X141362284Y-71234394D01*
X141288452Y-71233492D01*
X141144081Y-71231728D01*
X141144079Y-71231728D01*
X141138911Y-71231665D01*
X140918091Y-71265455D01*
X140705756Y-71334857D01*
X140507607Y-71438007D01*
X140503474Y-71441110D01*
X140503471Y-71441112D01*
X140333100Y-71569030D01*
X140328965Y-71572135D01*
X140325393Y-71575873D01*
X140217729Y-71688537D01*
X140174629Y-71733638D01*
X140067201Y-71891121D01*
X140012293Y-71936121D01*
X139941768Y-71944292D01*
X139878021Y-71913038D01*
X139857324Y-71888554D01*
X139776822Y-71764117D01*
X139776820Y-71764114D01*
X139774014Y-71759777D01*
X139623670Y-71594551D01*
X139619619Y-71591352D01*
X139619615Y-71591348D01*
X139452414Y-71459300D01*
X139452410Y-71459298D01*
X139448359Y-71456098D01*
X139412028Y-71436042D01*
X139396136Y-71427269D01*
X139252789Y-71348138D01*
X139247920Y-71346414D01*
X139247916Y-71346412D01*
X139047087Y-71275295D01*
X139047083Y-71275294D01*
X139042212Y-71273569D01*
X139037119Y-71272662D01*
X139037116Y-71272661D01*
X138827373Y-71235300D01*
X138827367Y-71235299D01*
X138822284Y-71234394D01*
X138748452Y-71233492D01*
X138604081Y-71231728D01*
X138604079Y-71231728D01*
X138598911Y-71231665D01*
X138378091Y-71265455D01*
X138165756Y-71334857D01*
X137967607Y-71438007D01*
X137963474Y-71441110D01*
X137963471Y-71441112D01*
X137793100Y-71569030D01*
X137788965Y-71572135D01*
X137785393Y-71575873D01*
X137677729Y-71688537D01*
X137634629Y-71733638D01*
X137527201Y-71891121D01*
X137472293Y-71936121D01*
X137401768Y-71944292D01*
X137338021Y-71913038D01*
X137317324Y-71888554D01*
X137236822Y-71764117D01*
X137236820Y-71764114D01*
X137234014Y-71759777D01*
X137083670Y-71594551D01*
X137079619Y-71591352D01*
X137079615Y-71591348D01*
X136912414Y-71459300D01*
X136912410Y-71459298D01*
X136908359Y-71456098D01*
X136872028Y-71436042D01*
X136856136Y-71427269D01*
X136712789Y-71348138D01*
X136707920Y-71346414D01*
X136707916Y-71346412D01*
X136507087Y-71275295D01*
X136507083Y-71275294D01*
X136502212Y-71273569D01*
X136497119Y-71272662D01*
X136497116Y-71272661D01*
X136287373Y-71235300D01*
X136287367Y-71235299D01*
X136282284Y-71234394D01*
X136208452Y-71233492D01*
X136064081Y-71231728D01*
X136064079Y-71231728D01*
X136058911Y-71231665D01*
X135838091Y-71265455D01*
X135625756Y-71334857D01*
X135427607Y-71438007D01*
X135423474Y-71441110D01*
X135423471Y-71441112D01*
X135253100Y-71569030D01*
X135248965Y-71572135D01*
X135245393Y-71575873D01*
X135137729Y-71688537D01*
X135094629Y-71733638D01*
X134987201Y-71891121D01*
X134932293Y-71936121D01*
X134861768Y-71944292D01*
X134798021Y-71913038D01*
X134777324Y-71888554D01*
X134696822Y-71764117D01*
X134696820Y-71764114D01*
X134694014Y-71759777D01*
X134543670Y-71594551D01*
X134539619Y-71591352D01*
X134539615Y-71591348D01*
X134372414Y-71459300D01*
X134372410Y-71459298D01*
X134368359Y-71456098D01*
X134332028Y-71436042D01*
X134316136Y-71427269D01*
X134172789Y-71348138D01*
X134167920Y-71346414D01*
X134167916Y-71346412D01*
X133967087Y-71275295D01*
X133967083Y-71275294D01*
X133962212Y-71273569D01*
X133957119Y-71272662D01*
X133957116Y-71272661D01*
X133747373Y-71235300D01*
X133747367Y-71235299D01*
X133742284Y-71234394D01*
X133668452Y-71233492D01*
X133524081Y-71231728D01*
X133524079Y-71231728D01*
X133518911Y-71231665D01*
X133298091Y-71265455D01*
X133085756Y-71334857D01*
X132887607Y-71438007D01*
X132883474Y-71441110D01*
X132883471Y-71441112D01*
X132713100Y-71569030D01*
X132708965Y-71572135D01*
X132705393Y-71575873D01*
X132597729Y-71688537D01*
X132554629Y-71733638D01*
X132447201Y-71891121D01*
X132392293Y-71936121D01*
X132321768Y-71944292D01*
X132258021Y-71913038D01*
X132237324Y-71888554D01*
X132156822Y-71764117D01*
X132156820Y-71764114D01*
X132154014Y-71759777D01*
X132003670Y-71594551D01*
X131999619Y-71591352D01*
X131999615Y-71591348D01*
X131832414Y-71459300D01*
X131832410Y-71459298D01*
X131828359Y-71456098D01*
X131792028Y-71436042D01*
X131776136Y-71427269D01*
X131632789Y-71348138D01*
X131627920Y-71346414D01*
X131627916Y-71346412D01*
X131427087Y-71275295D01*
X131427083Y-71275294D01*
X131422212Y-71273569D01*
X131417119Y-71272662D01*
X131417116Y-71272661D01*
X131207373Y-71235300D01*
X131207367Y-71235299D01*
X131202284Y-71234394D01*
X131128452Y-71233492D01*
X130984081Y-71231728D01*
X130984079Y-71231728D01*
X130978911Y-71231665D01*
X130758091Y-71265455D01*
X130545756Y-71334857D01*
X130347607Y-71438007D01*
X130343474Y-71441110D01*
X130343471Y-71441112D01*
X130173100Y-71569030D01*
X130168965Y-71572135D01*
X130165393Y-71575873D01*
X130057729Y-71688537D01*
X130014629Y-71733638D01*
X129907201Y-71891121D01*
X129852293Y-71936121D01*
X129781768Y-71944292D01*
X129718021Y-71913038D01*
X129697324Y-71888554D01*
X129616822Y-71764117D01*
X129616820Y-71764114D01*
X129614014Y-71759777D01*
X129463670Y-71594551D01*
X129459619Y-71591352D01*
X129459615Y-71591348D01*
X129292414Y-71459300D01*
X129292410Y-71459298D01*
X129288359Y-71456098D01*
X129252028Y-71436042D01*
X129236136Y-71427269D01*
X129092789Y-71348138D01*
X129087920Y-71346414D01*
X129087916Y-71346412D01*
X128887087Y-71275295D01*
X128887083Y-71275294D01*
X128882212Y-71273569D01*
X128877119Y-71272662D01*
X128877116Y-71272661D01*
X128667373Y-71235300D01*
X128667367Y-71235299D01*
X128662284Y-71234394D01*
X128588452Y-71233492D01*
X128444081Y-71231728D01*
X128444079Y-71231728D01*
X128438911Y-71231665D01*
X128218091Y-71265455D01*
X128005756Y-71334857D01*
X127807607Y-71438007D01*
X127803474Y-71441110D01*
X127803471Y-71441112D01*
X127633100Y-71569030D01*
X127628965Y-71572135D01*
X127625393Y-71575873D01*
X127517729Y-71688537D01*
X127474629Y-71733638D01*
X127367201Y-71891121D01*
X127312293Y-71936121D01*
X127241768Y-71944292D01*
X127178021Y-71913038D01*
X127157324Y-71888554D01*
X127076822Y-71764117D01*
X127076820Y-71764114D01*
X127074014Y-71759777D01*
X126923670Y-71594551D01*
X126919619Y-71591352D01*
X126919615Y-71591348D01*
X126752414Y-71459300D01*
X126752410Y-71459298D01*
X126748359Y-71456098D01*
X126712028Y-71436042D01*
X126696136Y-71427269D01*
X126552789Y-71348138D01*
X126547920Y-71346414D01*
X126547916Y-71346412D01*
X126347087Y-71275295D01*
X126347083Y-71275294D01*
X126342212Y-71273569D01*
X126337119Y-71272662D01*
X126337116Y-71272661D01*
X126127373Y-71235300D01*
X126127367Y-71235299D01*
X126122284Y-71234394D01*
X126048452Y-71233492D01*
X125904081Y-71231728D01*
X125904079Y-71231728D01*
X125898911Y-71231665D01*
X125678091Y-71265455D01*
X125465756Y-71334857D01*
X125267607Y-71438007D01*
X125263474Y-71441110D01*
X125263471Y-71441112D01*
X125093100Y-71569030D01*
X125088965Y-71572135D01*
X125085393Y-71575873D01*
X124977729Y-71688537D01*
X124934629Y-71733638D01*
X124827201Y-71891121D01*
X124772293Y-71936121D01*
X124701768Y-71944292D01*
X124638021Y-71913038D01*
X124617324Y-71888554D01*
X124536822Y-71764117D01*
X124536820Y-71764114D01*
X124534014Y-71759777D01*
X124383670Y-71594551D01*
X124379619Y-71591352D01*
X124379615Y-71591348D01*
X124212414Y-71459300D01*
X124212410Y-71459298D01*
X124208359Y-71456098D01*
X124172028Y-71436042D01*
X124156136Y-71427269D01*
X124012789Y-71348138D01*
X124007920Y-71346414D01*
X124007916Y-71346412D01*
X123807087Y-71275295D01*
X123807083Y-71275294D01*
X123802212Y-71273569D01*
X123797119Y-71272662D01*
X123797116Y-71272661D01*
X123587373Y-71235300D01*
X123587367Y-71235299D01*
X123582284Y-71234394D01*
X123508452Y-71233492D01*
X123364081Y-71231728D01*
X123364079Y-71231728D01*
X123358911Y-71231665D01*
X123138091Y-71265455D01*
X122925756Y-71334857D01*
X122727607Y-71438007D01*
X122723474Y-71441110D01*
X122723471Y-71441112D01*
X122553100Y-71569030D01*
X122548965Y-71572135D01*
X122492537Y-71631184D01*
X122468283Y-71656564D01*
X122406759Y-71691994D01*
X122335846Y-71688537D01*
X122278060Y-71647291D01*
X122259207Y-71613743D01*
X122217767Y-71503203D01*
X122214615Y-71494795D01*
X122127261Y-71378239D01*
X122010705Y-71290885D01*
X121874316Y-71239755D01*
X121812134Y-71233000D01*
X120015866Y-71233000D01*
X119953684Y-71239755D01*
X119817295Y-71290885D01*
X119700739Y-71378239D01*
X119613385Y-71494795D01*
X119562255Y-71631184D01*
X119555500Y-71693366D01*
X119555500Y-71832000D01*
X119535498Y-71900121D01*
X119481842Y-71946614D01*
X119429500Y-71958000D01*
X104779267Y-71958000D01*
X104768084Y-71957473D01*
X104760591Y-71955798D01*
X104752665Y-71956047D01*
X104752664Y-71956047D01*
X104692514Y-71957938D01*
X104688555Y-71958000D01*
X104660644Y-71958000D01*
X104656710Y-71958497D01*
X104656709Y-71958497D01*
X104656644Y-71958505D01*
X104644807Y-71959438D01*
X104612990Y-71960438D01*
X104608529Y-71960578D01*
X104600610Y-71960827D01*
X104582954Y-71965956D01*
X104581158Y-71966478D01*
X104561806Y-71970486D01*
X104554735Y-71971380D01*
X104541703Y-71973026D01*
X104534334Y-71975943D01*
X104534332Y-71975944D01*
X104500597Y-71989300D01*
X104489369Y-71993145D01*
X104446907Y-72005482D01*
X104440084Y-72009517D01*
X104440082Y-72009518D01*
X104429472Y-72015793D01*
X104411724Y-72024488D01*
X104392883Y-72031948D01*
X104386467Y-72036610D01*
X104386466Y-72036610D01*
X104357113Y-72057936D01*
X104347193Y-72064452D01*
X104315965Y-72082920D01*
X104315962Y-72082922D01*
X104309138Y-72086958D01*
X104294817Y-72101279D01*
X104279784Y-72114119D01*
X104263393Y-72126028D01*
X104258342Y-72132134D01*
X104235202Y-72160105D01*
X104227212Y-72168884D01*
X99175747Y-77220348D01*
X99167461Y-77227888D01*
X99160982Y-77232000D01*
X99155557Y-77237777D01*
X99114357Y-77281651D01*
X99111602Y-77284493D01*
X99091865Y-77304230D01*
X99089385Y-77307427D01*
X99081682Y-77316447D01*
X99051414Y-77348679D01*
X99047595Y-77355625D01*
X99047593Y-77355628D01*
X99041652Y-77366434D01*
X99030801Y-77382953D01*
X99018386Y-77398959D01*
X99015241Y-77406228D01*
X99015238Y-77406232D01*
X99000826Y-77439537D01*
X98995609Y-77450187D01*
X98974305Y-77488940D01*
X98972334Y-77496615D01*
X98972334Y-77496616D01*
X98969267Y-77508562D01*
X98962863Y-77527266D01*
X98954819Y-77545855D01*
X98953580Y-77553678D01*
X98953577Y-77553688D01*
X98947901Y-77589524D01*
X98945495Y-77601144D01*
X98934500Y-77643970D01*
X98934500Y-77664224D01*
X98932949Y-77683934D01*
X98929780Y-77703943D01*
X90424500Y-77703943D01*
X90424500Y-75745250D01*
X90426246Y-75724345D01*
X90428770Y-75709344D01*
X90428770Y-75709341D01*
X90429576Y-75704552D01*
X90429729Y-75692000D01*
X90429040Y-75687189D01*
X90429039Y-75687173D01*
X90427252Y-75674698D01*
X90426076Y-75651889D01*
X90426583Y-75638999D01*
X90430747Y-75532995D01*
X90441530Y-75258560D01*
X90442306Y-75248697D01*
X90492710Y-74822833D01*
X90494258Y-74813061D01*
X90512275Y-74722485D01*
X92332854Y-74722485D01*
X92333156Y-74726320D01*
X92351108Y-74954417D01*
X92358370Y-75046695D01*
X92423206Y-75365378D01*
X92526398Y-75673784D01*
X92528052Y-75677253D01*
X92528053Y-75677254D01*
X92543359Y-75709344D01*
X92666405Y-75967316D01*
X92668467Y-75970553D01*
X92668470Y-75970558D01*
X92731099Y-76068865D01*
X92841141Y-76241597D01*
X92843584Y-76244560D01*
X92843585Y-76244562D01*
X92993308Y-76426190D01*
X93048001Y-76492538D01*
X93283902Y-76716399D01*
X93545326Y-76909843D01*
X93667794Y-76979132D01*
X93825019Y-77068086D01*
X93825023Y-77068088D01*
X93828376Y-77069985D01*
X94128832Y-77194438D01*
X94206582Y-77216000D01*
X94438500Y-77280317D01*
X94438508Y-77280319D01*
X94442216Y-77281347D01*
X94763856Y-77329416D01*
X94767154Y-77329560D01*
X94878918Y-77334440D01*
X94878922Y-77334440D01*
X94880294Y-77334500D01*
X95078598Y-77334500D01*
X95320605Y-77319698D01*
X95324388Y-77318997D01*
X95324395Y-77318996D01*
X95525889Y-77281651D01*
X95640372Y-77260433D01*
X95849682Y-77194438D01*
X95946860Y-77163798D01*
X95946863Y-77163797D01*
X95950532Y-77162640D01*
X95954029Y-77161046D01*
X95954035Y-77161044D01*
X96242954Y-77029376D01*
X96242958Y-77029374D01*
X96246462Y-77027777D01*
X96260981Y-77018880D01*
X96520473Y-76859863D01*
X96520476Y-76859861D01*
X96523751Y-76857854D01*
X96526755Y-76855464D01*
X96526760Y-76855461D01*
X96651007Y-76756630D01*
X96778264Y-76655405D01*
X96780958Y-76652664D01*
X96780962Y-76652660D01*
X97003513Y-76426190D01*
X97003517Y-76426185D01*
X97006208Y-76423447D01*
X97204185Y-76165439D01*
X97369242Y-75885227D01*
X97498920Y-75586988D01*
X97591285Y-75275169D01*
X97644961Y-74954417D01*
X97659146Y-74629515D01*
X97646388Y-74467410D01*
X97633932Y-74309140D01*
X97633932Y-74309137D01*
X97633630Y-74305305D01*
X97568794Y-73986622D01*
X97465602Y-73678216D01*
X97325595Y-73384684D01*
X97270791Y-73298658D01*
X97199377Y-73186561D01*
X97150859Y-73110403D01*
X97140596Y-73097953D01*
X96946442Y-72862425D01*
X96946438Y-72862420D01*
X96943999Y-72859462D01*
X96708098Y-72635601D01*
X96446674Y-72442157D01*
X96241781Y-72326234D01*
X96166981Y-72283914D01*
X96166977Y-72283912D01*
X96163624Y-72282015D01*
X95863168Y-72157562D01*
X95732660Y-72121369D01*
X95553500Y-72071683D01*
X95553492Y-72071681D01*
X95549784Y-72070653D01*
X95228144Y-72022584D01*
X95224846Y-72022440D01*
X95113082Y-72017560D01*
X95113078Y-72017560D01*
X95111706Y-72017500D01*
X94913402Y-72017500D01*
X94671395Y-72032302D01*
X94667612Y-72033003D01*
X94667605Y-72033004D01*
X94524237Y-72059576D01*
X94351628Y-72091567D01*
X94242332Y-72126028D01*
X94045140Y-72188202D01*
X94045137Y-72188203D01*
X94041468Y-72189360D01*
X94037971Y-72190954D01*
X94037965Y-72190956D01*
X93749046Y-72322624D01*
X93749042Y-72322626D01*
X93745538Y-72324223D01*
X93742259Y-72326233D01*
X93742256Y-72326234D01*
X93615576Y-72403864D01*
X93468249Y-72494146D01*
X93465245Y-72496536D01*
X93465240Y-72496539D01*
X93387728Y-72558195D01*
X93213736Y-72696595D01*
X93211042Y-72699336D01*
X93211038Y-72699340D01*
X92988487Y-72925810D01*
X92988483Y-72925815D01*
X92985792Y-72928553D01*
X92787815Y-73186561D01*
X92724218Y-73294528D01*
X92661802Y-73400490D01*
X92622758Y-73466773D01*
X92493080Y-73765012D01*
X92491986Y-73768706D01*
X92491984Y-73768711D01*
X92465419Y-73858395D01*
X92400715Y-74076831D01*
X92347039Y-74397583D01*
X92332854Y-74722485D01*
X90512275Y-74722485D01*
X90577918Y-74392477D01*
X90580228Y-74382857D01*
X90696628Y-73970134D01*
X90699685Y-73960725D01*
X90848110Y-73558399D01*
X90851896Y-73549259D01*
X90854339Y-73543960D01*
X91031431Y-73159818D01*
X91035918Y-73151013D01*
X91245457Y-72776855D01*
X91250626Y-72768419D01*
X91371081Y-72588146D01*
X91488871Y-72411861D01*
X91494681Y-72403864D01*
X91507630Y-72387439D01*
X91608903Y-72258974D01*
X91760166Y-72067099D01*
X91766591Y-72059576D01*
X91901628Y-71913493D01*
X92057691Y-71744665D01*
X92064665Y-71737691D01*
X92246716Y-71569405D01*
X92379576Y-71446591D01*
X92387099Y-71440166D01*
X92615039Y-71260472D01*
X92723872Y-71174675D01*
X92731861Y-71168871D01*
X93088419Y-70930626D01*
X93096855Y-70925457D01*
X93471013Y-70715918D01*
X93479818Y-70711431D01*
X93869262Y-70531895D01*
X93878399Y-70528110D01*
X93887426Y-70524780D01*
X94280725Y-70379685D01*
X94290134Y-70376628D01*
X94702857Y-70260228D01*
X94712477Y-70257918D01*
X95133061Y-70174258D01*
X95142833Y-70172710D01*
X95568697Y-70122306D01*
X95578560Y-70121530D01*
X95968134Y-70106224D01*
X95992463Y-70107627D01*
X95996847Y-70108309D01*
X95996848Y-70108309D01*
X96005724Y-70109691D01*
X96014626Y-70108527D01*
X96014628Y-70108527D01*
X96032237Y-70106224D01*
X96037286Y-70105564D01*
X96053621Y-70104500D01*
X179782633Y-70104500D01*
X179802018Y-70106000D01*
G37*
%TD.AperFunction*%
%TD*%
M02*
