%TF.GenerationSoftware,KiCad,Pcbnew,(6.0.1)*%
%TF.CreationDate,2023-03-10T13:51:45+01:00*%
%TF.ProjectId,openDTU_wDisplay,6f70656e-4454-4555-9f77-446973706c61,rev?*%
%TF.SameCoordinates,Original*%
%TF.FileFunction,Soldermask,Bot*%
%TF.FilePolarity,Negative*%
%FSLAX46Y46*%
G04 Gerber Fmt 4.6, Leading zero omitted, Abs format (unit mm)*
G04 Created by KiCad (PCBNEW (6.0.1)) date 2023-03-10 13:51:45*
%MOMM*%
%LPD*%
G01*
G04 APERTURE LIST*
%ADD10R,1.700000X1.700000*%
%ADD11C,1.700000*%
%ADD12C,1.200000*%
%ADD13C,4.300000*%
%ADD14O,2.000000X1.600000*%
%ADD15O,1.700000X1.700000*%
G04 APERTURE END LIST*
D10*
%TO.C,NRF24L01+1*%
X146748500Y-81040000D03*
D11*
X149288500Y-81040000D03*
X146748500Y-83580000D03*
X149288500Y-83580000D03*
X146748500Y-86120000D03*
X149288500Y-86120000D03*
X146748500Y-88660000D03*
X149288500Y-88660000D03*
%TD*%
D12*
%TO.C,C1*%
X139446000Y-79514000D03*
X139446000Y-81014000D03*
%TD*%
D13*
%TO.C,REF\u002A\u002A*%
X180340000Y-74676000D03*
%TD*%
D14*
%TO.C,SSD1306*%
X102176000Y-88964000D03*
X102176000Y-86424000D03*
X102176000Y-83884000D03*
X102176000Y-81344000D03*
%TD*%
D13*
%TO.C,REF\u002A\u002A*%
X94996000Y-74676000D03*
%TD*%
%TO.C,REF\u002A\u002A*%
X180340000Y-95504000D03*
%TD*%
%TO.C,REF\u002A\u002A*%
X94996000Y-95504000D03*
%TD*%
D10*
%TO.C,ESP32NodeMCU1*%
X120914000Y-72591500D03*
D15*
X123454000Y-72591500D03*
X125994000Y-72591500D03*
X128534000Y-72591500D03*
X131074000Y-72591500D03*
X133614000Y-72591500D03*
X136154000Y-72591500D03*
X138694000Y-72591500D03*
X141234000Y-72591500D03*
X143774000Y-72591500D03*
X146314000Y-72591500D03*
X148854000Y-72591500D03*
X151394000Y-72591500D03*
X153934000Y-72591500D03*
X156474000Y-72591500D03*
X159014000Y-72591500D03*
X161554000Y-72591500D03*
X164094000Y-72591500D03*
X166634000Y-72591500D03*
X166634000Y-97991500D03*
X164094000Y-97991500D03*
X161554000Y-97991500D03*
X159014000Y-97991500D03*
X156474000Y-97991500D03*
X153934000Y-97991500D03*
X151394000Y-97991500D03*
X148854000Y-97991500D03*
X146314000Y-97991500D03*
X143774000Y-97991500D03*
X141234000Y-97991500D03*
X138694000Y-97991500D03*
X136154000Y-97991500D03*
X133614000Y-97991500D03*
X131074000Y-97991500D03*
X128534000Y-97991500D03*
X125994000Y-97991500D03*
X123454000Y-97991500D03*
D10*
X120914000Y-97991500D03*
%TD*%
M02*
