%TF.GenerationSoftware,KiCad,Pcbnew,(6.0.1)*%
%TF.CreationDate,2023-03-10T13:51:45+01:00*%
%TF.ProjectId,openDTU_wDisplay,6f70656e-4454-4555-9f77-446973706c61,rev?*%
%TF.SameCoordinates,Original*%
%TF.FileFunction,Legend,Bot*%
%TF.FilePolarity,Positive*%
%FSLAX46Y46*%
G04 Gerber Fmt 4.6, Leading zero omitted, Abs format (unit mm)*
G04 Created by KiCad (PCBNEW (6.0.1)) date 2023-03-10 13:51:45*
%MOMM*%
%LPD*%
G01*
G04 APERTURE LIST*
%ADD10C,0.150000*%
%ADD11C,0.300000*%
%ADD12C,0.100000*%
%ADD13C,0.120000*%
G04 APERTURE END LIST*
D10*
X140335047Y-79573428D02*
X141096952Y-79573428D01*
X140716000Y-79954380D02*
X140716000Y-79192476D01*
D11*
X91251571Y-79506571D02*
X91251571Y-79792285D01*
X91323000Y-79935142D01*
X91465857Y-80078000D01*
X91751571Y-80149428D01*
X92251571Y-80149428D01*
X92537285Y-80078000D01*
X92680142Y-79935142D01*
X92751571Y-79792285D01*
X92751571Y-79506571D01*
X92680142Y-79363714D01*
X92537285Y-79220857D01*
X92251571Y-79149428D01*
X91751571Y-79149428D01*
X91465857Y-79220857D01*
X91323000Y-79363714D01*
X91251571Y-79506571D01*
X91751571Y-80792285D02*
X93251571Y-80792285D01*
X91823000Y-80792285D02*
X91751571Y-80935142D01*
X91751571Y-81220857D01*
X91823000Y-81363714D01*
X91894428Y-81435142D01*
X92037285Y-81506571D01*
X92465857Y-81506571D01*
X92608714Y-81435142D01*
X92680142Y-81363714D01*
X92751571Y-81220857D01*
X92751571Y-80935142D01*
X92680142Y-80792285D01*
X92680142Y-82720857D02*
X92751571Y-82578000D01*
X92751571Y-82292285D01*
X92680142Y-82149428D01*
X92537285Y-82078000D01*
X91965857Y-82078000D01*
X91823000Y-82149428D01*
X91751571Y-82292285D01*
X91751571Y-82578000D01*
X91823000Y-82720857D01*
X91965857Y-82792285D01*
X92108714Y-82792285D01*
X92251571Y-82078000D01*
X91751571Y-83435142D02*
X92751571Y-83435142D01*
X91894428Y-83435142D02*
X91823000Y-83506571D01*
X91751571Y-83649428D01*
X91751571Y-83863714D01*
X91823000Y-84006571D01*
X91965857Y-84078000D01*
X92751571Y-84078000D01*
X92751571Y-84792285D02*
X91251571Y-84792285D01*
X91251571Y-85149428D01*
X91323000Y-85363714D01*
X91465857Y-85506571D01*
X91608714Y-85578000D01*
X91894428Y-85649428D01*
X92108714Y-85649428D01*
X92394428Y-85578000D01*
X92537285Y-85506571D01*
X92680142Y-85363714D01*
X92751571Y-85149428D01*
X92751571Y-84792285D01*
X91251571Y-86078000D02*
X91251571Y-86935142D01*
X92751571Y-86506571D02*
X91251571Y-86506571D01*
X91251571Y-87435142D02*
X92465857Y-87435142D01*
X92608714Y-87506571D01*
X92680142Y-87578000D01*
X92751571Y-87720857D01*
X92751571Y-88006571D01*
X92680142Y-88149428D01*
X92608714Y-88220857D01*
X92465857Y-88292285D01*
X91251571Y-88292285D01*
X94166571Y-79149428D02*
X95166571Y-79435142D01*
X94452285Y-79720857D01*
X95166571Y-80006571D01*
X94166571Y-80292285D01*
X95166571Y-82006571D02*
X93666571Y-82006571D01*
X93666571Y-82363714D01*
X93738000Y-82578000D01*
X93880857Y-82720857D01*
X94023714Y-82792285D01*
X94309428Y-82863714D01*
X94523714Y-82863714D01*
X94809428Y-82792285D01*
X94952285Y-82720857D01*
X95095142Y-82578000D01*
X95166571Y-82363714D01*
X95166571Y-82006571D01*
X95166571Y-83506571D02*
X94166571Y-83506571D01*
X93666571Y-83506571D02*
X93738000Y-83435142D01*
X93809428Y-83506571D01*
X93738000Y-83578000D01*
X93666571Y-83506571D01*
X93809428Y-83506571D01*
X95095142Y-84149428D02*
X95166571Y-84292285D01*
X95166571Y-84578000D01*
X95095142Y-84720857D01*
X94952285Y-84792285D01*
X94880857Y-84792285D01*
X94738000Y-84720857D01*
X94666571Y-84578000D01*
X94666571Y-84363714D01*
X94595142Y-84220857D01*
X94452285Y-84149428D01*
X94380857Y-84149428D01*
X94238000Y-84220857D01*
X94166571Y-84363714D01*
X94166571Y-84578000D01*
X94238000Y-84720857D01*
X94166571Y-85435142D02*
X95666571Y-85435142D01*
X94238000Y-85435142D02*
X94166571Y-85578000D01*
X94166571Y-85863714D01*
X94238000Y-86006571D01*
X94309428Y-86078000D01*
X94452285Y-86149428D01*
X94880857Y-86149428D01*
X95023714Y-86078000D01*
X95095142Y-86006571D01*
X95166571Y-85863714D01*
X95166571Y-85578000D01*
X95095142Y-85435142D01*
X95166571Y-87006571D02*
X95095142Y-86863714D01*
X94952285Y-86792285D01*
X93666571Y-86792285D01*
X95166571Y-88220857D02*
X94380857Y-88220857D01*
X94238000Y-88149428D01*
X94166571Y-88006571D01*
X94166571Y-87720857D01*
X94238000Y-87578000D01*
X95095142Y-88220857D02*
X95166571Y-88078000D01*
X95166571Y-87720857D01*
X95095142Y-87578000D01*
X94952285Y-87506571D01*
X94809428Y-87506571D01*
X94666571Y-87578000D01*
X94595142Y-87720857D01*
X94595142Y-88078000D01*
X94523714Y-88220857D01*
X94166571Y-88792285D02*
X95166571Y-89149428D01*
X94166571Y-89506571D02*
X95166571Y-89149428D01*
X95523714Y-89006571D01*
X95595142Y-88935142D01*
X95666571Y-88792285D01*
X96081571Y-81328000D02*
X97581571Y-81828000D01*
X96081571Y-82328000D01*
X97581571Y-83613714D02*
X97581571Y-82756571D01*
X97581571Y-83185142D02*
X96081571Y-83185142D01*
X96295857Y-83042285D01*
X96438714Y-82899428D01*
X96510142Y-82756571D01*
X97438714Y-84256571D02*
X97510142Y-84328000D01*
X97581571Y-84256571D01*
X97510142Y-84185142D01*
X97438714Y-84256571D01*
X97581571Y-84256571D01*
X96081571Y-85256571D02*
X96081571Y-85399428D01*
X96153000Y-85542285D01*
X96224428Y-85613714D01*
X96367285Y-85685142D01*
X96653000Y-85756571D01*
X97010142Y-85756571D01*
X97295857Y-85685142D01*
X97438714Y-85613714D01*
X97510142Y-85542285D01*
X97581571Y-85399428D01*
X97581571Y-85256571D01*
X97510142Y-85113714D01*
X97438714Y-85042285D01*
X97295857Y-84970857D01*
X97010142Y-84899428D01*
X96653000Y-84899428D01*
X96367285Y-84970857D01*
X96224428Y-85042285D01*
X96153000Y-85113714D01*
X96081571Y-85256571D01*
X97581571Y-87185142D02*
X97581571Y-86328000D01*
X97581571Y-86756571D02*
X96081571Y-86756571D01*
X96295857Y-86613714D01*
X96438714Y-86470857D01*
X96510142Y-86328000D01*
D10*
X158303261Y-80533904D02*
X157969928Y-81333904D01*
X157636595Y-80533904D01*
X156731833Y-81257714D02*
X156779452Y-81295809D01*
X156922309Y-81333904D01*
X157017547Y-81333904D01*
X157160404Y-81295809D01*
X157255642Y-81219619D01*
X157303261Y-81143428D01*
X157350880Y-80991047D01*
X157350880Y-80876761D01*
X157303261Y-80724380D01*
X157255642Y-80648190D01*
X157160404Y-80572000D01*
X157017547Y-80533904D01*
X156922309Y-80533904D01*
X156779452Y-80572000D01*
X156731833Y-80610095D01*
X155731833Y-81257714D02*
X155779452Y-81295809D01*
X155922309Y-81333904D01*
X156017547Y-81333904D01*
X156160404Y-81295809D01*
X156255642Y-81219619D01*
X156303261Y-81143428D01*
X156350880Y-80991047D01*
X156350880Y-80876761D01*
X156303261Y-80724380D01*
X156255642Y-80648190D01*
X156160404Y-80572000D01*
X156017547Y-80533904D01*
X155922309Y-80533904D01*
X155779452Y-80572000D01*
X155731833Y-80610095D01*
X154017547Y-80572000D02*
X154112785Y-80533904D01*
X154255642Y-80533904D01*
X154398500Y-80572000D01*
X154493738Y-80648190D01*
X154541357Y-80724380D01*
X154588976Y-80876761D01*
X154588976Y-80991047D01*
X154541357Y-81143428D01*
X154493738Y-81219619D01*
X154398500Y-81295809D01*
X154255642Y-81333904D01*
X154160404Y-81333904D01*
X154017547Y-81295809D01*
X153969928Y-81257714D01*
X153969928Y-80991047D01*
X154160404Y-80991047D01*
X153541357Y-81333904D02*
X153541357Y-80533904D01*
X152969928Y-81333904D01*
X152969928Y-80533904D01*
X152493738Y-81333904D02*
X152493738Y-80533904D01*
X152255642Y-80533904D01*
X152112785Y-80572000D01*
X152017547Y-80648190D01*
X151969928Y-80724380D01*
X151922309Y-80876761D01*
X151922309Y-80991047D01*
X151969928Y-81143428D01*
X152017547Y-81219619D01*
X152112785Y-81295809D01*
X152255642Y-81333904D01*
X152493738Y-81333904D01*
X157588976Y-83833714D02*
X157636595Y-83871809D01*
X157779452Y-83909904D01*
X157874690Y-83909904D01*
X158017547Y-83871809D01*
X158112785Y-83795619D01*
X158160404Y-83719428D01*
X158208023Y-83567047D01*
X158208023Y-83452761D01*
X158160404Y-83300380D01*
X158112785Y-83224190D01*
X158017547Y-83148000D01*
X157874690Y-83109904D01*
X157779452Y-83109904D01*
X157636595Y-83148000D01*
X157588976Y-83186095D01*
X157160404Y-83909904D02*
X157160404Y-83109904D01*
X156588976Y-83909904D01*
X156588976Y-83109904D01*
X156160404Y-83871809D02*
X156017547Y-83909904D01*
X155779452Y-83909904D01*
X155684214Y-83871809D01*
X155636595Y-83833714D01*
X155588976Y-83757523D01*
X155588976Y-83681333D01*
X155636595Y-83605142D01*
X155684214Y-83567047D01*
X155779452Y-83528952D01*
X155969928Y-83490857D01*
X156065166Y-83452761D01*
X156112785Y-83414666D01*
X156160404Y-83338476D01*
X156160404Y-83262285D01*
X156112785Y-83186095D01*
X156065166Y-83148000D01*
X155969928Y-83109904D01*
X155731833Y-83109904D01*
X155588976Y-83148000D01*
X153827071Y-83833714D02*
X153874690Y-83871809D01*
X154017547Y-83909904D01*
X154112785Y-83909904D01*
X154255642Y-83871809D01*
X154350880Y-83795619D01*
X154398500Y-83719428D01*
X154446119Y-83567047D01*
X154446119Y-83452761D01*
X154398500Y-83300380D01*
X154350880Y-83224190D01*
X154255642Y-83148000D01*
X154112785Y-83109904D01*
X154017547Y-83109904D01*
X153874690Y-83148000D01*
X153827071Y-83186095D01*
X153398500Y-83490857D02*
X153065166Y-83490857D01*
X152922309Y-83909904D02*
X153398500Y-83909904D01*
X153398500Y-83109904D01*
X152922309Y-83109904D01*
X158160404Y-86485904D02*
X158160404Y-85685904D01*
X157827071Y-86257333D01*
X157493738Y-85685904D01*
X157493738Y-86485904D01*
X156827071Y-85685904D02*
X156636595Y-85685904D01*
X156541357Y-85724000D01*
X156446119Y-85800190D01*
X156398500Y-85952571D01*
X156398500Y-86219238D01*
X156446119Y-86371619D01*
X156541357Y-86447809D01*
X156636595Y-86485904D01*
X156827071Y-86485904D01*
X156922309Y-86447809D01*
X157017547Y-86371619D01*
X157065166Y-86219238D01*
X157065166Y-85952571D01*
X157017547Y-85800190D01*
X156922309Y-85724000D01*
X156827071Y-85685904D01*
X156017547Y-86447809D02*
X155874690Y-86485904D01*
X155636595Y-86485904D01*
X155541357Y-86447809D01*
X155493738Y-86409714D01*
X155446119Y-86333523D01*
X155446119Y-86257333D01*
X155493738Y-86181142D01*
X155541357Y-86143047D01*
X155636595Y-86104952D01*
X155827071Y-86066857D01*
X155922309Y-86028761D01*
X155969928Y-85990666D01*
X156017547Y-85914476D01*
X156017547Y-85838285D01*
X155969928Y-85762095D01*
X155922309Y-85724000D01*
X155827071Y-85685904D01*
X155588976Y-85685904D01*
X155446119Y-85724000D01*
X155017547Y-86485904D02*
X155017547Y-85685904D01*
X153827071Y-86447809D02*
X153684214Y-86485904D01*
X153446119Y-86485904D01*
X153350880Y-86447809D01*
X153303261Y-86409714D01*
X153255642Y-86333523D01*
X153255642Y-86257333D01*
X153303261Y-86181142D01*
X153350880Y-86143047D01*
X153446119Y-86104952D01*
X153636595Y-86066857D01*
X153731833Y-86028761D01*
X153779452Y-85990666D01*
X153827071Y-85914476D01*
X153827071Y-85838285D01*
X153779452Y-85762095D01*
X153731833Y-85724000D01*
X153636595Y-85685904D01*
X153398500Y-85685904D01*
X153255642Y-85724000D01*
X152255642Y-86409714D02*
X152303261Y-86447809D01*
X152446119Y-86485904D01*
X152541357Y-86485904D01*
X152684214Y-86447809D01*
X152779452Y-86371619D01*
X152827071Y-86295428D01*
X152874690Y-86143047D01*
X152874690Y-86028761D01*
X152827071Y-85876380D01*
X152779452Y-85800190D01*
X152684214Y-85724000D01*
X152541357Y-85685904D01*
X152446119Y-85685904D01*
X152303261Y-85724000D01*
X152255642Y-85762095D01*
X151827071Y-86485904D02*
X151827071Y-85685904D01*
X151255642Y-86485904D02*
X151684214Y-86028761D01*
X151255642Y-85685904D02*
X151827071Y-86143047D01*
X158160404Y-89061904D02*
X158160404Y-88261904D01*
X157112785Y-89061904D02*
X157446119Y-88680952D01*
X157684214Y-89061904D02*
X157684214Y-88261904D01*
X157303261Y-88261904D01*
X157208023Y-88300000D01*
X157160404Y-88338095D01*
X157112785Y-88414285D01*
X157112785Y-88528571D01*
X157160404Y-88604761D01*
X157208023Y-88642857D01*
X157303261Y-88680952D01*
X157684214Y-88680952D01*
X156017547Y-89138095D02*
X156112785Y-89100000D01*
X156208023Y-89023809D01*
X156350880Y-88909523D01*
X156446119Y-88871428D01*
X156541357Y-88871428D01*
X156493738Y-89061904D02*
X156588976Y-89023809D01*
X156684214Y-88947619D01*
X156731833Y-88795238D01*
X156731833Y-88528571D01*
X156684214Y-88376190D01*
X156588976Y-88300000D01*
X156493738Y-88261904D01*
X156303261Y-88261904D01*
X156208023Y-88300000D01*
X156112785Y-88376190D01*
X156065166Y-88528571D01*
X156065166Y-88795238D01*
X156112785Y-88947619D01*
X156208023Y-89023809D01*
X156303261Y-89061904D01*
X156493738Y-89061904D01*
X154874690Y-89061904D02*
X154874690Y-88261904D01*
X154541357Y-88833333D01*
X154208023Y-88261904D01*
X154208023Y-89061904D01*
X153731833Y-89061904D02*
X153731833Y-88261904D01*
X153303261Y-89023809D02*
X153160404Y-89061904D01*
X152922309Y-89061904D01*
X152827071Y-89023809D01*
X152779452Y-88985714D01*
X152731833Y-88909523D01*
X152731833Y-88833333D01*
X152779452Y-88757142D01*
X152827071Y-88719047D01*
X152922309Y-88680952D01*
X153112785Y-88642857D01*
X153208023Y-88604761D01*
X153255642Y-88566666D01*
X153303261Y-88490476D01*
X153303261Y-88414285D01*
X153255642Y-88338095D01*
X153208023Y-88300000D01*
X153112785Y-88261904D01*
X152874690Y-88261904D01*
X152731833Y-88300000D01*
X152112785Y-88261904D02*
X151922309Y-88261904D01*
X151827071Y-88300000D01*
X151731833Y-88376190D01*
X151684214Y-88528571D01*
X151684214Y-88795238D01*
X151731833Y-88947619D01*
X151827071Y-89023809D01*
X151922309Y-89061904D01*
X152112785Y-89061904D01*
X152208023Y-89023809D01*
X152303261Y-88947619D01*
X152350880Y-88795238D01*
X152350880Y-88528571D01*
X152303261Y-88376190D01*
X152208023Y-88300000D01*
X152112785Y-88261904D01*
D12*
X179531714Y-80859809D02*
X180341238Y-80859809D01*
X180436476Y-80812190D01*
X180484095Y-80764571D01*
X180531714Y-80669333D01*
X180531714Y-80526476D01*
X180484095Y-80431238D01*
X180150761Y-80859809D02*
X180198380Y-80764571D01*
X180198380Y-80574095D01*
X180150761Y-80478857D01*
X180103142Y-80431238D01*
X180007904Y-80383619D01*
X179722190Y-80383619D01*
X179626952Y-80431238D01*
X179579333Y-80478857D01*
X179531714Y-80574095D01*
X179531714Y-80764571D01*
X179579333Y-80859809D01*
X180198380Y-81336000D02*
X179531714Y-81336000D01*
X179198380Y-81336000D02*
X179246000Y-81288380D01*
X179293619Y-81336000D01*
X179246000Y-81383619D01*
X179198380Y-81336000D01*
X179293619Y-81336000D01*
X179531714Y-81669333D02*
X179531714Y-82050285D01*
X179198380Y-81812190D02*
X180055523Y-81812190D01*
X180150761Y-81859809D01*
X180198380Y-81955047D01*
X180198380Y-82050285D01*
X180198380Y-82383619D02*
X179198380Y-82383619D01*
X180198380Y-82812190D02*
X179674571Y-82812190D01*
X179579333Y-82764571D01*
X179531714Y-82669333D01*
X179531714Y-82526476D01*
X179579333Y-82431238D01*
X179626952Y-82383619D01*
X179531714Y-83716952D02*
X180198380Y-83716952D01*
X179531714Y-83288380D02*
X180055523Y-83288380D01*
X180150761Y-83336000D01*
X180198380Y-83431238D01*
X180198380Y-83574095D01*
X180150761Y-83669333D01*
X180103142Y-83716952D01*
X180198380Y-84193142D02*
X179198380Y-84193142D01*
X179579333Y-84193142D02*
X179531714Y-84288380D01*
X179531714Y-84478857D01*
X179579333Y-84574095D01*
X179626952Y-84621714D01*
X179722190Y-84669333D01*
X180007904Y-84669333D01*
X180103142Y-84621714D01*
X180150761Y-84574095D01*
X180198380Y-84478857D01*
X180198380Y-84288380D01*
X180150761Y-84193142D01*
X180103142Y-85097904D02*
X180150761Y-85145523D01*
X180198380Y-85097904D01*
X180150761Y-85050285D01*
X180103142Y-85097904D01*
X180198380Y-85097904D01*
X180150761Y-86002666D02*
X180198380Y-85907428D01*
X180198380Y-85716952D01*
X180150761Y-85621714D01*
X180103142Y-85574095D01*
X180007904Y-85526476D01*
X179722190Y-85526476D01*
X179626952Y-85574095D01*
X179579333Y-85621714D01*
X179531714Y-85716952D01*
X179531714Y-85907428D01*
X179579333Y-86002666D01*
X180198380Y-86574095D02*
X180150761Y-86478857D01*
X180103142Y-86431238D01*
X180007904Y-86383619D01*
X179722190Y-86383619D01*
X179626952Y-86431238D01*
X179579333Y-86478857D01*
X179531714Y-86574095D01*
X179531714Y-86716952D01*
X179579333Y-86812190D01*
X179626952Y-86859809D01*
X179722190Y-86907428D01*
X180007904Y-86907428D01*
X180103142Y-86859809D01*
X180150761Y-86812190D01*
X180198380Y-86716952D01*
X180198380Y-86574095D01*
X180198380Y-87336000D02*
X179531714Y-87336000D01*
X179626952Y-87336000D02*
X179579333Y-87383619D01*
X179531714Y-87478857D01*
X179531714Y-87621714D01*
X179579333Y-87716952D01*
X179674571Y-87764571D01*
X180198380Y-87764571D01*
X179674571Y-87764571D02*
X179579333Y-87812190D01*
X179531714Y-87907428D01*
X179531714Y-88050285D01*
X179579333Y-88145523D01*
X179674571Y-88193142D01*
X180198380Y-88193142D01*
X179150761Y-89383619D02*
X180436476Y-88526476D01*
X181760761Y-81145523D02*
X181808380Y-81288380D01*
X181808380Y-81526476D01*
X181760761Y-81621714D01*
X181713142Y-81669333D01*
X181617904Y-81716952D01*
X181522666Y-81716952D01*
X181427428Y-81669333D01*
X181379809Y-81621714D01*
X181332190Y-81526476D01*
X181284571Y-81336000D01*
X181236952Y-81240761D01*
X181189333Y-81193142D01*
X181094095Y-81145523D01*
X180998857Y-81145523D01*
X180903619Y-81193142D01*
X180856000Y-81240761D01*
X180808380Y-81336000D01*
X180808380Y-81574095D01*
X180856000Y-81716952D01*
X181141714Y-82002666D02*
X181141714Y-82383619D01*
X180808380Y-82145523D02*
X181665523Y-82145523D01*
X181760761Y-82193142D01*
X181808380Y-82288380D01*
X181808380Y-82383619D01*
X181760761Y-83097904D02*
X181808380Y-83002666D01*
X181808380Y-82812190D01*
X181760761Y-82716952D01*
X181665523Y-82669333D01*
X181284571Y-82669333D01*
X181189333Y-82716952D01*
X181141714Y-82812190D01*
X181141714Y-83002666D01*
X181189333Y-83097904D01*
X181284571Y-83145523D01*
X181379809Y-83145523D01*
X181475047Y-82669333D01*
X181141714Y-83431238D02*
X181141714Y-83812190D01*
X181808380Y-83574095D02*
X180951238Y-83574095D01*
X180856000Y-83621714D01*
X180808380Y-83716952D01*
X180808380Y-83812190D01*
X181141714Y-84002666D02*
X181141714Y-84383619D01*
X181808380Y-84145523D02*
X180951238Y-84145523D01*
X180856000Y-84193142D01*
X180808380Y-84288380D01*
X180808380Y-84383619D01*
X181808380Y-84716952D02*
X180808380Y-84716952D01*
X181522666Y-85050285D01*
X180808380Y-85383619D01*
X181808380Y-85383619D01*
X180808380Y-85859809D02*
X181617904Y-85859809D01*
X181713142Y-85907428D01*
X181760761Y-85955047D01*
X181808380Y-86050285D01*
X181808380Y-86240761D01*
X181760761Y-86336000D01*
X181713142Y-86383619D01*
X181617904Y-86431238D01*
X180808380Y-86431238D01*
X181713142Y-87478857D02*
X181760761Y-87431238D01*
X181808380Y-87288380D01*
X181808380Y-87193142D01*
X181760761Y-87050285D01*
X181665523Y-86955047D01*
X181570285Y-86907428D01*
X181379809Y-86859809D01*
X181236952Y-86859809D01*
X181046476Y-86907428D01*
X180951238Y-86955047D01*
X180856000Y-87050285D01*
X180808380Y-87193142D01*
X180808380Y-87288380D01*
X180856000Y-87431238D01*
X180903619Y-87478857D01*
X180760761Y-88621714D02*
X182046476Y-87764571D01*
X183418380Y-78431238D02*
X183370761Y-78336000D01*
X183323142Y-78288380D01*
X183227904Y-78240761D01*
X182942190Y-78240761D01*
X182846952Y-78288380D01*
X182799333Y-78336000D01*
X182751714Y-78431238D01*
X182751714Y-78574095D01*
X182799333Y-78669333D01*
X182846952Y-78716952D01*
X182942190Y-78764571D01*
X183227904Y-78764571D01*
X183323142Y-78716952D01*
X183370761Y-78669333D01*
X183418380Y-78574095D01*
X183418380Y-78431238D01*
X182751714Y-79193142D02*
X183751714Y-79193142D01*
X182799333Y-79193142D02*
X182751714Y-79288380D01*
X182751714Y-79478857D01*
X182799333Y-79574095D01*
X182846952Y-79621714D01*
X182942190Y-79669333D01*
X183227904Y-79669333D01*
X183323142Y-79621714D01*
X183370761Y-79574095D01*
X183418380Y-79478857D01*
X183418380Y-79288380D01*
X183370761Y-79193142D01*
X183370761Y-80478857D02*
X183418380Y-80383619D01*
X183418380Y-80193142D01*
X183370761Y-80097904D01*
X183275523Y-80050285D01*
X182894571Y-80050285D01*
X182799333Y-80097904D01*
X182751714Y-80193142D01*
X182751714Y-80383619D01*
X182799333Y-80478857D01*
X182894571Y-80526476D01*
X182989809Y-80526476D01*
X183085047Y-80050285D01*
X182751714Y-80955047D02*
X183418380Y-80955047D01*
X182846952Y-80955047D02*
X182799333Y-81002666D01*
X182751714Y-81097904D01*
X182751714Y-81240761D01*
X182799333Y-81336000D01*
X182894571Y-81383619D01*
X183418380Y-81383619D01*
X183418380Y-81859809D02*
X182418380Y-81859809D01*
X182418380Y-82097904D01*
X182466000Y-82240761D01*
X182561238Y-82336000D01*
X182656476Y-82383619D01*
X182846952Y-82431238D01*
X182989809Y-82431238D01*
X183180285Y-82383619D01*
X183275523Y-82336000D01*
X183370761Y-82240761D01*
X183418380Y-82097904D01*
X183418380Y-81859809D01*
X182418380Y-82716952D02*
X182418380Y-83288380D01*
X183418380Y-83002666D02*
X182418380Y-83002666D01*
X182418380Y-83621714D02*
X183227904Y-83621714D01*
X183323142Y-83669333D01*
X183370761Y-83716952D01*
X183418380Y-83812190D01*
X183418380Y-84002666D01*
X183370761Y-84097904D01*
X183323142Y-84145523D01*
X183227904Y-84193142D01*
X182418380Y-84193142D01*
X183513619Y-84431238D02*
X183513619Y-85193142D01*
X182751714Y-85336000D02*
X183418380Y-85526476D01*
X182942190Y-85716952D01*
X183418380Y-85907428D01*
X182751714Y-86097904D01*
X183418380Y-86478857D02*
X182418380Y-86478857D01*
X182418380Y-86716952D01*
X182466000Y-86859809D01*
X182561238Y-86955047D01*
X182656476Y-87002666D01*
X182846952Y-87050285D01*
X182989809Y-87050285D01*
X183180285Y-87002666D01*
X183275523Y-86955047D01*
X183370761Y-86859809D01*
X183418380Y-86716952D01*
X183418380Y-86478857D01*
X183418380Y-87478857D02*
X182751714Y-87478857D01*
X182418380Y-87478857D02*
X182466000Y-87431238D01*
X182513619Y-87478857D01*
X182466000Y-87526476D01*
X182418380Y-87478857D01*
X182513619Y-87478857D01*
X183370761Y-87907428D02*
X183418380Y-88002666D01*
X183418380Y-88193142D01*
X183370761Y-88288380D01*
X183275523Y-88336000D01*
X183227904Y-88336000D01*
X183132666Y-88288380D01*
X183085047Y-88193142D01*
X183085047Y-88050285D01*
X183037428Y-87955047D01*
X182942190Y-87907428D01*
X182894571Y-87907428D01*
X182799333Y-87955047D01*
X182751714Y-88050285D01*
X182751714Y-88193142D01*
X182799333Y-88288380D01*
X182751714Y-88764571D02*
X183751714Y-88764571D01*
X182799333Y-88764571D02*
X182751714Y-88859809D01*
X182751714Y-89050285D01*
X182799333Y-89145523D01*
X182846952Y-89193142D01*
X182942190Y-89240761D01*
X183227904Y-89240761D01*
X183323142Y-89193142D01*
X183370761Y-89145523D01*
X183418380Y-89050285D01*
X183418380Y-88859809D01*
X183370761Y-88764571D01*
X183418380Y-89812190D02*
X183370761Y-89716952D01*
X183275523Y-89669333D01*
X182418380Y-89669333D01*
X183418380Y-90621714D02*
X182894571Y-90621714D01*
X182799333Y-90574095D01*
X182751714Y-90478857D01*
X182751714Y-90288380D01*
X182799333Y-90193142D01*
X183370761Y-90621714D02*
X183418380Y-90526476D01*
X183418380Y-90288380D01*
X183370761Y-90193142D01*
X183275523Y-90145523D01*
X183180285Y-90145523D01*
X183085047Y-90193142D01*
X183037428Y-90288380D01*
X183037428Y-90526476D01*
X182989809Y-90621714D01*
X182751714Y-91002666D02*
X183418380Y-91240761D01*
X182751714Y-91478857D02*
X183418380Y-91240761D01*
X183656476Y-91145523D01*
X183704095Y-91097904D01*
X183751714Y-91002666D01*
D10*
%TO.C,ESP32NodeMCU1*%
X132563428Y-84764571D02*
X132230095Y-84764571D01*
X132087238Y-85288380D02*
X132563428Y-85288380D01*
X132563428Y-84288380D01*
X132087238Y-84288380D01*
X131706285Y-85240761D02*
X131563428Y-85288380D01*
X131325333Y-85288380D01*
X131230095Y-85240761D01*
X131182476Y-85193142D01*
X131134857Y-85097904D01*
X131134857Y-85002666D01*
X131182476Y-84907428D01*
X131230095Y-84859809D01*
X131325333Y-84812190D01*
X131515809Y-84764571D01*
X131611047Y-84716952D01*
X131658666Y-84669333D01*
X131706285Y-84574095D01*
X131706285Y-84478857D01*
X131658666Y-84383619D01*
X131611047Y-84336000D01*
X131515809Y-84288380D01*
X131277714Y-84288380D01*
X131134857Y-84336000D01*
X130706285Y-85288380D02*
X130706285Y-84288380D01*
X130325333Y-84288380D01*
X130230095Y-84336000D01*
X130182476Y-84383619D01*
X130134857Y-84478857D01*
X130134857Y-84621714D01*
X130182476Y-84716952D01*
X130230095Y-84764571D01*
X130325333Y-84812190D01*
X130706285Y-84812190D01*
X129801523Y-84288380D02*
X129182476Y-84288380D01*
X129515809Y-84669333D01*
X129372952Y-84669333D01*
X129277714Y-84716952D01*
X129230095Y-84764571D01*
X129182476Y-84859809D01*
X129182476Y-85097904D01*
X129230095Y-85193142D01*
X129277714Y-85240761D01*
X129372952Y-85288380D01*
X129658666Y-85288380D01*
X129753904Y-85240761D01*
X129801523Y-85193142D01*
X128801523Y-84383619D02*
X128753904Y-84336000D01*
X128658666Y-84288380D01*
X128420571Y-84288380D01*
X128325333Y-84336000D01*
X128277714Y-84383619D01*
X128230095Y-84478857D01*
X128230095Y-84574095D01*
X128277714Y-84716952D01*
X128849142Y-85288380D01*
X128230095Y-85288380D01*
X127801523Y-85288380D02*
X127801523Y-84288380D01*
X127230095Y-85288380D01*
X127230095Y-84288380D01*
X126611047Y-85288380D02*
X126706285Y-85240761D01*
X126753904Y-85193142D01*
X126801523Y-85097904D01*
X126801523Y-84812190D01*
X126753904Y-84716952D01*
X126706285Y-84669333D01*
X126611047Y-84621714D01*
X126468190Y-84621714D01*
X126372952Y-84669333D01*
X126325333Y-84716952D01*
X126277714Y-84812190D01*
X126277714Y-85097904D01*
X126325333Y-85193142D01*
X126372952Y-85240761D01*
X126468190Y-85288380D01*
X126611047Y-85288380D01*
X125420571Y-85288380D02*
X125420571Y-84288380D01*
X125420571Y-85240761D02*
X125515809Y-85288380D01*
X125706285Y-85288380D01*
X125801523Y-85240761D01*
X125849142Y-85193142D01*
X125896761Y-85097904D01*
X125896761Y-84812190D01*
X125849142Y-84716952D01*
X125801523Y-84669333D01*
X125706285Y-84621714D01*
X125515809Y-84621714D01*
X125420571Y-84669333D01*
X124563428Y-85240761D02*
X124658666Y-85288380D01*
X124849142Y-85288380D01*
X124944380Y-85240761D01*
X124992000Y-85145523D01*
X124992000Y-84764571D01*
X124944380Y-84669333D01*
X124849142Y-84621714D01*
X124658666Y-84621714D01*
X124563428Y-84669333D01*
X124515809Y-84764571D01*
X124515809Y-84859809D01*
X124992000Y-84955047D01*
X124087238Y-85288380D02*
X124087238Y-84288380D01*
X123753904Y-85002666D01*
X123420571Y-84288380D01*
X123420571Y-85288380D01*
X122372952Y-85193142D02*
X122420571Y-85240761D01*
X122563428Y-85288380D01*
X122658666Y-85288380D01*
X122801523Y-85240761D01*
X122896761Y-85145523D01*
X122944380Y-85050285D01*
X122992000Y-84859809D01*
X122992000Y-84716952D01*
X122944380Y-84526476D01*
X122896761Y-84431238D01*
X122801523Y-84336000D01*
X122658666Y-84288380D01*
X122563428Y-84288380D01*
X122420571Y-84336000D01*
X122372952Y-84383619D01*
X121944380Y-84288380D02*
X121944380Y-85097904D01*
X121896761Y-85193142D01*
X121849142Y-85240761D01*
X121753904Y-85288380D01*
X121563428Y-85288380D01*
X121468190Y-85240761D01*
X121420571Y-85193142D01*
X121372952Y-85097904D01*
X121372952Y-84288380D01*
X120372952Y-85288380D02*
X120944380Y-85288380D01*
X120658666Y-85288380D02*
X120658666Y-84288380D01*
X120753904Y-84431238D01*
X120849142Y-84526476D01*
X120944380Y-84574095D01*
D13*
X122184000Y-71261500D02*
X167964000Y-71261500D01*
X119584000Y-73921500D02*
X120914000Y-73921500D01*
X122184000Y-71261500D02*
X122184000Y-73921500D01*
X122184000Y-96661500D02*
X122184000Y-99321500D01*
X122184000Y-99321500D02*
X167964000Y-99321500D01*
X167964000Y-96661500D02*
X167964000Y-99321500D01*
X122184000Y-96661500D02*
X167964000Y-96661500D01*
X119584000Y-99321500D02*
X120914000Y-99321500D01*
X167964000Y-71261500D02*
X167964000Y-73921500D01*
X119584000Y-97991500D02*
X119584000Y-99321500D01*
X119584000Y-72591500D02*
X119584000Y-73921500D01*
X122184000Y-73921500D02*
X167964000Y-73921500D01*
%TO.C,G\u002A\u002A\u002A*%
G36*
X104611133Y-75618309D02*
G01*
X104610234Y-75651124D01*
X104570004Y-75745220D01*
X104438263Y-75811291D01*
X104170601Y-75854206D01*
X103722610Y-75878832D01*
X103049879Y-75890038D01*
X102108000Y-75892692D01*
X99599358Y-75892692D01*
X99602382Y-75383124D01*
X99608689Y-75265531D01*
X99927937Y-75265531D01*
X104131272Y-75265531D01*
X103905284Y-74520778D01*
X103829053Y-74262978D01*
X103720837Y-73865939D01*
X103677598Y-73658433D01*
X103549958Y-73610376D01*
X103183643Y-73573311D01*
X102657018Y-73550890D01*
X102049008Y-73543111D01*
X101438538Y-73549977D01*
X100904532Y-73571485D01*
X100525915Y-73607637D01*
X100381611Y-73658433D01*
X100367765Y-73741792D01*
X100285422Y-74066487D01*
X100153925Y-74520778D01*
X99927937Y-75265531D01*
X99608689Y-75265531D01*
X99612276Y-75198653D01*
X99686402Y-74660748D01*
X99808615Y-74089605D01*
X100011824Y-73305655D01*
X104035835Y-73305655D01*
X104320730Y-74324791D01*
X104459118Y-74851771D01*
X104552629Y-75265531D01*
X104567553Y-75331563D01*
X104611133Y-75618309D01*
G37*
G36*
X103338379Y-74486179D02*
G01*
X103605070Y-74568740D01*
X103675901Y-74795161D01*
X103591298Y-75035247D01*
X103283925Y-75108741D01*
X103026528Y-75092520D01*
X102891950Y-75043170D01*
X102879796Y-74979530D01*
X102796780Y-74729589D01*
X102773867Y-74645691D01*
X102856375Y-74516449D01*
X103188756Y-74481581D01*
X103338379Y-74486179D01*
G37*
G36*
X102130180Y-71862218D02*
G01*
X102267859Y-72018226D01*
X102589020Y-72047954D01*
X102609915Y-72041463D01*
X102809519Y-72029265D01*
X102788346Y-72217280D01*
X102768343Y-72393944D01*
X102964934Y-72637827D01*
X102989839Y-72651979D01*
X103147742Y-72794634D01*
X103028354Y-72929597D01*
X102838580Y-73032385D01*
X102641909Y-73013109D01*
X102550077Y-72717692D01*
X102533376Y-72630235D01*
X102384355Y-72420547D01*
X102029604Y-72364914D01*
X101912539Y-72368125D01*
X101620254Y-72457555D01*
X101509132Y-72717692D01*
X101466402Y-72918814D01*
X101323722Y-73056213D01*
X101036520Y-72933098D01*
X100922953Y-72808351D01*
X101093506Y-72698409D01*
X101243922Y-72589173D01*
X101276436Y-72278172D01*
X101267925Y-72244225D01*
X101272080Y-72038484D01*
X101475265Y-72049565D01*
X101659447Y-72062995D01*
X101864791Y-71860019D01*
X101910347Y-71747269D01*
X101997667Y-71665991D01*
X102130180Y-71862218D01*
G37*
G36*
X102569327Y-76177264D02*
G01*
X102912800Y-76307411D01*
X103048740Y-76515972D01*
X102935689Y-76592981D01*
X102570275Y-76654004D01*
X102016539Y-76676642D01*
X101952460Y-76676511D01*
X101394151Y-76655370D01*
X101105686Y-76592687D01*
X101048508Y-76480655D01*
X101050478Y-76474897D01*
X101258895Y-76274347D01*
X101645855Y-76159028D01*
X102114838Y-76127235D01*
X102569327Y-76177264D01*
G37*
G36*
X100897672Y-74481614D02*
G01*
X101220747Y-74500445D01*
X101307559Y-74602980D01*
X101228879Y-74860733D01*
X101064429Y-75048853D01*
X100773866Y-75116143D01*
X100502907Y-75028173D01*
X100383308Y-74795161D01*
X100388161Y-74714214D01*
X100509382Y-74530859D01*
X100853679Y-74481581D01*
X100897672Y-74481614D01*
G37*
G36*
X101248800Y-73756675D02*
G01*
X101324049Y-74000305D01*
X101323896Y-74016516D01*
X101231811Y-74257436D01*
X100920577Y-74324791D01*
X100663686Y-74260545D01*
X100557446Y-74071599D01*
X100663533Y-73858759D01*
X100972873Y-73725923D01*
X100974433Y-73725701D01*
X101248800Y-73756675D01*
G37*
G36*
X102329712Y-74549263D02*
G01*
X102421580Y-74795161D01*
X102336977Y-75035247D01*
X102029604Y-75108741D01*
X101729497Y-75041059D01*
X101637629Y-74795161D01*
X101722232Y-74555075D01*
X102029604Y-74481581D01*
X102329712Y-74549263D01*
G37*
G36*
X103310873Y-73813418D02*
G01*
X103489808Y-74050408D01*
X103492683Y-74066707D01*
X103436568Y-74267472D01*
X103138632Y-74324791D01*
X103118475Y-74324668D01*
X102818910Y-74250610D01*
X102735160Y-74000305D01*
X102735161Y-73998864D01*
X102811046Y-73756176D01*
X103086336Y-73725923D01*
X103310873Y-73813418D01*
G37*
G36*
X102329712Y-73765312D02*
G01*
X102421580Y-74011210D01*
X102336977Y-74251296D01*
X102029604Y-74324791D01*
X101729497Y-74257108D01*
X101637629Y-74011210D01*
X101722232Y-73771124D01*
X102029604Y-73697630D01*
X102329712Y-73765312D01*
G37*
%TD*%
M02*
